<?xml version="1.0" encoding="utf-8"?>
<!-- Generator: Adobe Illustrator 27.0.0, SVG Export Plug-In . SVG Version: 6.00 Build 0)  -->
<svg version="1.1" id="Layer_1" xmlns="http://www.w3.org/2000/svg" xmlns:xlink="http://www.w3.org/1999/xlink" x="0px" y="0px"
	 viewBox="0 0 500 260" style="enable-background:new 0 0 500 260;" xml:space="preserve">
<g>
	<path d="M187,212.1c0,1.7-1.6,2.5-4.9,2.5c-2,0-6.4-0.2-13.2-0.7c-6.9-0.5-12.8-0.7-17.9-0.7c-3.3,0-8.2,0.2-14.7,0.7
		c-6.5,0.5-11.5,0.7-14.9,0.7c-4.2,0-6.4-0.9-6.4-2.7c0-1.3,2.4-2.4,7.1-3.2c9-1.1,13.5-4.1,13.5-8.8c0-2.6-0.2-5-0.7-7.1
		c-0.5-2.1-1.4-5-2.9-8.6l-11.3-29.8h-62l-10.7,26.9c-2.1,5.4-3.1,10-3.1,14c0,6,2.7,10.1,8.1,12.3c0.8,0.3,3.3,1,7.3,2
		c2.3,0.5,3.4,1.5,3.4,2.9s-1.6,2.2-4.7,2.2c-0.3,0-3-0.2-8.1-0.7c-5.1-0.5-10-0.7-14.7-0.7c-3.3,0-6.6,0.2-10,0.6
		s-6.9,0.7-10.5,0.9c-4.1,0-6.1-0.9-6.1-2.7c0-1.3,1.4-2.3,4.2-3c5.1-1.2,8.6-2.2,10.5-3.2c3.1-1.5,5.9-4.3,8.3-8.3
		c2.4-4.1,5.2-9.7,8.3-17L95.4,50.1c1.3-3.1,2.8-4.7,4.4-4.7c1.6,0,3.2,1.7,4.7,5.2l54.1,136.3c2.3,5.8,4.5,10.3,6.6,13.3
		c2.1,3.1,4.8,5.3,8.1,6.6c1.5,0.7,4.1,1.3,8,2C185.1,209.5,187,210.6,187,212.1z M118.1,147.3L90.8,76.4l-29.4,70.9H118.1z"/>
	<path d="M349,212.1c0,1.7-1.6,2.5-4.9,2.5c-2,0-6.4-0.2-13.2-0.7c-6.9-0.5-12.8-0.7-17.9-0.7c-3.3,0-8.2,0.2-14.7,0.7
		c-6.5,0.5-11.5,0.7-14.9,0.7c-4.2,0-6.4-0.9-6.4-2.7c0-1.3,2.4-2.4,7.1-3.2c9-1.1,13.5-4.1,13.5-8.8c0-2.6-0.2-5-0.7-7.1
		c-0.5-2.1-1.4-5-2.9-8.6l-11.3-29.8h-62l-10.7,26.9c-2.1,5.4-3.1,10-3.1,14c0,6,2.7,10.1,8.1,12.3c0.8,0.3,3.3,1,7.3,2
		c2.3,0.5,3.4,1.5,3.4,2.9s-1.6,2.2-4.7,2.2c-0.3,0-3-0.2-8.1-0.7c-5.1-0.5-10-0.7-14.7-0.7c-3.3,0-6.6,0.2-10,0.6
		c-3.4,0.4-6.9,0.7-10.5,0.9c-4.1,0-6.1-0.9-6.1-2.7c0-1.3,1.4-2.3,4.2-3c5.1-1.2,8.6-2.2,10.5-3.2c3.1-1.5,5.9-4.3,8.3-8.3
		c2.4-4.1,5.2-9.7,8.3-17l54.6-130.2c1.3-3.1,2.8-4.7,4.4-4.7c1.6,0,3.2,1.7,4.7,5.2l54.1,136.3c2.3,5.8,4.5,10.3,6.6,13.3
		c2.1,3.1,4.8,5.3,8.1,6.6c1.5,0.7,4.1,1.3,8,2C347.1,209.5,349,210.6,349,212.1z M280.1,147.3l-27.3-70.9l-29.4,70.9H280.1z"/>
	<path d="M490.5,183c0,2.6-0.2,7.2-0.5,13.7c-0.3,6.5-0.5,10.2-0.5,11c0,3.1-0.4,5-1.1,5.8s-3.1,1.1-7,1.1c-3.8,0-9.1-0.1-15.9-0.2
		c-27.1-0.7-52.1-1-74.9-1c-9,0-15.8,0.1-20.4,0.4c-4.7,0.2-8.5,0.5-11.6,0.9c-2.9,0-4.4-0.9-4.4-2.7c0-1.5,2.1-2.5,6.4-3.1
		c4.2-0.6,7.4-1.3,9.5-2.3c3.4-1.6,5.6-3.8,6.5-6.6c0.9-2.8,1.3-7.2,1.3-13.2V76.5c0-6-0.5-10.4-1.3-13c-0.9-2.6-3.1-4.7-6.5-6.4
		c-2-1-5.1-1.7-9.4-2.2c-4.3-0.5-6.5-1.3-6.5-2.4c0-1.6,1.5-2.4,4.4-2.4c3.4,0.2,8.3,0.4,14.7,0.6c6.4,0.2,14.3,0.4,23.7,0.4l60.5-1
		h5.4c5.9,0,9.8,0.3,11.8,0.9s2.9,2.3,2.9,5.1c0,1-0.1,3.1-0.4,6.4c-0.2,3.3-0.4,5.6-0.4,6.9c0,2,0.1,4,0.2,6.2
		c0.2,2.1,0.4,4.4,0.7,6.7c0,2.6-0.9,3.9-2.7,3.9c-1.5,0-2.6-2.3-3.4-6.8c-0.8-4.5-2-7.9-3.4-10.2c-3.3-5.4-8.3-9-15.2-10.6
		c-6.9-1.6-16.7-2.5-29.6-2.5h-2c-8.7,0-13.9,0.6-15.7,1.8c-1.8,1.2-2.7,5-2.7,11.4v56.5c10.1,0,17.8-0.9,23.1-2.8
		c5.3-1.9,9.6-5.4,12.9-10.6c1.6-2.8,2.9-6.6,3.7-11.4c0.8-4.8,2-7.2,3.4-7.2c2,0,2.9,1.4,2.9,4.2c0,1.8-0.2,5.8-0.6,12.1
		c-0.4,6.3-0.6,11-0.6,14.1c0,7.7,0.1,13.5,0.4,17.5c0.2,4,0.6,8.5,1.1,13.6c0,2.9-0.9,4.4-2.7,4.4c-1,0-1.9-1.7-2.7-5.1
		c-0.8-3.4-1.8-6.4-2.9-8.8c-2.4-5.4-6.2-9.1-11.4-11.1c-5.1-2-12.5-3.1-22.2-3.1h-4.4V172c0,14.9,1.8,24.3,5.4,28.4
		c4.2,4.9,14.4,7.3,30.6,7.3c11.6,0,20.5-1.1,26.7-3.2c6.2-2.1,11-6.1,14.4-12c1.8-3.1,3.2-6.7,4.2-10.8c1-4.1,2.1-6.1,3.4-6.1
		C489.6,175.7,490.5,178.1,490.5,183z"/>
</g>
</svg>
