<?xml version="1.0" encoding="utf-8"?>
<!-- Generator: Adobe Illustrator 27.0.0, SVG Export Plug-In . SVG Version: 6.00 Build 0)  -->
<svg version="1.1" id="Layer_1" xmlns="http://www.w3.org/2000/svg" xmlns:xlink="http://www.w3.org/1999/xlink" x="0px" y="0px"
	 viewBox="0 0 1402 350" style="enable-background:new 0 0 1402 350;" xml:space="preserve">
<style type="text/css">
	.st0{fill:#FFFFFF;}
</style>
<path class="st0" d="M103.6,213.2c-10,14.1-26.3,23.4-46.2,23.4C25.7,236.6,0,209.1,0,175.1s25.4-61.8,59-61.8
	c18,0,32,7.5,40.4,17.2v18.6c-9.5-13.2-24.1-21.7-40.3-21.7c-25.2,0-44.7,20.8-44.7,47.7s19.2,47.6,43.6,47.6
	c14,0,24.1-5.2,31.4-13.7v-26.2H57.3l3.6-12.9h42.6L103.6,213.2L103.6,213.2z"/>
<path class="st0" d="M154.2,234.6h-14.3V115.3h28c23.5,0,40.8,12.6,40.8,35c0,17.3-10.4,28.6-26,32.9l39.7,51.5h-17L167.3,185h-13.1
	L154.2,234.6L154.2,234.6z M154.2,172.6h13.5c15.4,0,26.3-7.8,26.3-22.4s-10.9-22.4-26.3-22.4h-13.5V172.6z"/>
<path class="st0" d="M353.7,174.9c0,34-25.7,61.6-57.6,61.6s-57.6-27.6-57.6-61.6s25.7-61.6,57.6-61.6S353.7,140.9,353.7,174.9z
	 M252.8,174.9c0,26.8,19.3,47.6,43.3,47.6s43.3-20.8,43.3-47.6s-19.3-47.6-43.3-47.6C272.1,127.4,252.8,148.1,252.8,174.9z"/>
<path class="st0" d="M423.6,223.2c17,0,29-12.6,29-35.3v-72.6h14.3v72.9c0,30.4-19.2,48.4-43.3,48.4s-43.3-18-43.3-48.4v-72.9h14.3
	v72.6C394.7,210.6,406.7,223.2,423.6,223.2z"/>
<path class="st0" d="M583.7,115.3h14.2v123.4L515,147.2v87.5h-14.2V111.2l82.8,91.5v-87.4H583.7z"/>
<path class="st0" d="M669,115.3c32.2,0,58.1,25.7,58.1,59.7s-25.9,59.7-58.1,59.7h-31.6V115.3H669L669,115.3z M651.7,128v93.8h16.5
	c25.7,0,44.5-20.8,44.5-46.9S693.9,128,668.2,128H651.7L651.7,128z"/>
<path class="st0" d="M785.1,223.5c13.7,0,23.7-7.4,23.7-19.8c0-9.2-5.1-13.7-14.5-18.8l-19-10c-11.7-6.2-22-13.4-22-29.4
	c0-19.1,14.8-32.2,34.5-32.2c12.5,0,23.2,5.6,30.2,12.1v16.2c-8.7-9-19.3-15.2-30.7-15.2s-20.3,6.7-20.3,18.1
	c0,8.8,6.5,13.2,14.5,17.7l18.2,9.5c14.8,7.7,22.7,15.2,22.7,30.9c0,20.8-16.6,34-37.7,34c-14,0-26.6-5.9-33.6-12.1v-16.4
	C760.6,217.3,772.6,223.5,785.1,223.5L785.1,223.5z"/>
<path class="st0" d="M855.3,115.3h67.2V128h-53.1v39.4h48.7v12.8h-48.7v41.7H923v12.8h-67.7V115.3z"/>
<path class="st0" d="M957.1,115.3h67.2V128h-53.1v39.4h48.7v12.8h-48.7v41.7h53.6v12.8h-67.7L957.1,115.3L957.1,115.3z"/>
<path class="st0" d="M1088.5,223.5c13.7,0,23.7-7.4,23.7-19.8c0-9.2-5.1-13.7-14.5-18.8l-19-10c-11.7-6.2-21.9-13.4-21.9-29.4
	c0-19.1,14.8-32.2,34.6-32.2c12.5,0,23.2,5.6,30.2,12.1v16.2c-8.7-9-19.3-15.2-30.7-15.2c-11.4,0-20.4,6.7-20.4,18.1
	c0,8.8,6.5,13.2,14.5,17.7l18.2,9.5c14.8,7.7,22.7,15.2,22.7,30.9c0,20.8-16.6,34-37.7,34c-14,0-26.6-5.9-33.6-12.1v-16.4
	C1064,217.3,1076,223.5,1088.5,223.5L1088.5,223.5z"/>
<path class="st0" d="M1248.2,234.6H1233l-14-32.5h-51.7l-14,32.5h-15.1l55-123.6L1248.2,234.6z M1172.6,190h41.1l-20.5-47.7
	L1172.6,190z"/>
<path class="st0" d="M1292.5,238.8l-45-123.6h15.6l30,86.1l31.9-89.5l31.9,89.6l29.9-86.1h15.1l-45,123.6l-32.2-89.6L1292.5,238.8
	L1292.5,238.8z"/>
</svg>
