<?xml version="1.0" encoding="utf-8"?>
<!-- Generator: Adobe Illustrator 27.0.0, SVG Export Plug-In . SVG Version: 6.00 Build 0)  -->
<svg version="1.1" id="Layer_1" xmlns="http://www.w3.org/2000/svg" xmlns:xlink="http://www.w3.org/1999/xlink" x="0px" y="0px"
	 viewBox="0 0 35 38" style="enable-background:new 0 0 35 38;" xml:space="preserve">
<style type="text/css">
	.st0{fill:#FFFFFF;}
</style>
<path class="st0" d="M17.4,14.8c-2.3,0-4.3,1.9-4.2,4.3c0,2.3,1.9,4.3,4.3,4.2c2.3,0,4.2-1.9,4.2-4.3C21.7,16.8,19.7,14.8,17.4,14.8
	z M27.4,11.6c-0.5-1.1-1.4-2-2.5-2.5c-1.7-0.6-5.7-0.5-7.5-0.5c-1.9,0-5.9-0.1-7.5,0.5c-1.1,0.5-2,1.4-2.5,2.5
	c-0.6,1.6-0.5,5.6-0.5,7.5s-0.1,5.8,0.5,7.5c0.4,1.1,1.3,2,2.4,2.4c1.7,0.7,5.7,0.5,7.5,0.5s5.8,0.2,7.5-0.5c1.1-0.4,2-1.3,2.4-2.4
	c0.7-1.7,0.5-5.7,0.5-7.5C27.9,17.2,28,13.2,27.4,11.6L27.4,11.6z M17.4,25.6c-3.6,0-6.5-2.9-6.5-6.5s2.9-6.5,6.5-6.5
	s6.5,2.9,6.5,6.5S21,25.6,17.4,25.6L17.4,25.6z M24.2,13.8c-0.8,0-1.5-0.7-1.5-1.5s0.7-1.5,1.5-1.5s1.5,0.7,1.5,1.5l0,0
	C25.7,13.1,25.1,13.8,24.2,13.8L24.2,13.8L24.2,13.8z M31.4,1.2h-28C1.3,1.2-0.4,2.9-0.4,5v28c0,2.1,1.7,3.8,3.8,3.8h28.1
	c2.1,0,3.8-1.7,3.8-3.8V5C35.4,2.9,33.7,1.2,31.4,1.2z M30.1,24.4c-0.1,2-0.6,3.9-2.1,5.3c-1.5,1.5-3.3,2-5.3,2.1
	c-2.1,0.1-8.4,0.1-10.5,0c-2-0.1-3.9-0.6-5.4-2.1s-2-3.3-2.1-5.3c-0.1-2.1-0.1-8.4,0-10.5c0.1-2,0.6-3.9,2.1-5.4s3.3-2,5.4-2.1
	s8.4-0.1,10.5,0c2,0.1,3.9,0.6,5.3,2.1c1.5,1.5,2,3.3,2.1,5.4C30.2,15.9,30.2,22.3,30.1,24.4z"/>
</svg>
