<?xml version="1.0" encoding="utf-8"?>
<!-- Generator: Adobe Illustrator 24.2.1, SVG Export Plug-In . SVG Version: 6.00 Build 0)  -->
<svg version="1.1" id="Layer_1" xmlns="http://www.w3.org/2000/svg" xmlns:xlink="http://www.w3.org/1999/xlink" x="0px" y="0px"
	 viewBox="0 0 70 70" style="enable-background:new 0 0 70 70;" xml:space="preserve">
<style type="text/css">
	.st0{fill:none;}
	.st1{fill:#EDEDED;}
</style>
<path class="st1" d="M52.22,26.32c-0.41-1.56-1.63-2.78-3.18-3.2C46.24,22.36,35,22.36,35,22.36s-11.24,0-14.05,0.76
	c-1.55,0.42-2.76,1.64-3.18,3.2c-0.75,2.82-0.75,8.71-0.75,8.71s0,5.89,0.75,8.71c0.41,1.56,1.63,2.73,3.18,3.15
	C23.76,47.64,35,47.64,35,47.64s11.24,0,14.05-0.76c1.55-0.42,2.76-1.59,3.18-3.15c0.75-2.82,0.75-8.71,0.75-8.71
	S52.97,29.14,52.22,26.32z M31.32,40.37V29.68l9.4,5.35L31.32,40.37L31.32,40.37z"/>
</svg>
