<?xml version="1.0" encoding="utf-8"?>
<!-- Generator: Adobe Illustrator 27.0.0, SVG Export Plug-In . SVG Version: 6.00 Build 0)  -->
<svg version="1.1" id="Layer_1" xmlns="http://www.w3.org/2000/svg" xmlns:xlink="http://www.w3.org/1999/xlink" x="0px" y="0px"
	 viewBox="0 0 100 100" style="enable-background:new 0 0 100 100;" xml:space="preserve">
<style type="text/css">
	.st0{fill:none;stroke:#E6E6E6;stroke-width:2;stroke-miterlimit:10;}
	.st1{fill:#E6E6E6;}
</style>
<g>
	<path class="st0" d="M33.03,70.17c-5.33-5.21-5-15-5-15s9.67-0.21,15,5s4.41,15.18,4.41,15.18S38.36,75.38,33.03,70.17z"/>
	<path class="st0" d="M67.5,70.17c5.33-5.21,5-15,5-15s-9.67-0.21-15,5s-4.41,15.18-4.41,15.18S62.17,75.38,67.5,70.17z"/>
	<path class="st0" d="M57.62,53.75c2.35-6.05-3.59-14.57-3.59-14.57s-4.65,4.57-6.99,10.62c-2.35,6.05,1.46,13.42,1.46,13.42
		S55.27,59.8,57.62,53.75z"/>
	<g>
		<path class="st1" d="M50.38,84.17c-0.44-1.99-0.8-3.99-1.05-6c-0.13-1-0.53-2-0.3-3c0.21-1.1,0.58-2.08,1.35-3c0,0,0.3,0,0.3,0
			c1.53,1.86,1.61,3.79,1.05,6c-0.25,2.01-0.61,4.01-1.05,6C50.68,84.17,50.38,84.17,50.38,84.17L50.38,84.17z"/>
	</g>
	<g>
		<path class="st1" d="M32.53,59.67c5.96,1.17,15.66,8.1,14,15c-1.37-3.32-3.97-5.28-6.45-7.67C37.75,64.85,34.58,62.13,32.53,59.67
			L32.53,59.67z"/>
	</g>
	<g>
		<path class="st1" d="M70.03,59.17c-2.49,2.59-6.28,5.58-9.01,7.9c-2.89,2.61-6.06,4.79-7.49,8.6C51.98,68,63.49,60.49,70.03,59.17
			L70.03,59.17z"/>
	</g>
	<g>
		<path class="st1" d="M54.03,45.17c-1.61,5.96-4.05,12.49-5.5,18.5C47.25,57.15,49.86,50.17,54.03,45.17L54.03,45.17z"/>
	</g>
	<g>
		<path class="st1" d="M26.03,53.17c-5.82-8.42-2.79-20.14,8-22C24.8,36.27,23.52,43.52,26.03,53.17L26.03,53.17z"/>
	</g>
	<g>
		<path class="st1" d="M38.14,38.22C30.4,29.66,35.2,16.56,47,16.08c0,0,0.06,0.19,0.06,0.19c-10.36,3.34-13.41,12.34-8.74,21.86
			C38.32,38.12,38.14,38.22,38.14,38.22L38.14,38.22z"/>
	</g>
	<g>
		<path class="st1" d="M47.28,15.73c8.38-1.75,20.04,4.88,17.85,14.44c0,0-0.2,0.01-0.2,0.01c-0.3-6.48-5.95-10.88-11.68-12.8
			c-1.94-0.68-3.95-1.19-5.99-1.46C47.26,15.93,47.28,15.73,47.28,15.73L47.28,15.73z"/>
	</g>
	<g>
		<path class="st1" d="M59.13,31.8c10.22-4.37,19.25,2.91,18.24,13.73c-0.2,2.98-0.94,5.83-2.17,8.48l-0.2-0.04
			c0.52-2.78,0.85-5.59,0.79-8.41C75.77,35.48,68.99,30.23,59.18,32C59.18,32,59.13,31.8,59.13,31.8L59.13,31.8z"/>
	</g>
</g>
</svg>
