<?xml version="1.0" encoding="utf-8"?>
<!-- Svg Vector Icons : http://www.onlinewebfonts.com/icon -->
<!DOCTYPE svg PUBLIC "-//W3C//DTD SVG 1.1//EN" "http://www.w3.org/Graphics/SVG/1.1/DTD/svg11.dtd">
<svg version="1.1" xmlns="http://www.w3.org/2000/svg" xmlns:xlink="http://www.w3.org/1999/xlink" x="0px" y="0px" viewBox="0 0 1000 1000" enable-background="new 0 0 1000 1000" xml:space="preserve">
<metadata> Svg Vector Icons : http://www.onlinewebfonts.com/icon </metadata>
<g><path d="M689.7,343.8c3.2,0,6.3,0.3,9.5,0.4c-30.6-133.6-171.7-234.7-341.4-234.7C165.7,109.5,10,238.9,10,398.5c0,90.7,50.3,171.7,129.1,224.7c-12.8,39.6-34.2,111.1-34.2,111.1s85.6-38.4,135.3-63.8c36.7,11,76.3,16.9,117.6,16.9c5.4,0,10.6-0.5,15.9-0.7c-10.3-25.3-15.9-52.2-15.9-80.3C357.7,461.4,506.3,343.8,689.7,343.8z M484.2,257.6c22,0,39.8,17.6,39.8,39.4c0,21.7-17.8,39.4-39.8,39.4c-22,0-39.8-17.6-39.8-39.4C444.4,275.2,462.2,257.6,484.2,257.6z M239.2,344.1c-22,0-39.8-17.6-39.8-39.4c0-21.7,17.8-39.4,39.8-39.4c22,0,39.8,17.6,39.8,39.4C279,326.5,261.2,344.1,239.2,344.1z M990,609.3c0-129.4-134.5-234.3-300.3-234.3S389.3,479.9,389.3,609.3c0,129.4,134.5,234.3,300.3,234.3c37.3,0,73-5.3,105.9-15c31.5,22.2,83.7,61.9,83.7,61.9s-0.1,0-19.2-88.2C938.6,760,990,689.3,990,609.3z M579,562.5c-17.5,0-31.6-14-31.6-31.2c0-17.3,14.2-31.2,31.6-31.2c17.5,0,31.6,14,31.6,31.2S596.5,562.5,579,562.5z M800.3,562.5c-17.5,0-31.6-14-31.6-31.2c0-17.3,14.2-31.2,31.6-31.2c17.4,0,31.6,14,31.6,31.2S817.8,562.5,800.3,562.5z"/></g>
</svg>