<?xml version="1.0" encoding="utf-8"?>
<!-- Generator: Adobe Illustrator 27.0.0, SVG Export Plug-In . SVG Version: 6.00 Build 0)  -->
<svg version="1.1" id="Layer_1" xmlns="http://www.w3.org/2000/svg" xmlns:xlink="http://www.w3.org/1999/xlink" x="0px" y="0px"
	 viewBox="0 0 100 100" style="enable-background:new 0 0 100 100;" xml:space="preserve">
<style type="text/css">
	.st0{fill:none;stroke:#E6E6E6;stroke-width:2;stroke-miterlimit:10;}
	.st1{fill:#E6E6E6;}
</style>
<g>
	<path class="st0" d="M80.61,41.62c0,0-2.59,14.79-15,28s-35,9-35,9s27.59,10.21,40-3S80.61,41.62,80.61,41.62z"/>
	<path class="st0" d="M55.96,39.82c-5.34,1.92-10.52,4.72-14.35,8.8c-4.89,5.2-7.63,11.11-9.16,16.37
		c-2.36,8.09-1.84,14.63-1.84,14.63s22.59,4.21,35-9c12.41-13.21,15-35,15-35S67.9,35.52,55.96,39.82z M60.82,64.24
		c-9.06,8.08-21.91,7.63-21.91,7.63s0.25-3.98,1.92-8.92c1.41-4.16,3.84-9.01,7.99-12.71c2.85-2.54,6.18-4.24,9.4-5.37
		c7.01-2.46,13.51-2.25,13.51-2.25C70.9,48.69,70.71,55.43,60.82,64.24z"/>
	<path class="st0" d="M41.61,48.62c-4.89,5.2-7.63,11.11-9.16,16.37c-2.6-0.43-5.28-2-7.84-5.37c-10.97-14.39-1.86-42-1.86-42
		s21.03,6.11,32.01,20.51c0.44,0.58,0.84,1.15,1.2,1.69C50.62,41.74,45.44,44.54,41.61,48.62z"/>
	<path class="st0" d="M64.89,47.72c-0.15,0.29-2.67,4.93-7.05,9.32c-4.53,4.52-8.71,7.68-9.33,7.06c-0.63-0.63,2.53-4.81,7.06-9.33
		C59.95,50.38,64.6,47.87,64.89,47.72z"/>
	<g>
		<path class="st1" d="M30.11,28.12c4.9,1.95,10.95,6.57,12,12C38.41,35.86,33.64,32.54,30.11,28.12L30.11,28.12z"/>
	</g>
</g>
</svg>
