<?xml version="1.0" encoding="utf-8"?>
<!-- Generator: Adobe Illustrator 27.0.0, SVG Export Plug-In . SVG Version: 6.00 Build 0)  -->
<svg version="1.1" id="Layer_1" xmlns="http://www.w3.org/2000/svg" xmlns:xlink="http://www.w3.org/1999/xlink" x="0px" y="0px"
	 viewBox="0 0 100 100" style="enable-background:new 0 0 100 100;" xml:space="preserve">
<style type="text/css">
	.st0{fill:none;stroke:#E6E6E6;stroke-width:2;stroke-miterlimit:10;}
	.st1{fill:#E6E6E6;}
</style>
<g>
	<path class="st0" d="M15.59,38.5c-0.11,0.47-0.2,0.96-0.27,1.45c-0.28-1-0.41-2.02-0.42-3.02C15.11,37.48,15.34,38.01,15.59,38.5z"
		/>
	<path class="st0" d="M32.29,56c-6.16,2.28-13.3,0.02-16.39-8.34c-0.93-2.53-0.98-5.2-0.58-7.71c0.07-0.49,0.16-0.98,0.27-1.45
		c-0.25-0.49-0.48-1.02-0.69-1.57c-0.05-0.12-0.1-0.24-0.14-0.36C12.04,29.21,16.28,21,16.28,21s9.18,1.05,12.72,7.01
		c2.03,1.09,3.78,2.62,4.59,4.8c0.11,0.29,0.21,0.58,0.3,0.87c1.52,1.16,2.76,2.61,3.44,4.44C40.42,46.48,38.45,53.72,32.29,56z"/>
	<path class="st0" d="M42.29,71c0,0-3.11-22.65,7-31c3.06-2.52,5.72-5.92,9.4-6.62c0.71-0.15,1.44-0.27,2.14-0.35
		c0.56-0.58,1.18-1.16,1.85-1.72c0.14-0.13,0.28-0.25,0.43-0.37c8.9-7.35,22.36-5.64,22.36-5.64s3,13.02-3.56,20.79
		c-0.53,3.3-1.8,6.44-4.44,8.63c-0.35,0.29-0.7,0.57-1.06,0.84c-0.87,2.64-2.29,5.05-4.5,6.88C61.8,70.79,42.29,71,42.29,71z"/>
	<g>
		<path class="st1" d="M31.29,79c7.97-7.31,16.18-14.24,24.09-21.56c7.87-7.3,15.77-14.55,21.91-23.44
			c-0.53,1.24-1.08,2.49-1.66,3.74C66.54,54.01,47.27,69.6,31.29,79L31.29,79z"/>
	</g>
	<g>
		<path class="st1" d="M33.69,77.67c-2.36-10.46-4.22-20.98-6.67-31.4c-1.5-6.22-2.9-12.48-5.73-18.27
			c0.61,0.88,1.27,1.75,1.82,2.69c3.67,6.61,5.62,14.09,7.26,21.41C32.12,60.53,33.38,69.06,33.69,77.67L33.69,77.67z"/>
	</g>
	<g>
		<path class="st1" d="M19.41,38.44c2.51,0.79,4.62,1.86,6.9,3.18C23.68,41.65,21.15,40.38,19.41,38.44L19.41,38.44z"/>
	</g>
	<g>
		<path class="st1" d="M28.16,34c0.42,2.17,0.23,4.4-0.53,6.46c-0.28,0.67-0.65,1.42-1.33,1.79c0.58-1.11,0.67-2.86,0.91-4.07
			C27.46,36.8,27.69,35.4,28.16,34L28.16,34z"/>
	</g>
	<g>
		<path class="st1" d="M21.29,48.07c1.78,0.37,3.48,0.99,5.16,1.54c3.78,1.06-0.65,0.92-1.99,0.38
			C23.28,49.59,22.14,49.01,21.29,48.07L21.29,48.07z"/>
	</g>
	<g>
		<path class="st1" d="M33.69,39.95c-0.18,3.66-1.37,8.35-4.74,10.3C31.34,47.21,32.08,43.44,33.69,39.95L33.69,39.95z"/>
	</g>
	<g>
		<path class="st1" d="M68.79,34.5c-0.73,4.39-1.97,8.54-2,13C65.41,43.2,66.75,38.38,68.79,34.5L68.79,34.5z"/>
	</g>
	<g>
		<path class="st1" d="M67.69,47.28c3.53-1.59,7.34-2.99,10.23-5.65C76.05,45.29,71.6,47.03,67.69,47.28L67.69,47.28z"/>
	</g>
	<g>
		<path class="st1" d="M60.41,38.92c-0.9,5.4-2.06,11.19-0.42,16.53c0,0-0.43-0.31-0.43-0.31c4.45,0.07,9.33,0.12,13.24-2.3
			c-3.69,3.12-8.98,3.35-13.61,3.27C57.21,50.52,58.65,44.37,60.41,38.92L60.41,38.92z"/>
	</g>
	<g>
		<path class="st1" d="M51.66,45.1c-0.42,6.19-1.87,12.2-1.88,18.4c-0.87-3.02-0.53-6.24-0.19-9.31
			C50.03,51.1,50.65,48.05,51.66,45.1L51.66,45.1z"/>
	</g>
	<g>
		<path class="st1" d="M50.15,64.09c5.69-0.16,11.21-1.48,16.43-3.71C62.02,63.87,55.78,65.33,50.15,64.09L50.15,64.09z"/>
	</g>
</g>
</svg>
