<?xml version="1.0" encoding="utf-8"?>
<!-- Generator: Adobe Illustrator 27.0.0, SVG Export Plug-In . SVG Version: 6.00 Build 0)  -->
<svg version="1.1" id="Layer_1" xmlns="http://www.w3.org/2000/svg" xmlns:xlink="http://www.w3.org/1999/xlink" x="0px" y="0px"
	 viewBox="0 0 24 15" style="enable-background:new 0 0 24 15;" xml:space="preserve">
<style type="text/css">
	.st0{fill-rule:evenodd;clip-rule:evenodd;fill:#FDDB3A;}
</style>
<path class="st0" d="M16.5,7.5c0-1.2,1-2.2,2.2-2.2s2.2,1,2.2,2.2s-1,2.2-2.2,2.2S16.5,8.7,16.5,7.5z M9.8,7.5c0-1.2,1-2.2,2.2-2.2
	s2.2,1,2.2,2.2s-1,2.2-2.2,2.2S9.8,8.7,9.8,7.5z M3,7.5c0-1.2,1-2.2,2.2-2.2s2.2,1,2.2,2.2s-1,2.2-2.2,2.2S3,8.7,3,7.5z"/>
</svg>
