<?xml version="1.0" encoding="utf-8"?>
<!-- Generator: Adobe Illustrator 27.0.0, SVG Export Plug-In . SVG Version: 6.00 Build 0)  -->
<svg version="1.1" xmlns="http://www.w3.org/2000/svg" xmlns:xlink="http://www.w3.org/1999/xlink" x="0px" y="0px"
	 viewBox="0 0 300 300" style="enable-background:new 0 0 300 300;" xml:space="preserve">
<style type="text/css">
	.st0{display:none;}
	.st1{display:inline;}
	.st2{fill:#185432;}
	.st3{display:inline;fill:#9DB134;}
	.st4{display:inline;fill:#8CC63F;}
	.st5{fill:#F5F5EB;}
	.st6{display:inline;fill:#FFFFFF;stroke:#185432;stroke-width:2;stroke-miterlimit:10;}
	.st7{display:inline;fill:none;stroke:#9DB134;stroke-width:2;stroke-miterlimit:10;}
	.st8{display:inline;fill:#185432;stroke:#009245;stroke-width:0.25;stroke-miterlimit:10;}
	.st9{display:inline;fill:#5F4842;stroke:#000000;stroke-width:0.5;stroke-miterlimit:10;}
	.st10{fill:#5F4842;stroke:#000000;stroke-width:0.5;stroke-miterlimit:10;}
	.st11{fill:#603813;}
	.st12{fill:#356A4C;}
	.st13{display:inline;fill:#FFFFFF;}
	.st14{fill:#FFFFFF;}
</style>
<g id="Layer_1" class="st0">
	<g class="st1">
		<path d="M261.6,171h-0.8c-0.1,1.2-0.2,2.4-0.3,3.6L261.6,171L261.6,171z"/>
	</g>
	<g class="st1">
		<path class="st2" d="M11.9,157.5c0-0.5,0.1-1,0.1-1.4C14.8,126.5,29,99.1,51.8,79c23-20.3,52.9-31.5,84.2-31.5
			c11.6,0,23,1.5,34.1,4.5c0.8,0.3,1.7,0.6,2.7,0.8c0.3,0.1,0.6,0.1,0.9,0.2c47.9,14.5,81.8,55,86.3,103c0,0.5,0.1,1,0.1,1.5H11.9z"
			/>
		<path d="M136,48c11.5,0,22.9,1.5,33.9,4.5c0.9,0.3,1.8,0.6,2.8,0.9c0.3,0.1,0.5,0.1,0.8,0.2c23.1,7,43.4,20.3,58.8,38.5
			c15.6,18.4,25,40.6,27.2,64.1c0,0.3,0.1,0.6,0.1,0.9H12.4c0-0.3,0.1-0.6,0.1-0.9c2.8-29.4,16.9-56.7,39.6-76.8
			C75.1,59.1,104.9,48,136,48 M136,47C70.8,47,17.3,94.9,11.5,156c-0.1,0.7-0.1,1.3-0.2,2h249.3c-0.1-0.7-0.1-1.3-0.2-2
			c-4.6-48.8-39.6-89.1-86.7-103.4c-0.3-0.1-0.6-0.1-0.8-0.2c-0.9-0.2-1.8-0.5-2.7-0.8C159.3,48.6,147.9,47,136,47L136,47z"/>
	</g>
	<path class="st3" d="M155.1,50.7c7.5-1.6,7.1-0.2,14.9,2.3c7.8,2.5,15,5,20.1,10.6c5.2,5.6-18.4,21.9-17.9,28.5
		c0.6,6.6-7.1,10.9-11.4,16c-4.3,5-3,5.4-10.7,6c-8.5,0.7-33.9,38.2-31.7,28c1.7-8.1,17.9-40.9,17.3-44.6c-1.1-7.1-14.6-5-15.2-11.6
		c-0.6-6.6,16-10.7,20.3-15.7S147.6,52.3,155.1,50.7z"/>
	<path class="st4" d="M161,52c7.6-2,7.2-0.5,15,2s15,5,20,11s-19.4,24.8-19,32s-7.5,12.3-12,18s-3.2,6.1-11,7
		c-8.6,1-35.5,43.2-33,32c2-9,19.4-45.7,19-49.7c-0.8-7.8-14.6-5-15-12.3s16.5-12.3,21-18S153.4,54,161,52z"/>
	<path class="st4" d="M217.2,91.9c3.9-1.3,10.1-1.5,14-0.2c3.9,1.2,5.6,5.7,8,9c2.4,3.3-14.9,12.5-14.9,16.7c0,4.1-4.1,7.3-6.5,10.6
		s-1.8,3.6-5.7,4.3c-4.4,0.8-22.5,16.3-20.9,9.8c1.2-5.2,14-13.1,14.3-19.6c0.2-4.5,1.4-14.1,3.8-17.5
		C211.4,101.5,213.3,93.2,217.2,91.9z"/>
	<path class="st3" d="M223,83c3.2-1.4,2.9,4,6,5s3,5.5,4.8,8.5S221.1,109,221,112.9c-0.2,3.9-3.7,7-5.8,10.3
		c-2.1,3.3-1.6,3.4-4.8,4.3c-3.6,1-18.9,16.3-17.4,10.2c1.2-5,12-13,12.5-19.1c0.3-4.2,1.8-13.4,3.9-16.7
		C211.4,98.6,219.8,84.4,223,83z"/>
	<path class="st3" d="M66.5,69.8c2-1.3-1,2.9-0.4,3.5c0.7,0.6-1.8,4-2.7,6.2c-0.9,2.2-11.8,10.2-14,13.2c-2.2,3-5.3,5.5-7.9,8.2
		c-2.6,2.6-2.5,2.7-4.3,3.5c-1.9,0.9-16.4,13.5-12.4,8.7c3.2-3.9,11.8-10.5,15.3-15.3c2.4-3.2,8-10.3,10.6-12.9
		C53.4,82.2,64.4,71,66.5,69.8z"/>
	<path class="st3" d="M37,160.3c2.5,7.2,3.5,6.2,9.8,11.5c6.2,5.3,12.1,10,19.7,11.4s9.3-27.9,15.3-31c6-3.1,5.8-12.1,7.9-18.5
		c2.1-6.4,3.1-5.6-0.4-12.5c-3.9-7.7,10.4-37.9,10.1-45.6c-0.5-12.7-28.4,40.8-31.9,42.4c-6.7,3-12-9.8-18-6.6s-0.9,19.6-3,26
		C44.3,143.8,34.4,153.1,37,160.3z"/>
	<path class="st4" d="M39,164.3c2.5,7.2,3.5,6.2,9.8,11.5c6.2,5.3,12.1,10,19.7,11.4s9.3-27.9,15.3-31c6-3.1,5.8-12.1,7.9-18.5
		c2.1-6.4,3.1-5.6-0.4-12.5c-3.9-7.7,10.4-37.9,10.1-45.6c-0.5-12.7-28.4,40.8-31.9,42.4c-6.7,3-12-9.8-18-6.6s-0.9,19.6-3,26
		C46.3,147.8,36.4,157.1,39,164.3z"/>
	<g class="st1">
		<g>
			<path class="st5" d="M10.1,171.5h0.7c0.1,1,0.2,2,0.3,2.9L10.1,171.5z"/>
			<path d="M11.3,171H9.4l2.8,8.6C11.8,176.8,11.5,173.9,11.3,171L11.3,171z"/>
		</g>
		<g>
			<path class="st5" d="M44.4,278.5l-20-62.6l-11.6-36.4c-0.4-2.6-0.7-5.3-0.9-8h248.4c-0.1,1-0.2,2-0.3,3l-33.3,104H44.4z"/>
			<path d="M259.6,172c-0.1,0.8-0.1,1.6-0.2,2.4l-14.7,45.9L226.3,278H44.7l-19.9-62.3l-11.6-36.4c-0.4-2.5-0.6-4.9-0.8-7.4H259.6
				 M260.7,171H11.3c0.2,2.9,0.5,5.8,0.9,8.6L23.8,216L44,279h183l18.7-58.4l14.7-46C260.5,173.4,260.6,172.2,260.7,171L260.7,171z"
				/>
		</g>
	</g>
	<path class="st6" d="M92.4,192.3c9.9-4.4,28.2,2.9,40.5,2.6c12.4-0.3,29.4-8.5,39.5-4.5c10.1,3.9,2.7,18.2,6.7,24.9
		c4,6.7,22.7,11.5,19.1,18.4c-3.7,6.9-15.6,3.2-25.5,7.7c-9.9,4.4-26.2,20.7-38.5,21c-12.4,0.3-17.5-14.7-27.6-18.6
		c-10.1-3.9-33.8-0.3-37.8-7c-4-6.7,16.6-13.7,20.2-20.6S82.5,196.7,92.4,192.3z"/>
	<path class="st7" d="M86.8,186.4c11.3-5.1,32.1,3.4,46.2,3.1c14.1-0.3,33.5-9.8,45-5.2c11.5,4.6,3.1,21.1,7.7,28.8
		c4.5,7.7,25.9,13.4,21.8,21.3c-4.2,8-17.8,3.7-29.1,8.9c-11.3,5.1-29.9,24-43.9,24.3c-14.1,0.3-20-17-31.5-21.6s-38.6-0.3-43.1-8.1
		c-4.5-7.7,18.9-15.9,23.1-23.8C87,206.1,75.5,191.6,86.8,186.4z"/>
	<polygon class="st8" points="144.8,201 144.8,226.4 126,201 126,201 125.2,201 117,201 117,239 125.2,239 125.2,213.6 144,239 
		145,239 144,239 153,239 153,201 	"/>
	<path class="st9" d="M172.9,52.4c-1-0.3-2.1-0.6-3.1-1c-0.1-0.1-0.3-0.1-0.4-0.2c0,0,0,0,0,0c0,0,0,0,0,0c-0.4,0-0.8-0.1-1.2-0.2
		c-0.5-0.1-1-0.2-1.4-0.4c-0.3-0.1-0.6-0.2-0.9-0.4c-0.1,0-0.1,0-0.2,0c0,0-0.1,0-0.1,0c-0.7-0.1-1.3-0.3-2-0.4
		c-0.2,0-0.4-0.1-0.6-0.1c0,0,0,0,0,0c-0.2,0-0.5,0-0.7-0.1c0,0,0,0-0.1,0c0,0,0,0,0,0c-0.2,0-0.3,0-0.5-0.1c-0.1,0-0.2,0-0.3-0.1
		c0,0-0.1,0-0.1,0C141.3,112.8,112,176.3,135,138c17.3-28.9,32.1-66.7,38.9-85.4C173.5,52.5,173.2,52.5,172.9,52.4z"/>
	<path class="st9" d="M186.9,57.2c-1-0.2-2.1-0.4-3.1-0.6c-0.1,0-0.3-0.1-0.4-0.1c0,0,0,0,0,0c0,0,0,0,0,0c-0.4,0-0.8-0.1-1.2-0.1
		c-0.5-0.1-1-0.1-1.4-0.2c-0.3-0.1-0.6-0.2-0.9-0.3c-0.1,0-0.1,0-0.2,0c0,0-0.1,0-0.1,0c-0.7-0.1-1.3-0.2-2-0.2
		c-0.2,0-0.4,0-0.6-0.1c0,0,0,0,0,0c-0.2,0-0.5,0-0.7-0.1c0,0,0,0-0.1,0c0,0,0,0,0,0c-0.2,0-0.3,0-0.5,0c-0.1,0-0.2,0-0.3,0
		c0,0-0.1,0-0.1,0c-20.1,41.6-49.4,83.3-26.4,58.1c17.3-19,32.1-43.8,38.9-56.1C187.5,57.3,187.2,57.2,186.9,57.2z"/>
	<g class="st1">
		<path class="st10" d="M236.9,98.5c0,0,0.1,0,0.1,0c-6,6.2-18.9,18.6-34,28.1c-20.1,12.6,5.5-8.3,23.1-29.2c0,0,4.9-6.4,5-6.4
			C236.3,95.3,237.6,97.5,236.9,98.5z"/>
	</g>
	<path class="st9" d="M78.7,103C74,122.3,65.6,142.2,59,156c-0.3,0.7-0.6,1.3-1,2H45.7c0,0,0,0,0,0c0,0,0,0,0,0
		c-0.1-0.1-0.2-0.2-0.3-0.4c-0.1-0.1-0.1-0.1-0.2-0.2c0,0,0-0.1-0.1-0.1c0.3-0.4,0.5-0.9,0.8-1.3C68.9,116.4,86.7,70.3,78.7,103z"/>
	<path class="st9" d="M94.3,76.5c-4.1,28.5-11.5,58-17.2,78.5c-0.3,1-0.6,2-0.8,3H65.5c0,0,0,0,0,0c0,0,0,0,0,0
		c-0.1-0.2-0.2-0.4-0.3-0.5c-0.1-0.1-0.1-0.2-0.2-0.3c0,0,0-0.1-0.1-0.1c0.2-0.7,0.4-1.3,0.7-1.9C85.7,96.3,101.3,28,94.3,76.5z"/>
	<g class="st1">
		<path class="st5" d="M4.5,172.5v-16h6.8c0.2,0.2,0.5,0.2,0.8,0.2c0.5,0,1.1-0.1,1.8-0.2c0.6-0.1,1.3-0.2,1.7-0.2l0,0.2H260
			c0.1,0.1,0.2,0.2,0.4,0.2h0.2c0,0,0.2-0.2,0.2-0.2h5.7v16H4.5z"/>
		<path class="st11" d="M14.9,156.8l0,0.2H16h243.8c0.2,0.1,0.4,0.2,0.6,0.2l0.5,0l0.2-0.2h4.9v15H5v-15h6.1
			c0.3,0.2,0.7,0.2,0.9,0.2c0.5,0,1.2-0.1,1.9-0.2C14.2,156.9,14.6,156.9,14.9,156.8 M260,155.8c0,0-0.1,0.1,0,0.2H16
			c0-0.1-0.2-0.2-0.5-0.2c-0.9,0-2.6,0.4-3.5,0.4c-0.3,0-0.5-0.1-0.5-0.2H4v17h263v-17h-6.5c0,0.1,0,0.2,0,0.2
			C260.4,156.2,260.1,155.8,260,155.8L260,155.8z"/>
	</g>
</g>
<g id="Layer_2">
	<g>
		<circle class="st2" cx="152.7" cy="149.4" r="126"/>
	</g>
	<g>
		<g>
			<g>
				<g>
					<g>
						<g>
							<path class="st12" d="M105.3,50.2c0-0.9-0.4-2.8-0.5-2.4l0.3,3.3L105.3,50.2z"/>
							<path class="st12" d="M102.8,44.4c0,1.6,0.2,4.5,0.8,7.4c-0.3-3.2,0-1.9-0.3-5.7c0.2-0.4,0.6,1,0.7,2.2
								c-0.1-0.9,0.5,0.7,0.3-1.4c-0.7-2.5-1.1-2.5-1.1-0.4C103,45.9,102.9,45,102.8,44.4z"/>
							<path class="st12" d="M78.7,46.1l0.3,0.3C78.9,46.2,78.8,46.1,78.7,46.1z"/>
							<path class="st12" d="M64.1,51.7c0.1-0.1-0.1-0.4-0.2-0.7C63.8,51.3,63.9,51.5,64.1,51.7z"/>
							<path class="st12" d="M59.4,50.7c0.1,0,0.2,0,0.3,0.1C59.4,50.5,59.3,50.4,59.4,50.7z"/>
							<path class="st12" d="M78.7,46.1l-0.8-0.8C78.3,46.3,78.4,45.9,78.7,46.1z"/>
							<path class="st12" d="M101.2,52.8c0-0.2,0-0.5,0-0.9c0,0.2-0.1,0.3-0.1,0.4C101.2,52.4,101.2,52.6,101.2,52.8z"/>
							<path class="st12" d="M84,41.1l0.1,0c-0.1-0.4-0.2-0.8-0.3-1.3L84,41.1z"/>
							<path class="st12" d="M88.8,39c-0.1-0.1,0.6,2.6,0.9,3.8c-0.3-1.1-0.3-1.7-0.3-1.9C89.3,40.4,89.1,39.8,88.8,39z"/>
							<path class="st12" d="M97.9,41.8l0.1-0.4C98,41.6,97.9,41.7,97.9,41.8z"/>
							<path class="st12" d="M80.3,41.9c-0.2-0.4-0.3-0.7-0.4-0.9C80,41.3,80.1,41.6,80.3,41.9z"/>
							<path class="st12" d="M37.8,160.1c-0.2,0-0.3,0-0.5,0C37.6,160.2,37.8,160.2,37.8,160.1z"/>
							<path class="st12" d="M23.1,166.4l-0.1-0.1c-0.5-0.1-1-0.2-1.5-0.3L23.1,166.4z"/>
							<path class="st12" d="M53.2,51.5C53.2,51.5,53.2,51.5,53.2,51.5C53,51.3,53.1,51.3,53.2,51.5z"/>
							<path class="st12" d="M26.9,89.4c2.5,0.4,2.8,1.9,5.6,2.1C31.5,91.2,28.6,89.4,26.9,89.4z"/>
							<path class="st12" d="M101.1,52.4c-0.1,0-0.1,0.1-0.2,0.1C101,52.6,101,52.6,101.1,52.4z"/>
							<path class="st12" d="M32.5,91.5L32.5,91.5l0.3,0C32.7,91.5,32.6,91.5,32.5,91.5z"/>
							<path class="st12" d="M47,58.7c0.3,0.4,0.6,0.6,0.9,0.9C47.7,59.4,47.4,59.1,47,58.7z"/>
							<path class="st12" d="M55.4,57.1L55,57C55.2,57.1,55.3,57.1,55.4,57.1z"/>
							<path class="st12" d="M46.2,64.5c-0.2-0.1-0.5-0.4-0.4,0c0.1,0.1,0.2,0.2,0.3,0.2C45.9,64.5,45.8,64.3,46.2,64.5z"/>
							<path class="st12" d="M42.7,67.7c0.1,0.1,0.3,0.2,0.5,0.3c0-0.1,0-0.1,0-0.2L42.7,67.7z"/>
							<path class="st12" d="M33.5,148.2c-0.8,0.1-1.7,0.2-2.5,0.3C32.9,148.3,33.7,148.7,33.5,148.2z"/>
							<path class="st12" d="M100.9,51.2c0.1,0.7,0.2,1.1,0.1,1.2c0,0,0.1-0.1,0.1-0.2C101.1,51.9,101,51.5,100.9,51.2z"/>
							<path class="st12" d="M60.5,81.5l-0.7,0C60.1,81.7,60.3,81.6,60.5,81.5z"/>
							<path class="st12" d="M40.2,123.7l0.3,0.3C40.5,123.9,40.5,123.8,40.2,123.7z"/>
							<path class="st12" d="M58.9,82.9c-0.7-0.7-1.2-1-1.5-1.2c0.1,0.2,0.2,0.3,0.4,0.6L58.9,82.9z"/>
							<path class="st12" d="M30.9,148.5L30.9,148.5L30.9,148.5z"/>
							<path class="st12" d="M35.6,149.8c0.6-0.2,0.9-0.2,1.1-0.3c0,0,0.1,0,0.1,0c-0.1,0-0.2,0.1-0.3,0.1c-0.3,0.1-0.5,0.1-0.8,0.2
								c-1.1,0.3-2.4,0.5-3.6,0.8c-1.1,0,2.6-0.6,4.5-1.1c-1,0.1-4.3,0.4-4.2,0.2c0.6-0.1,0.8-0.1,1.6-0.2c-1.5,0.1-1.5-0.2-1.7-0.4
								c-0.1-0.2-0.4-0.5-2.3-0.6c0.3-0.1,0.6-0.1,0.9-0.1c-1.8,0.2-3.7,0.3-5.1,0.4c-0.1-0.2-2.3-0.4,0.1-0.6
								c-0.1,0.2,0.9,0.1,1.7,0.2l-1.1-0.2c3.5-0.4,1.2,0.3,3.8,0.2c-1.1-0.4-4-0.9-3.1-1.3c3.4-0.1,1.2,0.8,4.2,0.3l-1.3,0.6
								c5.3-0.6-0.4,0.3,5.4-0.3c0.5-0.3,0-0.5-0.4-0.7c-0.4-0.2-0.9-0.4-0.4-0.6c-1.9-0.1-2.8,0-4.7-0.1c-1.7-0.5,0.5-0.6,2.5-0.6
								c2,0,3.8,0.1,1.6-0.3c-2.2-0.3-6.5-0.9-4.2-1.1l3.8,0.6c0.4-0.4-5.4-1.1-2.8-1.3c1.5,0.4,1.2,0.7,1.6,0.6
								c3.1,0.1-2.1-0.6-2-1l3.4,0.6c-0.4-0.6-2.7-1.9-3-2.9c1,0.3,2,0.7,3,0.8c-1.4-1.4,1-1.9,3.2-2.2l-2.6-1.4
								c0.1-0.1,1.3,0.3,1.8,0.6c1.2,0-1.7-0.7-2.7-1.3c-0.1-0.3,1.7,0.3,2.5,0.7c-1-0.8-2.1-1.8-2.5-2.5c-0.4-0.8-0.1-1.4,1.6-1.3
								l0.7,0.5c1.4-0.3-5.3-2.9-2.5-2.6l0.4,0.3c1.8-1.1-0.2-3.6,4.4-3.3c-3.9-1.6,2.3-0.9-3.2-2.9c3.1,0.1,4,0.7,6.3,0.1
								c0.4-0.2-3.3-1.7-3.8-2.3l2.9,1l-2.9-1.6l3.6,0.9l-0.6-0.6c-0.2,0.1-1.4-0.1-2.3-0.4c-1.1-1,2.5-0.8,4-0.3l-2-2.2
								c1.2,0.4,1.5,0.8,2.2,1.2c-2.8-1.7,3.1,0.8,0.6-0.7c-0.7-0.1-1.7-0.6-2.3-0.8c1.9,0.2,2.1-0.5,1.6-1.3l2,0.7
								c0.8-0.9-0.3-2.5,0.1-3.6c-1.1,0.1-4.6-1.1-4.8-1.5l3.2,0.8c-1.9-0.8-1.3,0-3.5-1.2c0.5-0.3,3.6,0.8,4.6,1.3l-0.9-0.8
								c0.9,0.3,1.4,0.5,2.6,0.9c-1.9-0.8,3.4,0.1,0.1-1.3l0.9,0.3c0.4-1.1-0.5-2-0.4-2.9c-2.7-0.8-2-1-4.1-1.9
								c1.1-0.4,3.4-0.5,3.4-1.4c-1.2-1-2.2-0.9-3.7-1.6c2.5,0.7,2.5-0.1,4.1,0.8c-0.1-1.1-0.1-1.4-1.7-3.2c-1-0.2-1.5-0.2-2.3-0.5
								c-0.3-0.3,1.2-0.2,2.3,0.2l0.2,0.1c-3.2-2.5,8.1-0.7,3.4-3.4l0.2,0.1l-2.3-2c0.6-0.4,1.7,0.9,3.3,1.1
								c-3.7-2.6,1.2-1.6-1.1-3.5c3.7,0.9,3.8,0.3,3.6-0.6c-0.2-0.8-0.7-1.8,1.7-1.4l-1.7-0.6c-1.5-0.9,1.1,0.1,1.5,0
								c-1.3-0.5-1.6-0.3-2.4-0.8c-0.6-1.4,0.5-2.3,1.9-2.9c1.5-0.6,3.4-1,4.6-1.6c0.8-0.5-8.1-4.3-3.9-3.4l2.9,1.7
								c-0.7-0.8-1-1.4-1-1.9c0-0.2,0-0.4,0.1-0.6c0-0.1,0.1-0.2,0.2-0.2c0.1-0.1,0.2-0.1,0.1-0.3c-0.1-0.2-0.3-0.4-0.9-1.1
								c0.4,0.3,0.6,0.5,0.9,0.7c0.3,0.2,0.5,0.4,0.4,0.4c1,0.7,1,0.7,0.7,0.2c-0.3-0.4-1-1.2-1.8-1.9c0.3,0,1.4,1.1,2.2,1.7
								c1.1,0.8-1.9-2.5-0.1-0.9c0.3,0.3,0.5,0.6,0.6,0.7c-0.7-0.9,0.7-0.3-1.4-2.1c1.3,0.6-0.2-1.6,1.3-0.6
								c-1.9-2.5,1.7,0.5-1.2-2.8c3,3.4,3.1,2.1,2.1,0.2c0.8,1.1,1.2,0.9,2.3,2.4c0.3-0.3,0-1.2-1.5-2.9c2.1,1.8,1.7,0.7,1.4-0.2
								c-0.3-0.9-0.5-1.7,1.9,0.9c-0.5-2.7-0.5-4.8-0.1-6.5c2.8,3.6-0.9,1.2,2.1,4.9c-0.2-2.2-2.1-5.7-0.4-5.6
								c0.6,0.3,1.1,1.6,1.5,2.3c-0.2-2.2,2.2-1.3,1.6-4c0.3,0.3,0.5,0.8,0.6,1.1c0.1-0.3,0.9,0.1-0.5-1.4l0.2,0.6
								c-2.2-2-3.3-5.3-4.3-6.5c3.5,4.7,1.9,0.3,6.3,6.3c-0.1-0.4-0.6-1.3-1.6-2.3c0.5,0.1,1.1,0.7,1.9,2c0-1.5-1.8-2.9-1.1-3.5
								c0.7,0.7,0.8,1.1,1.6,2c-1-1.7-1.9-3.5-1.1-3.2c0.4,0.4,1,1,0.9,1c0.1-0.3-0.5-1.5-1-2.5c-0.4-1-0.6-1.8,0.3-1.4
								c2.5,3.5,1.1,0.9,3.5,3.8c-0.1-0.4-0.3-0.7-0.4-1.1L71.2,64c0.3-0.2-1-2.6,0.1-1.8l0.6,1.4c0.1-0.3,0.1-0.7,0.2-1l-1.2-0.9
								c-0.7-1.8-2.8-3.8-1.6-3.4c0.1,0.4,0.4-0.2,1.9,1.5c0,0,0,0,0,0c-0.5-1.1-0.9-2.3-0.1-1.7c0.7,1,2.1,3.6,2.6,4.2
								c-1.5-2.8,0.4-1.3-1-4.3c0.3,0.7,1.3,2.4,1.5,2.8l-1.1-2.3c0.6,0.6,0.8,0.9,1.5,2.3c0.8,0.1-2.5-4-0.8-2.6
								c0,0.2,0.3,0.5,0.3,0.9c1.2,0.6,0.6-2.2,1.9-1.4c1.9,3.2-0.2,1.1,1.5,3.8c0.6-1.1,0-5,1.3-4.7l-0.4-0.3
								c-2.1-4.9,1.8,2,1.3-0.5c0,0.4,1.1,2.7,0.9,2.2c1,0.5,0.8-1.8,1.2-3.8l0.4,1.3c0.9,1,1.3,0.2,2,0.6c-0.4-1.3-0.1-1.2-1-3
								c2.1,3.3,2.3,2.1,2.5,0.8c0.2-1.3,0.3-2.9,2,0c-0.1,0.1,0.1,1.2,0.2,1.2l0.6-1.5c-0.8-2.2-0.6-1.3-1.4-2.9
								c-0.3-1.3-0.4-2.4-0.1-2.5c0,1.6,1.2,3.5,1.8,4.7c-0.3-0.7-0.4-1.4-0.7-2.1c1.9,3.7-1.4-4.4,0.2-2.1l0.3,1.2
								c0.1-0.7-0.2-2.3,0.3-2.1c0.9,2.5,0.1,1.3,0.7,3.4c0.4-0.3-0.7-5.1,0.5-2.7c0,0.8-0.2,0.9-0.2,1.6c1.4,2.9,1.2,2.1,1.6,2.5
								l-0.1-0.1l1.1,1.1l-0.4-0.8c-1.5-6.8,0.7-1.5,0.2-6.1c0.5,4.4,0.6,2.4,1.3,5.4c0.4,0.8,0.9,1.6,1.1,2.4
								c-0.3-2.5,1,1.7,0.6-1.9c0.3,0.9,0.4,0,0.9,2.4c0.2-0.9-0.5-1.6-0.8-2.8c-0.1-1.7,0.6-0.8,1.2-0.1c0.6,0.7,1.2,1.3,1.2-1
								c0.4-2-0.1-5.3,0.3-7.1c0.6,1.5,0.5,3.5,0.5,3.5c0.7,1.3,1,1,1.2-0.2c0.1,0.9,0.3,1.5,0.7,2.6c0.3-0.3-0.5-3.5,0.2-2.2
								c0.1,1.1,0.4,2.8,0.4,3.9c0.2-1,0.2-2.8,0.5-3.7c0.4,1.7,0.2,2.6,0.3,3.7c0.3-0.8,0.8-1.7,0.5-4.4l-0.5-0.9
								c0.1-0.2,0.5,2.3,0.4,2.8c0,2.1-0.7-0.8-0.9-1.8l0.2-0.7c-1.3-5.6-1,1.1-1.6,0.9l-0.6-4.1l0.1,3.5c-0.3-1-0.9-3.3-0.7-4
								c-0.8-1.9-0.1,1.5-0.9-0.6c-0.1-0.3-0.1-0.5-0.1-0.7l-0.2,1.3c-0.1-0.9-0.7-2.9-0.3-2.3c-1.3-2.2-0.6,3.3-1.6,0.3l0-0.3
								c-0.8,1.6,0.6,3,0.6,6.7l-2.3-7.2l0.6,3c-0.1-0.1-0.4-0.3-0.7-1.4c0.1,2.1,0.4,1.3,0.6,3.2c-1.2-2.6-1.1,1.6-2.5-3
								c0.4,2.3,1,1.6,0.8,3.3c-1.5-5-0.4,1-1.5-1.1c-0.6-2.6,0.3-1.4-0.9-3.6c0.9,4.5-1.2-0.7-1.4,0.3c1,3.5-0.5,1.7-0.8,3.1
								c-0.3-1.2-1.9-1.5-2.9-2.5l-0.2-0.6c1,3.5,0.2,3.1,0,4c-0.7-2.1-0.9-2.9-1-4l-0.4,0.2c0.3,1.1,0.3,1.8,0.2,2.3l-0.8-2.6
								c-0.6,0.4-0.1,3.5-1.5,2c0.9,2.4,3.1,6.5,2.9,8.3c-0.5-1.3-1.4-3.5-1.4-4.1c0,0.2,0.2,1.2-0.2,0.7l-0.5-2.3
								c-0.7-0.8,0.5,1.9,0.2,1.8c-0.7-1.8-0.7-1.2-1.2-2.7c0-0.2,0.5,0.7,0.4-0.1c-0.4-0.2-1.2-1.2-1.9-2.5c0.4,1,1,2.5,0.8,2.8
								c-0.5,0.4-1.1-2.1-1.8-2.9c0.4,1.3-0.5,0.2,0.6,2.9c-0.2,0.1-0.7-1.2-1.1-1.9c0.2,1.3-1.3,0.9,0.3,3.7l0.2,0.2
								c0,0.1,0,0.1,0,0.1l0,0l0,0c0.2,3.1-2.7-0.7-3.1,0.9l-0.4-0.9c-0.1,1.3-1,1.2-0.5,3.3c-0.2,0.1-1.2-1.4-1.6-2.5
								c-0.1,0.9,0.3,1.9-1,0.7c-0.3-1.8-0.8-1.3-0.1-1.4c-0.9-0.5-1.8-1.8-1.2,0.9c-0.9-2.4-1.9-2.6-1.8-1.8l1.2,1.4
								c-0.1,0.5-0.5,0.4-0.9,0.4l-1.4-3c-1.5-1.5-1.3,0.4-1.2,1.9c0.1,1.5,0.2,2.7-2,0c0.9,2.2,1.5,1,2.6,3.5
								c-0.7-0.1-3.8-3.8-4-3.7c-1.8-1,1.8,4.6,0.4,4c0.8,0.9,2.6,3.5,2.7,4.8c-0.7,0-3.5-3.6-3.7-4.7c0.1-0.2,0.4,0.1,0.6,0.4
								c-0.1-0.5-0.1-1.1-1.1-2l0.6,1c-1-0.8-1.7-0.1-2.7-1.8c0.2,1.2,1,1.7,1.6,2c-1.8-0.8-1.2,0.8-2.6,0.5
								c0.5,0.4,1.5,1.4,1.4,1.5c-2-0.2,1,2.1,0.7,3.1c-1.6-1-2.7-3.4-2.4-1.6c-1.3-0.5-2.2-2.2-2.7-3.1c0.4,1.2-0.1,1.2-0.9,1
								c-0.8-0.2-1.8-0.7-2.2-0.6l-0.3-1.1c0.1,0.3,0.1,0.5,0,0.7c0,0.1-0.1,0.1-0.1,0.2c0,0,0,0,0,0c0.6,0.5,1.2,1.1,1.8,1.5
								c-0.1,0-0.1,0-0.2,0c0,0-0.1,0-0.1-0.1c-0.1,0-0.1-0.1-0.2-0.1c-0.2-0.1-0.3-0.3-0.7-0.6c1,1.2,2.9,2.7,4.2,4.4
								c-1-0.7,0.5,1.4-1.7-0.9c0.6,0.2,0-0.4-0.7-1.1c-0.7-0.7-1.5-1.6-1.6-1.9c0.2,0.3,0.2,0.4-0.2,0.1c-0.3-0.2-0.4-0.5-0.5-0.6
								c-2.3-1.7,2.2,2.8,1.7,3.2c-1.1-1.4-2.3-2.4-2.2-2.1c0.2-0.2,2.1,2.1,2.7,3.4c-1.3-0.7,0.3,1.1,0,1.2l0.6,0.3
								c1.1,1.4,0.7,1.4,0.8,2.1c-0.9-1-0.4-0.9-0.8-1.3c1.7,2.7-2.8-1.9-1.9,0.1c-1-0.8-2.1-2.6-2.8-3.1c0.9,2.2-2.1-1.5-1.4,0.4
								c1.6,1.7,1.3,1.3,2.4,3.4l-0.2-2l1.6,3.2c0.3-0.2-0.4-1.6,0-1.4c0.9,1.7,0.6,1.2,2,2.7c-2.6-2.5,0.6,2.2-1.4,0.7l-3.7-4.6
								c-2.3-1.5,0.7,3.3-1.1,2.8l0.9,0.6c1.3,1.9-0.3,0.7,0,1.6c-1.2-1.6-1.8-2-2.7-2.8c0.9,1.1-0.7,0.4,1.7,3.6l-2-1.7
								c-1.4-0.2,2.7,5,1.7,5.1c-1.2-1.8-2.4-2.6-2.9-4.2c-0.2,0.2-0.7,0.1,0.2,1.1c-0.9-0.8,1.1,2.6-0.3,1.3
								c0.5,0.7,1.8,2.3,1.4,2.4c-0.3-0.3-0.6-0.7-0.6-0.7c0.6,0.7,0.5,1.3,2.1,2.8c-2.4-2-2.8-1.5-3.1-0.9
								c-0.3,0.6-0.5,1.3-2.7-0.3c0,1-0.2,2-0.5,2.6c-0.4-0.4-0.7-0.7-0.5-0.6c-2-0.5,3.8,4.2,1.6,3.6c-2.8-1.7-0.9-1.6-2.1-2.1
								c-2.5-2.1-2.6-1.6-2.4-0.9c0.1,0.7,0.5,1.6-1.2,0.9L37.9,71c-1.1-0.4-0.9,0.4-0.5,1.2c0.4,0.9,1,1.8,0.6,2.2
								c0,0-0.5-0.3-0.8-0.5c1.2,1.2,1.9,2.1,2.4,2.9c0.5,0.8,0.8,1.4,1,1.9c-2.2-1.3-1.1-0.9-3.4-1.9c0.2,0.5,3.8,1.7,4.1,2.6
								c-1.3-0.4-2.6-0.5-5.2-1.6l0.1-0.6C33,76,36.1,78,35.4,78.1L34,77.4c0,1.1,3.6,2.8,2.9,3.6l1.1,0.4c3.3,2.1-2.2-0.5,0.2,1.2
								l-3.7-1.4c0.7,0.7,3,2.7,3.4,3.6c-2.6-1.5-3.6-2.8-5-3.9c-0.2,0.3-0.3,1.3,1.5,2.2c-0.3-0.3-1.1-0.8-0.5-0.7
								c2.7,1.6,3.9,2.8,3.5,3.4c-7-3.1-2.5,1-8.2-0.7c2.2,2.3-2.1,2-2.2,3.6c5.8,1.6,0,0.5,5.8,2.5c0.3,0.5,0.1,0.5-0.3,0.4
								l-3.8-0.2c-1.8-0.4-1.2-0.8-2.5-1.2c-0.7,0.6-2.6-0.6-4.3-0.6c2.1,0.6,2.9,1.3,1.9,1.4l2.9,0.3c2.7,2.1-5.2-0.8-2.5,1.3
								l-1.7-1c0.9,0.9-0.7,2,3.8,4c-0.7-0.1-2.3-0.5-2.7-0.9c-1.1,1,4.1,4.4,0.9,4.4l-1.4-0.5c0.3,0.4,2.6,1.2,1,1.1
								c-0.6-0.2-1.4-0.5-1.5-0.5c0.5,0.3,2.3,1.4,1.4,1.4l-1.5-0.8c-2.3,0.6,3.3,3.1,4,4.4c-4.2-1.3-5.9-0.8-6.7-0.5l-0.6-0.2
								c-0.9,1.2,2.8,3.4,4,5.2c-4.8-0.6-2.7,2.1-5.7,2.5c0.8,0,3.3,1,3.6,1.4c-0.9,0,2.7,1.7-1.2,0.5l0.1-0.1c-3.8-1-3-0.1-3.3,0.4
								l5,1.7c-7.7-1.1,1.7,4-5.1,2.6c1.2,0.7,1,1,2.2,1.8l-2.7-0.9c-1,0.6-1.4,0.8-1.1,2l-1.8-0.9c-0.4,0.5,7.5,3.4,7.4,4l-4-1.3
								c-0.3,1-4.1,0.6-0.9,2.9c-0.6-0.2-1.7-0.7-1.8-0.9c-0.3,0.4-3.3,0.7,2.2,2.6c-3.5-1.3-0.7,0.8,0.6,2l-2.6-1.1
								c3.2,1.7,4,2.1,4.7,3.2c-0.4,0-2.1-0.7-1.4-0.6c-1.6,0,2.3,1.4,0.7,1.5l-1.6-0.9c-0.4,0.5,0.5,0.8,2.3,1.8
								c0.9,0.7-1,0.8-3.5,0.1c1.4,0.6,3.3,1.6,2.5,1.7c-0.9-0.3-1.4-0.6-1.7-0.7c-2.1,0.4,2.6,2.4-0.2,2.3
								c-0.9-0.2-1.3-0.3-1.6-0.3c0.3-0.8,0.7-1.4,0.8-1.3c-2.4-0.8-3.1-0.2-6.3-1.9c1.7,1.2,5.4,3.3,4.1,3.7
								c-0.2,0-0.5-0.1-0.9-0.1l-0.3-0.1c-0.3,0.1-0.1,0.3,0.3,0.6c-0.5,0.1-0.8,0.2-0.9,0.4c-2.1-0.4-1.3,0.6-1.5,1
								c2.8,0.6,2.2,1,4.6,1c-0.2,0-0.3-0.1-0.4-0.4c-0.1-0.1-0.1-0.1-0.2-0.2c0.1,0,0.2,0.1,0.2,0.1c0-0.3,0-0.6,0-0.9
								c1.3,0.6,2.4,1.2,0.8,1.2c1.7,0.6,3.4,1.1,4.3,1.4c-3.9-0.4-6.2,0.2-8.6-0.1c1.3,1.4,0.6,3.1,5.8,4.2
								c0.7,0.4-1.5,0.2-2.4,0.3c-0.5-0.2-0.4-0.5-1.2-0.6c1.3,0.8,0.4,2.1,4.1,2.3c-1.7,0.8-3.4-0.5-2.8,0.6l-1.1-0.1
								c-2.9,1.1-0.5,1.9,1.6,2.6c1.1,0.4,2.2,0.7,2.5,1.2c0.3,0.4-0.1,0.9-1.9,1.8c0.4-0.2,0.6-0.4,1.2-0.5
								c-0.7,0.8-0.9,1.5-0.6,2.3c0.1,0.4,0.3,0.7,0.5,1.1c0.3,0.4,0.5,0.7,0.8,1.1c0.3,0.4,0.5,0.6,0.7,0.9
								c0.1,0.2,0.2,0.2,0.2,0.3c0,0.1,0.1,0.2,0.1,0.3c0,0.4-0.4,0.9-1.5,1.6c-0.9,0.6,1.4,0,3.3-0.1l-3,0.7
								c1.2-0.1,2.4-0.2,3.6-0.2c1.3,0.2-0.5,0.8-2.1,1.2c-1.6,0.4-2.9,0.6-0.5,0.9l2.1-0.1c-0.4,0.3,1.1,1-1.2,0.8
								c0.4,0,2.1,0.3,1,0.3l-1.6-0.1c0.9,0.3,1.7,0.6,2.6,1.1c-1.3,0.5-6.2-1-6.7-0.2c0.5,0.4,4.3,1.8,5.4,1.9
								c0.1-0.1,1-0.2,2.6,0.1l0.7,0.5c4.6,1,9.1,2.4,12.6,1.8c-0.9-0.5-1.8-0.9-2.6-1.3l2.3,0.1l0,0.7c2.2,0,0.4-0.6-0.9-1.1
								c1.2,0.1,2,0.1,2.5,0c-1.4-0.5-2.8-1.1-4.3-1.6c1.8,0.1,3.5,1,4.6,0.3c-1-0.4-2-0.4-3-0.4c-0.9,0-1.8-0.1-2.4-0.5
								c2.2-0.3,3.9,0,2.1-0.8c1.2,0,2,0.2,2.5,0.5c-1.4-0.7-0.4-1.6-2.9-1.9c1.3-0.3,1.2-0.7,1.2-1.1c0.1-0.4,0.4-0.7,2.6-0.8
								c-1.1-0.1-3.5-0.7-3.7-1.2c2.6,0.2,2.7-0.3,2.8-0.9c0.1-0.6,0.1-1.3,2.9-1.7c-2.4,0-3.1-0.5-3.5-1.1
								c-0.4-0.6-0.7-1.4-2.2-1.5c0.4-0.1,1.2-0.2,1,0c0.1-0.8,1.4-1.4,2-2.2c-3.7,1.2-5.1,0.6-7.5,1.2c1.7-0.9,2.7-1.3,3.8-1.7
								c0.5-0.2,1.1-0.3,1.7-0.5c0.6-0.2,1.3-0.4,2.1-0.9c-0.7,0.3-1.3,0.5-1.8,0.5c-0.4,0.1-0.8,0.2-1.2,0.4
								c-0.7,0.2-1.4,0.3-2.6,0.9c0.5-0.3,0.8-0.4,1.1-0.6c0.1-0.1,0.2-0.1,0.3-0.2l0.1,0l0,0l-0.3,0.1l0,0l0,0l0,0l0,0l0,0l0,0
								c0.1,0,0.1-0.1,0.4-0.1c0.1,0,0.1,0,0.2-0.1c0.1,0-0.1,0-0.1,0c-0.1,0-0.1,0-0.1,0c0,0,0.3-0.1-1.2,0.3c2.3-0.8,4.4-1.3,3-1
								c1-0.2,1.1-0.3,1.9-0.5C36.1,149.7,35.6,149.8,35.6,149.8z M30,140.7C30,140.7,30,140.7,30,140.7c0.1,0.1,0.1,0.2,0.1,0.3
								C30.1,140.9,30,140.9,30,140.7z M30.2,139.7c-0.1,0.1-0.2,0.2-0.2,0.4c-0.9-0.2-1.9-0.6-1.8-0.6
								C28.8,139.7,29.4,139.6,30.2,139.7z M10.7,137.3c-0.3-0.3,0.2-0.3,0.8-0.2c0,0.1,0.1,0.3,0.2,0.5c0.1,0,0.2,0.1,0.3,0.1
								C11.5,137.5,11,137.4,10.7,137.3z"/>
							<path class="st12" d="M14.2,138.5c0.1,0,0.2,0.1,0.2,0.1c0.3,0,0.5,0,0.6,0c-0.3-0.1-0.6-0.2-0.8-0.3
								C14.2,138.5,14.2,138.5,14.2,138.5z"/>
							<path class="st12" d="M79,46.4L79,46.4c0,0,0.1,0.1,0.2,0.3C79.1,46.6,79.1,46.5,79,46.4z"/>
							<polygon class="st12" points="41.1,125.5 40.4,125.2 40.9,125.5 							"/>
							<path class="st12" d="M88.8,53c0.1,0.2,0.2,0.5,0.3,0.7C89.1,53.5,88.9,53.3,88.8,53z"/>
							<path class="st12" d="M91.6,52.7l0.7,0.8C92,53.1,91.8,52.9,91.6,52.7z"/>
							<path class="st12" d="M94.1,53.5c-0.1-0.5-0.2-0.9-0.3-1.2l0,0L94.1,53.5z"/>
							<path class="st12" d="M67.6,71.4c0,0,0,0.1,0,0.2C67.8,72.2,67.8,71.9,67.6,71.4z"/>
							<path class="st12" d="M71.1,59.8c0.2,0.5,0.4,1,0.5,1.3C71.9,61.2,72,61.2,71.1,59.8z"/>
							<path class="st12" d="M60.6,81.5C60.6,81.5,60.6,81.5,60.6,81.5C60.5,81.5,60.5,81.5,60.6,81.5L60.6,81.5z"/>
							<path class="st12" d="M71.2,61.3c0.5,0.4,0.5,0.2,0.4-0.2C71.4,61,71.1,60.9,71.2,61.3z"/>
							<path class="st12" d="M103.1,52.7l0.1,0.1c0-0.2-0.1-0.3-0.1-0.4L103.1,52.7z"/>
							<path class="st12" d="M103.2,52.4l0.1-0.3C103.2,52,103.1,52,103.2,52.4z"/>
							<path class="st12" d="M103.3,51.3l-0.1,0.7C103.3,52,103.4,52.1,103.3,51.3z"/>
							<path class="st12" d="M100.2,51.9l0.2,1C100.3,52.7,100.3,52.4,100.2,51.9z"/>
							<path class="st12" d="M99.4,52.4c0.2,0.2,0.9,2,1.1,1.3l-0.1-0.8C100.5,54.5,99.2,50.7,99.4,52.4z"/>
							<path class="st12" d="M92.8,41l1,0.6c-0.4-1-0.9-2.4-0.6-2.7C91.3,36,93.9,41.2,92.8,41z"/>
							<path class="st12" d="M90,40.2c0.3-0.6-0.4-1.5-0.6-2.1C89.4,39.1,89.4,39.4,90,40.2z"/>
							<path class="st12" d="M73,46.7l-1.1-2.3C71.8,44.8,72.3,45.2,73,46.7z"/>
							<polygon class="st12" points="76,59.9 77,61.2 76,59.1 							"/>
							<polygon class="st12" points="65.5,44.9 65.5,44.5 65.4,45.6 							"/>
							<path class="st12" d="M41.7,65.3l2.2,2.2C43.7,66.9,41.3,64.3,41.7,65.3z"/>
							<path class="st12" d="M35.3,80.1c-1.5-0.5-2.6-0.6-1.3,0.3C34.4,80.2,35.6,80.4,35.3,80.1z"/>
							<polygon class="st12" points="18,114.5 17.1,114 17.8,114.7 							"/>
						</g>
					</g>
				</g>
			</g>
		</g>
		<g>
			<g>
				<g>
					<g>
						<g>
							<path class="st12" d="M90.2,47.3c0.3-0.9-0.4-2.8-1.6-2.1l-0.1,3.4C89,48.1,89.6,47.7,90.2,47.3z"/>
							<path class="st12" d="M80.5,43.5c-0.4,1-0.8,2.3-0.7,3.7c0.1,1.4,0.5,2.8,1.5,4c-0.1-1.7,0.2-2.3,0.4-2.9
								c0.2-0.7,0.4-1.4,0.6-3.4c1.1-0.7,2.3,0.4,2.5,1.6c0.2-0.9,2,0.2,2.1-2c-2.2-2.1-4.4-1.6-5.6,1.1
								C80.5,45.1,80.6,44.1,80.5,43.5z"/>
							<path class="st12" d="M13.5,139.5l0.3-0.8C13.7,138.9,13.6,139.2,13.5,139.5z"/>
							<path class="st12" d="M36.7,213.3c-0.4-0.6-0.8-0.7-1.1-0.6C36.1,213.2,36.5,213.6,36.7,213.3z"/>
							<path class="st12" d="M45.1,228.9c-0.3-0.3-0.6-0.6-0.9-0.9C44.4,228.5,44.7,228.9,45.1,228.9z"/>
							<path class="st12" d="M13.5,139.5l-0.9,2.1C13.7,141.7,13.3,140.5,13.5,139.5z"/>
							<path class="st12" d="M74.9,57.3c0-0.4-0.2-0.7-0.4-1.1c0,0.3,0,0.5,0,0.8C74.6,57.1,74.7,57.2,74.9,57.3z"/>
							<path class="st12" d="M26,107.5l0.2-0.3c-0.3-0.3-0.6-0.6-1-0.9C25.4,106.7,25.7,107,26,107.5z"/>
							<path class="st12" d="M27.2,83.2c-0.3,0.8,2.4,1.9,3.5,2.5c-1.1-0.7-1.5-1.5-1.6-2.2C28.6,83.3,28,83.2,27.2,83.2z"/>
							<path class="st12" d="M62.2,57.7l-0.1-0.8C62.2,57.1,62.2,57.4,62.2,57.7z"/>
							<path class="st12" d="M11.3,120.6c-0.4-0.1-0.8-0.1-1-0.1C10.6,120.7,11,120.7,11.3,120.6z"/>
							<path class="st12" d="M100.9,50.2c0-0.2-0.1-0.3-0.1-0.5C100.7,50.1,100.7,50.3,100.9,50.2z"/>
							<path class="st12" d="M76.6,46.3l-0.1-0.4c-0.5-0.1-1-0.2-1.6-0.2L76.6,46.3z"/>
							<path class="st12" d="M52.9,237.3C53,237.3,53,237.3,52.9,237.3C52.7,237.3,52.7,237.3,52.9,237.3z"/>
							<path class="st12" d="M247.7,236.4c-1.5-0.3-2.2-1-2.7-1.8c-0.3-0.4-0.5-0.8-1-1.1c-0.4-0.3-1.1-0.6-2.2-0.5
								c0.6,0.2,1.4,1.2,2.5,2C245.3,235.8,246.6,236.3,247.7,236.4z"/>
							<path class="st12" d="M74.3,57.6c-0.1,0.3-0.2,0.5-0.3,0.8C74.2,58.1,74.3,57.9,74.3,57.6z"/>
							<path class="st12" d="M241.8,233.1L241.8,233.1l-0.5,0C241.5,233.1,241.6,233.1,241.8,233.1z"/>
							<path class="st12" d="M97.8,281.3c0.1-0.5,0.1-0.9,0-1.4C97.7,280.2,97.6,280.5,97.8,281.3z"/>
							<path class="st12" d="M62.3,250.9c0.1,0.5,0.3,0.9,0.4,1.4C62.7,251.7,62.5,251.3,62.3,250.9z"/>
							<path class="st12" d="M120.6,286.3c0.6,0.4,0.7,0.8,1.6,0.7c0-0.2-0.1-0.3-0.2-0.4C121.6,286.9,121.1,287,120.6,286.3z"/>
							<path class="st12" d="M147.2,286.2c-0.2-0.2-0.4-0.3-0.6-0.4c-0.2,0.1-0.5,0.2-0.7,0.4L147.2,286.2z"/>
							<path class="st12" d="M157.4,32.1c0.4-1.2,0.6-1.9,0.8-2.5c-0.3,1-0.8,1.5-1.1,1.8C156.9,31.8,156.9,31.9,157.4,32.1z"/>
							<path class="st12" d="M73.4,56.6c0.6,0.4,0.8,0.7,0.9,1c0.1-0.2,0.1-0.4,0.1-0.6C74.1,56.8,73.7,56.6,73.4,56.6z"/>
							<path class="st12" d="M127.5,265.3c0.8,0.4,1.6,0.7,2.3,1C129.2,265.8,128.4,265.5,127.5,265.3z"/>
							<path class="st12" d="M249.2,106.8c0.3-0.4,0.7-0.7,1-1.1C249.7,106,249.3,106.3,249.2,106.8z"/>
							<path class="st12" d="M135.9,266.1c0.5,0.9,1,1.4,1.6,1.7c0.1-0.2,0.1-0.4,0.1-0.8c-0.3-0.2-0.6-0.3-0.9-0.4L135.9,266.1z"/>
							<path class="st12" d="M158.2,29.6C158.2,29.6,158.2,29.6,158.2,29.6C158.2,29.6,158.2,29.6,158.2,29.6z"/>
							<path class="st12" d="M142.9,38.5c3-0.7,0.6-3.9,0.7-6.1c3.5-1.9,2.3,2.3,4,3.8c2-1.5,3.2-5.1,4.9-5.3
								c0.2,0.6,0.6,0.7,0.4,1.6c0.2-0.4,0.5-0.7,0.9-1c0.2-0.1,0.3-0.3,0.5-0.4l0.3-0.2l0.1-0.1c0.3-0.3,0.6-0.4,1-0.4
								c0.7-0.2,1.4-0.3,2.7-1.7c0,0.4-0.1,0.7-0.2,1c0.5-1.8,1.1-3.7,1.7-4.9c0.5,0.2,1.2,0,1.7,0c0.5,0,0.8,0.3,0.3,1.4
								c-0.5-0.5-1.1,0.3-1.7,0.9c0.4-0.1,0.9-0.2,1.4-0.3c-1.2,3.4-1.8,0.2-2.9,2.6c0.4-0.1,1-0.2,1.5-0.3c0.1,0,0.3,0,0.5-0.1
								l0.7,0.1c0.5,0.1,0.9,0.2,1.4,0.3c2,0.5,3.8,1,4.8,2.1c-0.5,1.6-2.2,1.2-3.5,0.6c-1.3-0.5-2.2-0.9-1.2,1.5
								c-0.6-0.6-1.2-1.2-1.7-1.9c-0.5-0.6-0.9-1.2-1.2-1.7c-0.2,1.5-0.4,2.2-0.6,2.4c-0.2,0.2-0.4,0-0.7-0.2
								c-0.3-0.2-0.3-0.3-0.5,0c-0.1,0.1-0.3,0.4-0.5,0.7c-0.1,0.1-0.2,0.3-0.4,0.6c-0.1,0.3-0.2,0.6-0.3,1c0.8,0.9,2.1,1.8,3.2,2.4
								c1.1,0.6,2.1,0.9,3,1.2c2,0.5,3.9,1,6.9,2.6c1-0.7,1.1-1.4,1.2-2.1c0.1-0.7,0.2-1.4,1.2-2.1c1.1,0,2-0.1,2.8,0.1
								c0.7,0.2,1.3,0.5,1.8,0.9c0.9,0.8,1.5,2,2,3c0.5,1.1,1,2.1,1.8,2.7c0.8,0.5,1.8,0.6,3.4-0.4c1.7-2.1,2.5-6.3,6.3-3.9
								c-0.5,1.3-1,2.5-1.5,3.8c2.6,0.3,3.3-1.1,4.1-2.2c0.8-1.1,1.5-1.9,4-0.6c-0.9,1.5-3.8,1.3-3.1,1.7c1.7,1.5,2.2,1,2.7,0.1
								c0.1-0.2,0.2-0.5,0.4-0.7c0-0.1,0.1-0.1,0.1-0.2c0-0.1,0-0.1,0-0.2c0-0.1,0.1-0.2,0.1-0.3c0.1-0.4,0.3-0.8,0.6-0.8
								c0,1.1-0.1,2.3-0.2,3.4c0.1-0.1,0.3-0.1,0.5-0.2c0.4-0.3,0.9-0.5,1.3-0.8c0.5-0.3,1.1-0.3,1.5-0.2c0.2,0.1,0.4,0.1,0.6,0.2
								l0.4,0.2l0.2,0.1c0,0,0.2,0.1,0.2,0.2l0.3,0.2l0.5,0.4c0.2,0.2,0.5,0.4,0.7,0.5c0.5,0.3,1.1,0.7,1.7,1l0.5,0.2
								c0.2,0.1,0.3,0.1,0.3,0.1l0.1,0l0.3,0c0.4,0.1,0.7,0.1,1,0.3c-0.7,0.8-1.5,1.5-1.6,2.7c1.7,0,3.2,1.6,4.7,4.5
								c0.7,1.5,1.5,3.2,2.3,5.1c0.9,1.9,1.9,4,3.1,6.1c1.6,0.2,3.1,0.4,4.6,0.5c0.6,0.6,0.3,2-0.8,1.8c0.5,0.8,0.9,1.2,1.3,1.3
								c0.3,0.1,0.5-0.2,0.6-0.6c0.3-0.7,0.5-1.8,1.7-1.7c1,0.7,1.4,1.4,1.4,2.1c0,0.6-0.6,1.1-1.5,1c2.1,0.7,4.3,1.1,6.3,1.3
								c2,0.3,3.8,0.4,5.2,0.7c0.7,0.1,1.3,0.3,1.8,0.5c0.5,0.2,1,0.5,1.4,0.8c0.4,0.4,0.8,0.8,1,1.2c0.3,0.5,0.4,1,0.5,1.6l-1,0.3
								c0.3,0.6,0.8,0.7,1.4,0.7c0.6-0.1,1.4-0.3,2.1-0.5c0.7-0.2,1.5-0.3,2-0.1c0.5,0.2,0.9,0.7,0.8,1.7l-0.8-0.1
								c1.6,2.9,3.9,5.9,5.6,9.2c1.7,3.3,2.8,6.9,2,10.6c2.2-0.2,2.5,1.5,2.7,3c0.3,1.5,0.5,2.7,3.4,2.3c-1,2.1-2.1,2.5-2.9,3.1
								c-0.2,0.2-0.4,0.2-0.6,0.3c-0.2,0.1-0.4,0.2-0.6,0.3c-0.1,0-0.2,0-0.3,0c-0.1,0-0.1,0-0.2,0c0,0-0.1,0-0.1,0
								c0.1,0,0.2,0,0.3,0.1c0.4,0,0.8,0.1,1.3,0.3c0.1,0,0.2,0.1,0.4,0.1l0.2,0.1l0.1,0c0.1,0,0.3,0.1,0.5,0.1
								c0.2,0.1,0.3,0.1,0.5,0.2l0.1,0.1l0,0l0.1,0c0.1,0,0.2,0.1,0.3,0.2c0,0-0.1-0.1-0.2-0.1c0,0,0,0-0.2-0.2l-0.1-0.1
								c0,0-0.1-0.1,0,0c0,0,0.1,0.1,0.1,0.1l-0.3-0.5c0-0.1-0.1-0.1-0.1-0.2c0-0.1-0.1-0.1-0.2-0.3c-0.1-0.1-0.2-0.3-0.3-0.4
								l-0.1-0.1l0,0.1l0.1,0.2c0.2,0.5,0.4,1,0.4,1.6c-0.3-0.5-0.6-1.1-0.8-1.7c-0.1-0.3-0.2-0.6-0.3-0.8l-0.2-0.4
								c0,0,0-0.1-0.1-0.1l-0.2-0.1l-0.5-0.1c-1.3,0.6-2,1.1-2.7,1.6c-0.6,0.5-1.1,0.9-1.6,1.4c0.7-0.3,1.6-0.4,2.4-0.4
								c0.8,0.1,1.6,0.3,1.6,0.8c-0.7,0.5-1.4,0.9-2.1,1.4c-0.6,0.4-1.2,0.8-1.8,1.1c-0.6,0.3-1.3,0.7-1.9,1
								c-0.7,0.4-1.4,0.8-2.3,1.4c-0.2,0.1-0.5,0.4-0.7,0.6l-0.4,0.4l-0.2,0.2l-0.3,0.3c-0.2,0.2-0.3,0.4-0.5,0.7
								c-0.2,0.3-0.4,0.7-0.6,1c-0.2,0.5-0.5,1.1-0.6,1.6l-0.1,0.2l-0.1,0.3c-0.1,0.2-0.1,0.4-0.1,0.7c-0.1,0.5-0.1,0.9-0.2,1.4
								l0,0.4l0,0.5c0,0.3,0,0.7,0.1,1c0.1,0.7,0.2,1.3,0.4,2c0.3,0.8,0.6,1.6,1,2.3c0.4,0.7,0.9,1.4,1.4,1.9c0.5,0.5,1,1,1.5,1.4
								c0.3,0.2,0.6,0.4,0.8,0.6c0.2,0.1,0.4,0.2,0.6,0.3c0.4,0.2,0.8,0.4,1.2,0.6c0.2,0.1,0.4,0.2,0.6,0.3l0.5,0.2
								c0.5,0.2,1,0.3,1.4,0.4l0.4,0.1l0.2,0l0.1,0l0.2,0.1c0.3,0.1,0.7,0.2,0.6,0.2c0.1,0.5,0.1,1,0.1,1.4c0.5-0.8,1.6-1.7,2.8-1.9
								c-0.7,1-1.3,1.2-1.8,1.9c0.5-0.7,0.8-0.7,0.8-0.6c0,0.1-0.2,0.5-0.4,0.9c-0.2,0.4-0.5,0.8-0.5,0.9c-0.1,0.2,0,0,0.6-0.4
								c0.4-0.6,1.2-1.4,1.7-1.8c-0.1,0.2-0.2,0.5-0.3,0.6c0,0.1,0,0.1,0,0.2l0,0.1c0,0.1-0.1,0,0.1,0.2c0.3,0.3,0.6,0.7,1,1
								l0.3,0.2l0.1,0.1c0,0,0,0,0,0l0,0.1c0.1,0.4,0.3,0.7,0.4,1c0.4,0.5,0.8,0.8,1.5,1.1c-0.6,0.3-1.3,0.6-1.9,1
								c0.1,0.4,0.4,0.9,0.8,1.6c0.4,0.8,0.9,1.8,1.6,3.2c1.3,2.7,2.9,6.5,5,10.3c-0.3-1.6,0.5-2.6,1.6-3c1-0.4,2.2-0.2,2.9,0.8
								c-0.8,0.8-1.6,1.6-2.4,2.4c1.3,0.2,1.2-0.5,1.3-1.1c0.1-0.6,0.4-0.9,2.2-0.2c0.4,1-0.3,1.8-1.2,2.2c-0.9,0.4-2.1,0.6-2.8,0.4
								l2.1,1.4c-0.8,0.6-1.5,0.3-2.6,0.8c1.1-0.1,0.8,1.1,0.6,2.1c-0.2,1-0.4,1.8,1.4,1.6L267,160c0.2,0.7,0.4,1.2,0.5,1.6
								c0.1,0,0.3,0.2,0.4,0.3c0.3,0.3,0.6,0.7,0.4,1.1c1.3,0.7,1.7,1.1,2,1.5c0.3,0.5,0.5,0.9,1.1,1.9c-0.5,0.2-1.2,0.2-1.8,0.1
								c-0.4-0.1-0.7-0.1-1-0.2c-0.2,0-0.3-0.1-0.5-0.1c0,0-0.1,0-0.2,0l-0.3,0.1c-0.2,0-0.4,0.1-0.6,0.1c-0.9,0.2-1.9,0.6-3.1,1.2
								c-1.2,0.6-2.6,1.5-4.1,3c-0.3,0.4-0.6,0.8-0.8,1.2c-0.2,0.4-0.4,0.8-0.6,1.1c-0.3,0.6-0.5,1.1-0.5,1.6
								c-0.1,0.8,0.1,1.1,0.3,1.3c0.3,0.2,0.6,0.2,0.9,0.5c0.3,0.3,0.4,0.7,0.4,1.7c-0.6-0.1-1.4,0.4-2.1,1.4
								c-0.3,0.5-0.6,1.1-0.9,1.7c-0.3,0.6-0.4,1.2-0.6,1.8c-0.1,0.5-0.3,1-0.4,1.4c-0.1,0.4-0.2,0.7-0.4,0.8
								c-0.3,0.3-0.6-0.1-1.1-1.6c0,1.9,0.3,3.3,0.5,4.4c0.1,0.6,0.3,1,0.4,1.5c0.1,0.4,0.3,0.8,0.4,1.2c0.3,0.7,0.5,1.3,0.7,1.7
								c0.1,0.2,0.2,0.5,0.3,0.6l0.1,0.3c0,0.1,0.1,0.1,0.1,0.1c0.5,0.5,1.3,0.9,2,2.5c1.1-0.1,1.6-0.6,2.5-0.2
								c0.3,0.8-1.4,1.4-2.5,1l-0.2-0.3c0.3,0.7,0.3,1.6,0.1,2.5c-0.2,0.9-0.7,1.9-1.2,2.8c-1.1,1.8-2.6,3.2-4,4.2
								c-1.4,1.1-2.7,1.6-3.3,2c-0.7,0.4-0.6,0.8-0.2,2.1l-0.1-0.3c0.1,1.1-0.5,2.5-1.8,4c-1.2,0.2-1-0.4-0.8-1.1
								c0.2-0.7,0.3-1.6-0.7-2.1c-0.4,0.7-1,1.3-1.6,1.8c-0.3,0.3-0.6,0.5-1,0.7l-0.3,0.2c-0.1,0-0.2,0.1-0.3,0.2
								c-0.3,0.1-0.6,0.3-0.8,0.4c-2.2,1-4.3,1.7-6.3,2.6c-2,0.9-3.9,1.9-5.5,3.3c-1.6,1.4-2.9,3.1-3.6,5.3
								c-2.8,0.5-5.1,2.6-6.3,5.7c-1.2,3.1-1.2,7,0,10.5c0.6,1.6,1.2,3.2,2,4.8c0.4,0.8,0.8,1.6,1.2,2.3c0.2,0.4,0.4,0.7,0.6,1.1
								l0.3,0.5l0.1,0.3l0.1,0.1c0,0,0,0,0.1-0.1l0.2-0.1c1-0.4,2.1-0.8,3.2-1.1c0.3-0.1,0.5-0.1,0.6-0.2l0.5-0.2
								c0.3-0.1,0.7-0.2,1-0.3c0.8-0.1,1-0.2,1.5-0.3c0.2,0,0.4,0,0.6,0c0.1,0,0.2,0,0.4,0c0.1,0,0.2,0,0.4,0l0.2,0l0,0
								c0.1,0,0.1,0,0.2,0c-0.1,0-0.1,0-0.2-0.1c0,0,0,0-0.1-0.1c-0.1,0-0.2-0.1-0.3-0.1c0.1,0.1,0.3,0.1,0.3,0.2
								c-0.1-0.1-0.4-0.2-0.5-0.3c-0.1,0-0.1-0.1-0.2-0.1l-0.1-0.1l0,0l0,0l0,0c0.2,0.1-0.4-0.3,0.4,0.3l0,0l0,0l0,0l0,0
								c-0.1-0.1-0.2-0.1-0.2-0.2c-0.2-0.2-0.4-0.4-0.6-0.8c0,0.1,0.2,0.4,0.3,0.5c0.1,0.2,0.2,0.2,0,0c-0.2-0.3-0.4-0.6-0.5-0.9
								c-0.1-0.2-0.1-0.3-0.2-0.5l-0.1-0.2l-1.2-4.2l-0.1,0.1c-0.8,0.3-1.5,0.6-2.3,0.9c-1.6,0.5-3.2,1-4.8,1.4
								c-3.3,0.8-6.6,1.3-10.1,1.7c-1.7,0.2-3.5,0.4-5.2,0.5c-1,0.1-2,0.3-3.2,0.5l-0.9,0.2c-0.3,0.1-0.8,0.2-1.1,0.3
								c-0.8,0.2-1.5,0.5-2.3,0.7c-3,1.1-6,2.7-8.5,4.8c-1.3,1.1-2.4,2.3-3.5,3.5l-0.8,1l-0.7,0.9l-0.9,1.1
								c-0.4,0.5-0.5,0.9-0.4,1.2c0.1,0.4,0.3,0.7,0.7,0.9c0.7,0.6,1.5,1.4,2.2,2.1c0.5,0.6,0.9,1.2,0.8,1.5
								c-0.1,0.3-0.6,0.4-1.5-0.2c-0.4-1-1-2-1.6-2.9c0.2,0.5,0.2,0.9,0.2,1.2c-0.1,0.4-0.6,0.7-1.1,1c-1.1,0.5-2.6,0.7-4.3,0.6
								c-0.9,0-1.6-0.1-2.7-0.2c-1-0.1-2.1-0.2-3.2-0.3c-2.3-0.1-4.9-0.1-7.8,0.4c0.7-0.7,0.9-1.7,1.9-1.5c-1-1.3-3.2-1.6-5.4-1.2
								c-2.2,0.4-4,1.5-4,2.5c-2-0.1-0.5-1.8-1.9-2.7c-1.6-0.6-3.4,0.4-4.8,1.3c-0.7,0.5-1.3,0.9-1.9,1.1c-0.6,0.2-1.1,0.1-1.5-0.4
								c-0.3-0.3,0.5-0.9,0.9-1.2c-0.7,0.8-2.6,1.1-3.9,1.7c-1.3,0.5-2.1,1.1-1.1,2.2c-2-0.1-3.5,0.7-4.9,1.3
								c-1.3,0.6-2.5,1.2-3.6,0.5c-0.4,1.7-1.5,1.4-2.3,1.3c-0.9-0.2-1.6-0.2-1.9,2c0.1-2.3-0.8-3.2-2-3.4c-1.2-0.2-2.9,0.2-4.1,0.9
								c0.9-1.2-1.1-1.8,0.1-3.4c-1.9-0.5-4.1-0.4-4.5,1.9c-1-3.2-3.3-3-5.6-3c-2.3,0-4.2-0.1-4-3.8c-7.8-0.9-14.9-2.5-21.3-4.8
								c2.2-3.9,6.8,3.1,8.7-1.3c-1.6-0.3-3.2-0.4-4.6-0.5c-0.7,0-1.5-0.1-2.2-0.1c-0.7,0-1.3,0-1.9-0.1c-2.5-0.2-4.9-0.9-6.9-2.9
								c-0.8-1.3,1.8-1.1,2.6-1.5c-2.8-0.8-4.7-2.5-6.2-4.1c-1.5-1.6-2.6-3-4.3-3.9c0.4-0.2,1-0.1,1.4,0.1c-0.5-0.5,0.1-1.4-1.8-0.6
								l0.7,0.3c-0.6,0.5-1.3,0.9-2,1c-0.8,0.1-1.6,0-2.4-0.2c-0.2-0.1-0.4-0.1-0.6-0.2c-0.2-0.1-0.4-0.2-0.6-0.2
								c-0.4-0.2-0.7-0.4-1.1-0.5c-0.3-0.2-0.7-0.3-0.9-0.4c-0.3-0.1-0.5-0.2-0.7-0.2c2,0.2,2.8-0.4,3.2-0.9
								c0.2-0.3,0.3-0.6,0.5-0.9l0.1-0.2c0.1-0.1,0.1-0.2,0.2-0.3c0.1-0.2,0.3-0.4,0.5-0.5c0.7-0.8,1.7-1.3,3.4-0.2
								c0.3,0,0.6,0.1,0.9,0.2c0-0.1-0.1-0.1-0.1-0.2c-0.3-1.2-1.1-2.3-2.4-1.9c0.3-0.9,0.6-1.5,1.1-1.7c0.5-0.2,1.1,0,1.8,0.8
								c-0.5-3.3-1.2-4.1-2-4.7c-0.8-0.6-1.2-1.2-1.8-3.7c0.9-0.5,1.5,0.4,2.7,0.5c-1.2-1-2.5-1.8-3.6-2.9c-1.2-1-2.3-2.4-3.7-4
								c0.6-0.2,0.8-1.2,1.8-0.2c-1.5-1.3-3.3-1.9-5.1-2c-1.8-0.1-3.6,0.1-5.5,0.3c-0.9,0.1-1.9,0.2-2.7,0.3c-0.4,0-0.8,0.1-1.2,0.1
								l-0.6,0c-0.2,0-0.2,0-0.3,0c-0.4-0.1-0.9-0.2-1.3-0.5c-0.2-0.1-0.4-0.3-0.6-0.5c-0.2-0.2-0.3-0.4-0.5-0.7
								c1.7-1.5,1.6-2,1.4-2.4c-0.2-0.5-0.5-1,0.7-2.5l-1-0.2c-0.3-0.1-0.7-0.2-1.1-0.4c-0.3,0.6-0.5,1.2-0.8,1.8
								c-0.6-0.7-1.8-1-2.8-1.6c-1-0.5-1.9-1.2-1.8-2.4c0.7,0.3,1.5,0.5,2.2,0.7c-0.9-1-1.8-2.2-2.6-3.5c-0.1,0.9-0.1,1.9-0.1,2.9
								c-1.4-0.6-2.5-0.1-3.2,0.3c-0.7,0.3-1.2,0.4-1.5-1.5c0.3,0.3,0.1-0.4-0.1-1.3c-0.1-1-0.1-2.3,0.8-3.2c0,0,0,0,0,0
								c-1.5-0.8-3.1-1.9-2.8-4.1c1-0.8,4.1-0.7,4.8-1.3c-1.7-0.2-2.3-1.8-3-3.4c-0.7-1.6-1.5-3.3-3.4-3.7c0.9,0.3,2.8-0.2,3.1-0.5
								l-2.8-0.4c0.3-1.6,0.6-1.9,2.2-2.2c-0.6-2.2-1.5-1.4-2.4-0.8c-0.9,0.6-1.5,1-1.5-1.7c0.3,0.3,0.6,0,1.3,0.6
								c-0.5-2.6-2.1-4.9-3.8-6.8c-0.9-1-1.8-1.9-2.7-2.9c-0.5-0.5-0.9-0.9-1.3-1.4c-0.4-0.5-0.8-1-1.2-1.5c0.7-1.9,1.6-1.4,2.6-0.7
								c1,0.7,1.8,1.6,2.3-0.2c-0.8-0.7-1.7-1.4-2.5-1.9c-0.8-0.5-1.5-0.9-2.2-1.1l-0.5-0.2c-0.1,0-0.2,0-0.3-0.1
								c-0.2-0.1-0.5-0.1-0.7-0.2c-0.5-0.2-1-0.4-1.4-0.6c-1-0.5-1.8-1.3-2.3-2.3c-0.3-0.5-0.4-1-0.5-1.5c-0.1-0.6-0.2-1.3-0.1-2
								l-0.3,1c-5.4-0.2,2.3-4.4-0.3-7.3c0.4,0.7,3,0.8,2.4,0.7c0.6-4.2-1.7-8.4-3.7-14.5l1.4,0.7c1.1-2.5,0.4-6.4,0.8-9.1
								c-1.4-0.7-1.2-2.1-3.2-1.2c0.5-0.6,0.9-0.8,1.2-1.2c0.3-0.3,0.6-0.6,0.8-0.9c0.4-0.6,0.7-1.1,0.8-1.7
								c0.3-1.1,0.1-2.4,0.4-3.7c0.3-1.3,1-2.5,2.2-3.3c0.3-0.2,0.6-0.3,0.9-0.5c0.4-0.1,0.9-0.3,1.5-0.5c1.2-0.3,2.4-0.6,3.9-0.7
								c-0.9,0.8-1.6,2.6-0.8,2.1c2.2-2,3.9-4.5,5-7.1c-1.2-0.3-1.6-0.3-2-0.1c-0.4,0.2-0.9,0.4-2.1,0.5c-0.4-1.6-0.3-3.6,0.2-5.1
								c0.1,1.6,0.9,2.2,1.9,2c0.5-0.1,1.1-0.3,1.7-0.5c0.6-0.3,1.1-0.6,1.5-0.9c-0.7,0-1.3-0.8-2-0.9c1.3-0.6,1.6-1.1,1.5-1.5
								c-0.1-0.4-0.7-0.7-1.3-1c-0.6-0.3-1.3-0.7-1.6-1.2c-0.3-0.5-0.2-1.1,0.6-2.2l1.2,0.4c-0.4-1.9-2-3.4-1.6-5.2
								c2.7-0.8,1.2,1.8,3.4,2c-0.1-2.8-5.1-5-2.6-7.3c0.8,1,0.9,2.5,1.6,3.6c3.1-2.6,2.2-2.9,2.6-4.8l-0.1,0.2l0.2-0.5
								c0-0.2,0.1-0.2,0.2-0.4l0.3-0.6c0.2-0.4,0.4-0.8,0.7-1.1c-0.3,0.1-0.6,0.3-0.8,0.5c-2.3-0.8-3.2-1.9-3.5-2.8
								c-0.3-1,0-1.8,0.4-2.7c0.4-1,0.9-2,0.7-4c0.1,1.3,0.4,2.1,0.7,2.5c0.3,0.4,0.5,0.6,0.8,0.6c0.6,0.1,1.2-0.1,2.4,1
								c1.2,0.1,2.6,0.3,3,1.1c-0.5-1.2,0.3-1,0.8-1c0.1,0,0.3,0,0.4,0c0.1,0,0.2-0.1,0.3-0.2c0.3-0.4,0.7-1,0.8-2.1
								c0.6,0.8,1.8-0.9,2.6,1.4c1.8-1.9-1.3-1.2-1.8-2.4c0.9-2.4,3.4-2.6,6.2-3.3c1.4-0.3,2.9-0.8,4.2-1.7c1.3-0.9,2.5-2.2,3-4.2
								c1.6-2.6,1.9-4.8,1.9-6.9c0-0.5,0-1,0-1.5c0-0.5-0.1-1-0.1-1.5c0-1,0-2.1,0.1-3.2c1-0.3,1.7,0.3,2.1,1.1
								c0.4,0.8,0.5,1.7,0.5,1.7c2.6-1.8,3-3.8,2.9-6.3c0.6,0.8,1.4,0.6,2.7,0.5c0.2-0.8-0.5-1.4-0.9-2c-0.4-0.6-0.6-1.2,0.5-1.6
								c0.7,0.9,2,2.1,2.6,3.2c0-0.9-0.3-1.7-0.3-2.7c0-0.5,0-1,0-1.5c0.1-0.5,0.2-1,0.4-1.4c0.7,0.5,0.9,1.2,1,1.8
								c0.1,0.7,0.1,1.3,0.4,1.9c0.2-0.8,0.7-1.7,1.3-2.8c0.5-1.1,1-2.3,0.8-3.7c-0.6-0.1-1.2-0.1-1.7-0.2c0.7-0.5,1.4,1.8,1.2,2.5
								c-0.2,1.3-0.7,1.4-1.4,1.2c-0.7-0.3-1.5-0.9-1.8-1.3c0.2-0.4,0.5-0.9,0.7-1.3c-2.2-2-3.6-0.7-4,1.2c-0.1,0.5-0.2,1-0.2,1.5
								c-0.1,0.5-0.1,1-0.1,1.5c0,0.9-0.1,1.8-0.5,2.4c-1.1-1-2.1-2-3.1-3.1c0.4,1.6,1,3,1.7,4.5c-1.3,0.2-3.6-0.2-3.5-2
								c-2.8,1.4,0.5,2.5-2.4,3.4c-0.4,0-0.6-0.1-0.6-0.4c0.1,0.8,0.1,1.6,0.2,2.5c-0.6-0.8-2.7-1.1-1.6-1.9
								c-0.9,0.5-1.4,1.1-1.6,1.7c-0.2,0.6-0.3,1.3-0.4,2c-0.2,1.3-0.4,2.4-2,1.7l0-0.4c-0.6,1.1-0.9,1.8-0.9,2.3
								c0,0.5,0.3,0.9,0.6,1.3c0.7,0.8,1.7,1.6,1,4.4c-2.3-1.5-4.5-3-6.6-4.7l1.2,2.9c-0.5,0.2-1.6,0.6-2.1-0.6
								c-0.8,2.9,1,1,0.9,3.3c-3.8-1-6.2,4.9-9.2,1c0.3,2.5,3.3,0.2,1.4,3.1c-0.8-1-1.4-1.4-1.9-1.3c-0.5,0.1-0.9,0.5-1.3,1.1
								c-0.7,1.2-1.2,2.5-3.2,2.6c-1.4-2.4,2.3-3.3-2.1-3c0.6,1.6,0.1,2.4-0.8,3.1c-0.9,0.7-2.3,1.3-3.3,2.2
								c-0.8,0.7-1.4,1.6-1.4,2.5c1.7,0.7,1.7,2.2,1.8,4.2c0,1,0,2.1,0.1,3.3c0.1,1.3,0.2,2.1,0.6,3.1c-0.6-0.1-1,1.7-1.5,3.7
								c-0.5,2.1-1.1,4.4-1.9,5.6l-0.6-0.2c1.8,0.5,2.4,1.5,2.6,2.5c0.2,1.1-0.2,2.2-0.4,3.3c-1.9-1.2-2.5-1.9-3.1-3
								c-0.1,0.4-0.3,0.8-0.5,1.2c0.4,0.4,0.7,0.9,0.9,1.3c0.1,0.4,0.1,0.9-0.1,1.5c-0.6-0.7-1.2-1.4-1.9-2.1
								c-0.4,0.7-0.5,1.8-1.1,2.8c-0.1,0.1-0.2,0.3-0.2,0.4l-0.1,0.2c-0.1,0.1-0.1,0.1-0.2,0.2l-0.2,0.2l-0.1,0.1l-0.1,0.1l-0.2,0.1
								c-0.3,0.2-0.5,0.4-0.8,0.5c-1.1,0.7-2.3,1.2-3.8,1.7c0.8,1,2.9,1.7,4.2,2.8c1.4,1.1,2,2.5,1.2,4.2c-1.2-0.9-3.1-2.4-2.5-3.6
								c-0.2,0.4-0.3,1.7-1.3,1.9c-0.2-0.9-0.2-1.9-0.3-2.9c-1.3,0.4-1.1,0.9-0.8,1.5c0.3,0.5,0.7,1.1,0.1,1.7
								c-0.8-0.6-1.3-0.6-1.7-0.5c-0.4,0.1-0.8,0.2-1.4-0.4c0.1-0.6,1.7-0.8,1.6-1.9c-0.9,0.7-2,1.4-3,2.1c-1,0.7-2,1.3-2.8,1.4
								c1.1,0.3,2.4,1.1,2.2,2.7c-0.5,2-1,2.3-1.7,2.2c-0.7,0-1.6-0.3-2.3,1c0.6,0.7,0.5,1.7,0.7,2.6c0.2,0.9,0.6,1.7,2.1,1.7
								c0,1.3-1.3,1.4-2.1,1.9c1.4,1.6,0.8,7.7,3.8,5.7l0.2-0.4c0.1,0.1,0.1,0.2,0.1,0.3c0,0,0,0,0,0l0,0c3.2,5.3-1.1,11.4,0.5,16.7
								l-1,0c0.6,1.6,0.9,3.4,1.3,5c0.4,1.7,0.9,3.4,2.2,4.5c0.1,0.5-0.3,1.2-0.7,1.8c-0.5,0.6-1.1,1.1-1.8,1c0.7,1.3,1.3,2,1.9,2.8
								c0.5,0.8,0.9,1.7,1.5,3.4c0,0.3,0.2,0.7,0.4,1.2c-0.8-0.4-1.2-0.5-1.5-0.5c-0.4,0-0.4,0.2-0.4,0.3c0,0,0,0.1,0,0
								c0-0.1-0.3-0.5-1-2c0.3,0.9,0.5,1.6,0.7,2.3c0.5,1.4,1,2.4,1.9,3.3c0.5,0.4,1,0.8,1.7,1.2c0.7,0.3,1.4,0.4,2.2,0.5
								c-1.3,0.6-1.3,1.6-0.9,2.4c0.2,0.4,0.4,0.8,0.7,1c0.3,0.2,0.5,0.4,0.8,0.4c0.1-0.8,0.2-1.5,0.2-2.4c0.7,0.3,1,0.7,1.4,1.1
								c0.4,0.4,0.6,0.9,0.9,1.4c-1,0.5-2,1.1-3,1.6c-0.2,1.3,0.2,2.1,1,2.8c0.8,0.7,1.9,1.3,3,2.1c2.1,1.5,3.9,3.6,1.3,6.7
								c2.7,0.9,0.6-3.6,3.6-3c0.4,2.9-3.4,7.1-3.1,8.1c-0.3,2.3,1.2,3,2.7,3.7c0.8,0.3,1.6,0.7,2.2,1.3c0.6,0.6,1.1,1.4,1.3,2.6
								c0.9-1.1,3.6-2.6,6,0c0.5,1.5-0.2,3-1.1,3.9c-1,0.9-2.3,1.3-3.3,0.5c-0.5-0.7-0.3-1.3,0.1-1.4c-0.9-0.8-2-2-2.6-0.2l1.3-0.1
								c-0.1,0.5,0,1.2,0.1,1.9c0.2,0.7,0.4,1.5,0.6,2.2c0.4,1.4,0.6,2.5-0.6,2.5c1.3,1,1.9,1,2.1,0.5c0.2-0.5-0.1-1.5-0.3-2.6
								c0.5,2.5,1.7,4.2,3.1,5.7c0.7,0.8,1.4,1.5,2.3,2.4c0.8,0.9,1.7,1.8,2.7,2.9c-0.4-1.1-0.1-2.7,0.6-2.1
								c0.7,0.8,1.3,1.3,1.9,1.8c0.5,0.4,1,0.7,1.5,0.8c0.8,0.3,1.3,0.1,1.8-0.1c0.4-0.2,0.8-0.6,1.4-0.8c0.3-0.1,0.6-0.2,1.1-0.1
								c0.2,0,0.5,0,0.7,0.1c0.2,0,0.4,0,0.6,0c0.6,1.1,0,2.1-0.2,2.7c-0.2,0.6-0.3,0.9,1.1,0.3c0.3,0.6-0.1,1.3-0.7,2
								c-0.5,0.7-1.2,1.3-1.5,1.8c1-1,1.5-0.7,1.3,0.1c-0.2,0.8-1,1.8-1.1,2.1c-0.4,0.2-0.7,0.4-1,0.6c0.6-0.4,0.7-0.3,0.7-0.2
								c0.8-0.6,1.5-1.2,2.2-1.9c-0.3,0.6-0.2,0.8-1.2,1.4c0.8-0.4,1.8-1,2.9-1.7c1.1-0.7,2.2-1.4,3.4-1.4c-0.6,0.7-0.2,1.1-0.2,1.7
								c0,0.5-0.3,1.1-1.9,1.5c0.7-1.2-0.1-0.9-1.1-0.4c-1,0.4-2.2,0.9-2.5,0.6c0.4,0,0.3,0.3-0.1,0.6c-0.4,0.1-0.7,0.1-0.8,0.2
								c-1.1,0.5-0.9,0.4-0.3,0.5c0.6,0,1.7-0.1,2.6,0.1c0.3,0.3,0.6,0.5,0.8,1.1c0.3,0.6,0.5,1.4,0.6,2.5c-0.9-0.3-1.7,0.2-2.2,1
								c-0.5,0.8-0.5,1.9-0.1,2.5c-0.7-3.2,2.5-1.9,4.5,0.1c0,1.2,0.2,2,0.5,2.6c0.3,0.6,0.6,1.1,1,1.4c0.8,0.6,1.6,0.9,2,1.9
								c-0.2-0.8-0.4-1.6-0.6-2.4c2-0.1,2.6,1.7,4.5,3.5c-1,1-2.1-1.4-2.1-0.3c2.1,0.4,2.3,2,2.8,4c0.2,0.9,0.5,1.9,0.9,2.8
								c0.5,0.8,1.2,1.5,2.2,1.8c0.5,2.1-2.1,2.6-1.4,4.3c2.5,0.6,3,1.7,3.6,3c0.3,0.6,0.6,1.2,1.1,1.8c0.5,0.5,1.3,1,2.5,1.2
								c0.2-2.7-0.2-2.3,3.5-2.6c-2.3-0.8-4.6-1.6-6.9-2.6c2,0.1,3.9-0.1,5.7-0.2c-0.9-0.6-2-0.9-3-1.2c-1-0.3-1.9-0.7-2.3-1.2
								c2.9-0.2,2.3,0.1,2.8-2.1c0,2.3,1.5,2.7,3.1,2.9c1.6,0.2,3.2,0.3,3.9,2.1l-3.1,5c0.8,1.2,1.7,1.9,2.8,2.4
								c1.1,0.5,2.2,0.5,3.4,0.7c2.4,0.2,5,0.4,7.3,2.4l-1.3-1.8c1.8-1.7,3.4,1.4,5.6,1.3c-1,1.7-0.2,2.9,0,4.3
								c0.5-1.4,3.9,2,6.1-1.4l1.4,3.5c2,1.5,3.8,0.7,5.7-0.1c1.8-0.8,3.6-1.7,5.7-0.5c-2.1,1.5-0.5,3.6-4.2,3.8
								c1.5,0.6,2.8,1.5,3.3,0.2c0.2,0.8,1.6,0.5,2.9,0.4c1.4-0.2,2.8-0.3,3.3,0.8c1-0.7,1.7-2.6,3.5-2c0.1,0.4-0.2,1-0.2,1
								c0.2-0.9,3.2-0.8,2-3.2c0.9,1.8,2.4,2.7,4.1,3.2c1.7,0.5,3.7,0.4,5.5,0.1c3.8-0.6,6.9-1.8,9.7,0.2c3.2-1.6,6.6-3.4,9.1-4
								c0,0.6,0.2,1-0.3,0.9c1.9,0.5,2.1-0.9,2.5-2.4c0.4-1.4,1-3,3.2-2c1.1,1.6,0.5,2-0.1,2.2c-0.6,0.2-1.3,0.2-0.7,0.7
								c0.4,3.2,1.4,3,2.8,2.5c1.4-0.5,3.4-1.2,4.6,0.9l-0.7,0.3c1.9,2.4,5.9-1.6,10.3-0.8c0,0-0.3,0.6-0.1,1c1.7-1.5,4-2.5,6.3-3.5
								c2.3-0.9,4.8-1.8,6.7-2.9c-0.6,2.8-1.7,1.8-0.2,4.1c1-0.4,0.6-1.4,0.4-2.5c-0.1-0.5-0.1-1.1,0.1-1.6c0.2-0.5,0.6-1,1.4-1.6
								c0.8,0.4,2,0.6,3.3,0.9c1.3,0.3,2.6,0.6,3.6,1.6c-1.3,0.9-2.6,1.7-4.1,2.4c0.9,0.6,1.8,0.7,2.5,0.5c0.8-0.2,1.4-0.7,2-1.3
								c1.2-1.2,1.9-2.8,3-3.4l0.8,1.4c0.7-0.7,1.2-1.4,1.6-2.1c0.7-1.2,1-2.3,1.1-3.2c0.1-0.9,0-1.7,0-2.4c0-0.7,0-1.5,0.1-2.1
								c0-0.5,0.3-1.1,0.8-1.7c-0.4-0.2-0.7-0.3-1.1-0.5c-0.4-1.1-0.3-1.6-0.1-1.9c0.2-0.2,0.6-0.2,1-0.1c0.4,0.1,0.8,0.3,1.1,0.2
								c0.3-0.1,0.5-0.4,0.6-1.3c0.9,1,1.7,2.1,2.4,3.2c0.1-0.3,0.3-0.8,0.6-1.3c0.4-0.6,1-1.3,1.7-2c1.4-1.4,3.2-2.8,4.7-3.7
								c-1,3.3-4.9,5.9-5.6,8.1c0.5-0.2,1.7-0.6,3-1.3c1.3-0.7,2.5-1.6,2.7-2.7c-0.6,0.6-1.3,1.8-2.2,1.4c1.4-3.6,3.9-5.9,7.5-6.9
								c0.7,3.8,3.2,3.6,6.1,3c1.4-0.3,2.9-0.6,4.3-0.6c0.7,0,1.4,0.1,2,0.4c0.3,0.1,0.6,0.3,0.9,0.5c0.1,0.1,0.3,0.2,0.4,0.4
								c0.2,0.1,0.5,0.2,0.8,0.3c1.4-0.7,2.7-1.5,4-2.6c1.3-1.1,2.6-2.4,3.7-4c0.3-0.4,0.5-0.8,0.7-1.2l0.3-0.6
								c0.1-0.2,0.2-0.5,0.3-0.7c0.4-1,0.8-1.9,1-3c0.1-0.5,0.2-1,0.3-1.5c0-0.5,0.1-1,0.1-1.4c0-1-0.1-1.8-0.2-2.6
								c0-0.4-0.1-0.8-0.2-1.1l-0.2-1c-0.1-0.6-0.3-1.2-0.5-1.7c0-0.2,0-0.3,0-0.5l0-0.3c0-0.4,0.1-0.8,0.2-1.2
								c0.1-0.6,0.2-1.1,0.3-1.7c-1.7-0.3-2.6-0.3-3-0.5c-0.4-0.1-0.4-0.3-0.4-0.5c0-0.4,0.2-0.9-3.2-2.1c0.1-1.2,0.6-1.6,1.1-1.4
								c2-0.3,3.8-0.1,5.4,0.5c1.7,1.1,0.5,1.4,1.7,2.3c0.6-0.1,1.1,0.4,1.7,1c0.6,0.6,1.2,1.4,1.7,2c-0.7-0.9-1.1-1.6-1.2-2
								c-0.1-0.4,0.1-0.5,0.4-0.2c-0.5-0.8-1.2-1.6-2-2.3c0-0.9,0.3-1.1,0.7-0.9c0.2,0.1,0.3,0.3,0.6,0.5c0.4,0.2,0.8,0.4,1.2,0.6
								c1.6,0.8,3.2,1.7,6.2-1.3l-1.5,2.7c0.8-0.6,2.1-1.3,3.6-2.2c1.6-0.9,3.5-2.2,5.3-3.8c1.8-1.6,3.2-3.6,4-5.4
								c0.8-1.8,0.9-3.6,0.5-5.1c0.5-0.1,1.2-0.1,1.7,0.1c0.5,0.2,0.9,0.7,0.5,1.6c1.6-2.1,2.5-4.5,3.1-6.8c0.6-2.3,0.8-4.5,0.9-6.5
								c0.1-1,0.1-1.9,0.3-2.9c0.1-1,0.3-2,0.5-3c0.1-0.5,0.2-1,0.4-1.6c0.2-0.6,0.3-1.2,0.5-1.8c0.3-1.2,0.7-2.3,1.1-3.4
								c0.5,0.3,1,0.6,1.4,0.9c-0.1-1.1-0.8-2.1-1.3-3.1c-0.5-1-0.8-1.9-0.3-3.4c0.6,0,1.6,0.6,1.5-0.4c-0.4-0.5-1.3-1.8-2.3-3.2
								c-0.8-1-1.4-1.8-1.1-2.3c0.6,0.1,1.2,0.2,1.9,0.4c0-0.8,0-1.1,0-1.2l0,0l0,0l0,0c0,0-0.1,0-0.1,0c-0.4,0.1-0.7,0.2-1.1,0.2
								c-0.4,0.1-0.7,0.1-1.1,0.2l-0.5,0.1l-0.4,0.1c-0.5,0.1-1,0.1-1.4,0.1c-0.3,0-0.6,0-0.9,0l-0.2,0l-0.1,0c-0.1,0-0.2,0-0.3,0
								l-0.4-0.1c-0.1,0-0.2,0-0.3-0.1c0,0,0,0,0,0l0,0l0,0l0,0c0.1,0-0.1,0,0.1,0l0,0l0,0l0,0l0,0c0,0-0.1,0-0.1,0
								c0.1,0,0.1,0.1,0.2,0.1l0.1,0l0.2,0.1c0.1,0.1,0.2,0.2,0.3,0.3c0,0,0.1,0.1,0.2,0.2l0.3,0.2c0.2,0.2,0.3,0.3,0.5,0.6
								c0.3,0.3,0.5,0.5,0.7,0.8l0.3,0.4c0,0,0-0.1-0.1-0.1l-0.1-0.3c0-0.2,0-0.4,0-0.6c0.1-0.4,0.3-0.9,0.7-1.4
								c0.4-0.5,0.8-0.9,1.7-1.5c0.9,1.8,3.2,2.4,6,1.7c1.5-0.4,3.1-1.1,4.5-2c1.4-0.9,2.6-2.1,3.5-3l0.4,0.5
								c2.2-2.9,3.4-6.2,3.9-9.3c0.5-3.2,0.3-6.3-0.4-9.1c-0.2-0.7-0.4-1.4-0.6-2.1c-0.1-0.3-0.2-0.7-0.4-1.1
								c-0.1-0.3-0.2-0.6-0.4-0.9c-0.5-1.2-1.1-2.2-1.7-3.3c-1.2-2.1-2.5-3.9-3.8-5.8c0.5-1.7,0.3-3.8-0.3-5.8
								c-0.1-0.2-0.2-0.5-0.3-0.8l-0.1-0.4l-0.1-0.2c-0.1-0.3-0.2-0.6-0.3-0.9c-0.2-0.6-0.4-1.3-0.7-2c-0.5-1.4-1-3.1-1.6-5.3
								c-0.5-2.1-1.1-4.7-1.8-7.4c0,1.8-3.2,1.2-4.4-0.1c-0.1-0.6-0.6-1.2-1.2-1.8c-0.6-0.5-1.3-1-1.8-1.4c-1.2-0.8-1.8-1.5-0.2-2.8
								l0.6,0.8c0.9-2.1-0.1-4.1-1.6-5.7c-0.4-0.4-0.8-0.8-1.3-1.1l-0.2-0.1l-0.1-0.1l0,0l0,0l0,0c1.5-2.1-13,17.9-6.9,9.4l0,0
								l0.1-0.1c0.2-0.2,0.3-0.4,0.5-0.6l0.2-0.1l0,0l7.4-7.5l0,0l0,0l0,0l0,0l-0.1-0.2c-0.1-0.1-0.1-0.2-0.2-0.4
								c-0.9-1-1.8-1.9-2.7-2.7c-1.3,1.3-2.5,2.5-3.6,3.8c-0.5-1.6-1.4-3-2.7-4.1c-1.3-1.1-2.9-1.8-4.6-2.2
								c-0.9-0.2-1.8-0.3-2.7-0.4c-0.5,0-0.9,0-1.4,0l-0.7,0l-0.3,0l-0.2,0l0.2,0l0.1,0l0.1,0l0,0c-0.5,4.5,1.2-10-1.2,10l0,0
								c0,0.1,0,0.2,0,0.3c0,0.1,0,0.1-0.1,0.2c0,0,0,0.1,0,0.1c0,0.1-0.1,0.2-0.1,0.2c-0.1,0.2,0,0,0.3,0.1c0.8,0.2,2,1,3.2,2
								c1.2,1,2.5,2.2,3.6,3.4l0.8,0.8l0.2,0.2c0.1,0.1,0,0,0,0c0,0,0,0,0,0c0,0,0-0.1,0-0.1c0-0.1,0.1-0.4,0.2-0.5
								c0-0.1,0.1-0.2,0.1-0.2c0,0,0-0.1,0-0.1c0,0,0,0,0,0l0,0l-0.2-0.4c-0.6-1.2-1.2-2.4-1.7-3.7c-0.2-0.6-0.5-1.2-0.6-1.8
								l-0.1-0.4l-0.1-0.2l0-0.1c0.8,3-1.8-6.8,1.8,6.7l0,0l0,0l0.3-0.1c0.8-0.3,1.5-0.5,2.2-0.8c0.7-0.2,1.4-0.5,2.2-0.8
								c0.7-0.3,1.4-0.5,2.1-0.7c1.4-0.6,2.8-0.9,4.3-1.1c0.5-1,1-2,1.6-2.9c0.5-1,0.9-2,1.3-3.1c0.3-1,0.5-2,0.7-3
								c0.1-1,0.1-1.8-0.1-2.7l2.7,0.8c0.7-2.4,1-4.3,1.1-6c0.1-0.9,0.1-1.7,0.1-2.4c0-0.8-0.1-1.6-0.2-2.3
								c-0.3-2.9-1.1-5.8-2.7-9.2c0.8,0.2,1.6,0.5,2.4,0.8c-0.6-2.2-3-2.7-5.4-3c-1.2-0.2-2.4-0.2-3.3-0.4c-1-0.2-1.7-0.6-2.1-1.3
								l3.5-2.6c-1.3-2.7-1.8-6-2.9-9.1c-1.1-3.1-3-6.1-6.6-7.8c0.6-0.3,1.7-0.8,2.5,0c-0.9-1.4-2.3-4.5-4.3-6.7
								c-1-1.1-2.1-1.9-3.1-2.1c-1-0.2-1.9,0.2-2.7,1.5c0.6-0.7,0.6-1.4,0.1-2.1c-0.5-0.7-1.5-1.3-2.7-1.8c-1.2-0.5-2.6-0.9-4-1.2
								c-1.4-0.2-2.8-0.4-3.8-0.4c0.6-0.7,1.2-1.5,1.8-2.2c-2.4,0.8-3.5,1.6-4.6,2c-1.1,0.4-2.2,0.5-3.9,0.3
								c-0.5-0.6,0.3-2.3,0.9-1.3c-0.9-1.2-1.5-0.7-2.2-0.4c-0.3,0.2-0.7,0.4-1.1,0.3c-0.4,0-0.7-0.3-0.9-0.9
								c0.6-0.3,1.1-0.7,1.6-1.1c-0.6-0.5-0.9-0.5-1.5-0.4c-0.6,0.1-1.3,0.5-2.5,0.8c-0.5-0.1-0.9-0.4-1.2-0.8
								c-0.3-0.4-0.6-1-0.7-1.6c-0.1-0.6-0.1-1.3,0.1-1.9c0.2-0.6,0.4-1.2,0.9-1.7c-1.4,0.7-4,0.7-4.4-1.2c0.6-0.8,1.5-0.6,1.9-0.5
								c-0.7-2.5-2.5-3.7-4.3-4.8c-1.8-1-3.3-1.9-4.1-4.3c0.5-0.8,0.6-1.3,0.5-1.8c2.1,1.8,3.5,3.5,4.5,4.7c0.9,1.2,1.3,1.9,1.1,1.8
								c1-0.8,1-2,1.3-3c0.3-1,0.9-1.9,3.3-1.7c-1.8-0.7-4.5-1.5-7.2-2.5c-2.7-1-5.3-1.9-7.1-3.5c-0.1-0.3-0.2-0.6-0.1-1.1l0.6,0
								c-0.4-0.4-0.9-0.6-1.4-0.8c-0.2-0.1-0.5-0.1-0.7-0.2l-0.2,0l0,0l0,0l0,0l0,0l0,0c2.9-6.7-4,9.2-3.3,7.5l0,0l0,0l0,0
								c0,0,0-0.1,0.1-0.1c0,0,0-0.1,0.1-0.1l0.1-0.2c0.1-0.1,0.2-0.2,0.3-0.3l0,0l5.1-5.3l0,0l0,0l0,0l0,0l0.1-0.1l0.1-0.2l0.1-0.1
								c0,0,0,0,0-0.1l-0.1-0.1c-0.3-0.7-0.6-1.3-1-2c0.6-1.1-0.2-2.6-1.4-3.7c-0.6-0.6-1.3-1.1-2.1-1.6c-0.8-0.5-1.6-0.8-2.2-1
								c-0.5,1.3-1.5,1.7-2.1,2.1c-0.6,0.4-0.8,0.9,0.1,2.2c-0.1-0.1,0-0.2,0.4-0.2c0.3,0,0.9,0.2,1.6,0.6c0.3,0.1,0.7,0.3,0.9,0.3
								c-0.1,0-0.2,0.1-0.2,0.1c1.2,0.9,2.4,2.2,3.7,4.1c-1.1-0.3-2-0.5-2.7-1c-0.8-0.5-1.3-1.3-1.9-2.7c-0.9,0.4-1.9,1-2.7,1.6
								c-0.8,0.6-1.5,1.2-2,1.6c-0.4-1.4-1.3-2.9-2.6-4c-2.1-1.8-5-3.2-5.6-4.7c-2.4,0.8-5.1,1-7.5,1.7c-2.4,0.6-4.6,1.6-6.3,4
								c-1.3,0.5-1.2-1.7-1.5-2.6c0.8-0.4,1.5-0.2,2-0.9c-0.6,0.3-1.4,0.3-2.2,0.4c-0.8,0-1.6,0-2.3,0c-0.7,0-1.5,0.1-2.1,0.4
								c-0.6,0.3-1.2,0.8-1.6,1.6c-0.6-0.6-0.7-1.1-0.6-1.5c0.1-0.4,0.4-0.6,0.6-0.9c0.4-0.4,0.6-0.6-1.2-1.1l0.9-0.8
								c-0.5-1-1-1.7-1.6-2.2c-0.5-0.5-1.1-0.8-1.9-1c-0.4-0.1-0.8-0.3-1.4-0.4c-0.2,0-0.6-0.2-1-0.4c-0.4-0.1-0.7-0.3-1.1-0.4
								c-1.5-0.5-3-0.7-4.4-0.8c-1.5-0.1-2.9,0-4.3,0.1c-1.4,0.2-2.8,0.4-4.2,0.7c-0.7,0.1-1.4,0.2-2.1,0.3c-0.4,0-0.7,0.1-1.1,0.1
								c-0.4,0-0.7,0-1,0c-1.2-0.1-2.6-0.5-4.1-1.1c0.8,0.3,1.2,0.5,1.5,1c-6.3-0.5-12.4,1.8-18.3,4.1c-5.9,2.3-11.6,4.7-18.2,4.6
								c-3.5,0.3-2.9,2.6-4.1,5l-1.8-2.5c-0.6,1.5-1.2,3-1.8,4.5c-1.8,2-4.4,1-6.8,0.1c-1.2-0.4-2.4-0.9-3.5-0.9
								c-0.5,0-1.1,0.1-1.6,0.4c-0.5,0.3-1,0.7-1.6,1.4c0.3,0.6,0.6,1.3,0.9,1.9c-0.5,0-1.1,0.1-1.8,0.2c-0.7,0.1-1.3,0.2-1.9,0.2
								c-1.2,0.1-2.1-0.3-1.8-1.4c-0.2,0.3-0.9,2.1-1.4,0.9l0.2-1.6c-0.7,0.3-1.5,0.7-2.3,0.8l-1.3,0.3c-0.4,0.1-0.8,0.1-1.3,0.2
								c-0.4-0.3-0.6-0.6-0.6-1l-0.5-2L74,35.9c-1.9,1.9-5.6-1.4-6.2,4c0.5,2.3,4.2,6.9,5.3,6.1c0.1-0.9,1.1-2.3,2.7-2.3l0.7,2.2
								c4.6,0.7,9.3,2.6,12.9-2.4l-2.6-3.8l2.3-1l0,3.1c2.2-1.6,0.4-2.8-0.8-4.1c0.7-0.1,1.3-0.3,1.8-0.6l-17.7,9.8
								c0.1,0.4,0.4,0.8,0.8,1.2c1.2-0.3,2.3-0.5,3.4-0.9c1.1-0.4,2.2-0.8,3.2-1.3c0,1-0.8,1.7-1.2,2.4c-0.5,0.7-0.6,1.4,1.2,2.4
								c1.5-0.7,1.1-1.9,1-2.8c-0.2-1-0.1-1.8,1.9-2.1c0.9,1.3,1.3,2.3,1.7,2.8c0.4,0.5,1,0.6,2.5-0.2c0.3,1.2-0.3,2-1.6,2.4
								c0.4-0.1,0.7-0.3,1.1-0.3c0.4-0.1,0.8-0.2,1.2-0.3c0.8-0.1,1.6-0.2,2.4-0.4c1.5-0.4,2.8-0.9,3.2-2.2c0.6,0.6,1.4,0.8,2.3,0.8
								c0.9,0,1.7-0.2,2.5-0.3c0.8-0.1,1.5-0.2,2,0c0.6,0.2,1,0.8,1.2,1.8c0.5-1.2,2.8-4.3,4.4-5.1c-0.8,3,0.9,2.6,2.9,2
								c2-0.6,4.2-1.3,4.8,1.5c0.6-5.3,7.1-5.3,9.4-9c-0.1,0.4-0.2,1.3-0.6,1.2c2.1-0.4,3.2,0.7,4.7,1.1c-1.1-3.8,1.7-5.7,2.6-8.6
								c3.7,2.8,0,4.9,1.9,8c-1.2-3,3.2-4.4,1.6-6.6c2.6,1.6,2,0.6,3.9,3.4c-1.1-4.8,1.5-1.3,2.3-4.6c3.4,1.6,1.9,4.2,4.5,2
								c0.9,0.5,0.8,1.4,0.4,2.1C143.4,37.9,142.9,38.5,142.9,38.5z M208.5,44.1C208.5,44.2,208.4,44.2,208.5,44.1
								c-0.4-0.1-0.8-0.2-1-0.3C207.7,43.9,208,44,208.5,44.1z M211.9,47c-0.2-0.3-0.4-0.5-0.6-0.8c-0.2-0.3-0.5-0.5-0.8-0.8
								c0.5-0.8,1.3-1.5,1.7-1.1C211.6,44.7,212,45.9,211.9,47z M214.4,22.5c1.4,0.8,1.4,1.8,1.2,2.4c-0.5-0.6-1.2-1.2-2.1-1.8
								c-0.1,0.1-0.2,0.1-0.3,0.2C213.5,22.9,213.9,22.6,214.4,22.5z"/>
							<path class="st12" d="M210.2,23.9c-0.2-0.1-0.4,0-0.6-0.1c0.2,0.4,0.3,0.7,0.4,1c0.3-0.2,0.6-0.3,0.9-0.4
								C210.7,24.2,210.4,24,210.2,23.9z"/>
							<path class="st12" d="M13.9,138.5l-0.1,0.1c0.1-0.1,0.2-0.2,0.4-0.3C14.1,138.4,14,138.5,13.9,138.5z"/>
							<path class="st12" d="M256.7,105.1L256.7,105.1c0.1,0.1,0.2,0.2,0.3,0.3C256.9,105.4,256.8,105.2,256.7,105.1z"/>
							<path class="st12" d="M38.8,110.3c0.3,0,0.6-0.1,0.9-0.4C39.5,109.9,39.1,110,38.8,110.3z"/>
							<path class="st12" d="M40.7,92.3c0.1-0.2,0.1-0.4,0.2-0.5l0.2-0.3c0.2-0.2,0.3-0.4,0.5-0.6c-0.3,0.3-0.5,0.5-0.6,0.7
								c-0.1,0.1-0.1,0.2-0.2,0.3C40.8,92,40.8,92.1,40.7,92.3z"/>
							<path class="st12" d="M43.4,85.8c-0.4-0.4-0.6-0.6-0.9-0.9c0,0,0,0,0,0L43.4,85.8z"/>
							<path class="st12" d="M78.4,241.1c0.1,0.1,0.1,0.1,0.2,0.2C79.3,241.5,79,241.3,78.4,241.1z"/>
							<path class="st12" d="M43.8,202.7c0.7,0.4,1.3,0.7,1.8,1.1C45.5,202.9,45.3,202.2,43.8,202.7z"/>
							<path class="st12" d="M127.2,265.1C127.2,265.1,127.2,265.2,127.2,265.1c0.1,0.1,0.2,0.1,0.3,0.1L127.2,265.1z"/>
							<path class="st12" d="M46.4,206c0.2-1-0.2-1.7-0.8-2.2C45.7,204.6,45.8,205.5,46.4,206z"/>
							<path class="st12" d="M79.1,53.2l0.4-0.1c-0.1-0.2-0.2-0.3-0.2-0.4L79.1,53.2z"/>
							<path class="st12" d="M79.3,52.7l0.2-0.5C79.3,52.3,79.2,52.4,79.3,52.7z"/>
							<path class="st12" d="M80.1,51.1c-0.2,0.4-0.4,0.7-0.6,1.1C79.8,52,80.2,51.9,80.1,51.1z"/>
							<path class="st12" d="M71.9,61.4l0.8,0.6C72.6,61.8,72.4,61.6,71.9,61.4z"/>
							<path class="st12" d="M69.2,67c1.1-1.1,4-2.5,4.2-4.5L72.8,62c0.5,0.7-0.5,1.5-1.6,2.3c-0.5,0.4-1.1,0.8-1.5,1.3
								C69.3,66,69.1,66.4,69.2,67z"/>
							<path class="st12" d="M44.4,70.8l3.9-1.3c-1.1-0.6-2.6-1.4-1.2-2.5c-2.9-0.2-2.4,0.2-1.8,0.9C46,68.7,46.8,69.7,44.4,70.8z"
								/>
							<path class="st12" d="M30.7,78.7c0.7-1.3,0.4-1.5-0.2-1.5c-0.6,0.1-1.4,0.5-1.6,0.2c-0.2,1.1-0.2,1.8,0,2
								C29.2,79.7,29.7,79.4,30.7,78.7z"/>
							<path class="st12" d="M14.1,169c-0.8,0.2-1.7,0.3-2.5,0.4C12.7,171.8,12.5,169.1,14.1,169z"/>
							<path class="st12" d="M36.7,176.7c0.1-0.9,0.1-1.8,0-2.7c-0.8,0.2-1.7,0.4-2.5,0.7C35,175.3,35.9,176,36.7,176.7z"/>
							<path class="st12" d="M24.8,193.6c-0.2-0.2-0.4-0.3-0.5-0.5c0.5,0.6,1.1,1.3,1.6,2C25.5,194.6,25.2,194.1,24.8,193.6z"/>
							<path class="st12" d="M143.4,289.8l-1.3-2.9c-0.6,0.4-0.8,1.5-0.6,2.3C141.7,290,142.4,290.5,143.4,289.8z"/>
							<path class="st12" d="M207.7,268.9c0.7,0.4,1.4,0.6,1.8,0.6c0.4,0,0.5-0.3,0.3-1.1C209.2,268.6,207.7,268.3,207.7,268.9z"/>
							<path class="st12" d="M264.4,108.5c0.9-0.1,1.7,0,2.6,0c-1.5-0.4-3-0.7-4.5-0.9C263.1,108,263.8,108.2,264.4,108.5z"/>
						</g>
					</g>
				</g>
			</g>
		</g>
	</g>
	<g class="st0">
		<path class="st13" d="M148.6,102.7l2.1,8.6c1.9,7.8,3.8,14.6,5.6,20.5c1.9,5.9,6.6,19.4,14.3,40.6c0.7-2.7,2.2-8.6,4.4-17.9
			c2.8-12,4.7-19.6,5.6-22.6c2.7-9,5.4-15.7,7.9-19.9c2.5-4.2,5.4-7.3,8.5-9.2c3.1-1.9,6.7-2.8,10.6-2.8c3.2,0,5.6,0.6,7.3,1.8
			c1.7,1.2,2.5,2.7,2.5,4.4c0,1.2-0.5,2.3-1.4,3.2c-0.9,0.9-2,1.4-3.2,1.4c-0.9,0-1.9-0.2-3.1-0.7c-2.4-1-3.9-1.5-4.4-1.7
			c-0.9-0.2-1.8-0.3-2.9-0.3c-2.4,0-4.4,0.8-6.2,2.4c-3,2.8-6.4,9.9-10,21.3c-3.6,11.4-8.3,29.6-13.9,54.6l-2.5,10.9
			c-5.6-12.3-9.3-20.9-11.3-26.1c-2.6-6.9-5.6-15.6-9-26.1l-8.1-25.3c-1,5.9-3.3,15.7-6.8,29.6c-3.6,13.9-5.7,21.9-6.4,24
			c-2.2,6.6-4.7,11.6-7.2,15.2s-5.4,6.1-8.4,7.7c-3.1,1.6-6.4,2.4-10.1,2.4c-4.6,0-8.3-1-11.3-3.1c-2.2-1.5-3.4-3.4-3.4-5.8
			c0-1,0.4-1.9,1.2-2.7c0.8-0.8,1.8-1.2,3-1.2c1.5,0,3.1,0.8,4.9,2.4c3.1,2.9,6,4.3,8.6,4.3c2.8,0,5.5-1.2,8.2-3.7
			c4-3.8,7.9-11.8,11.6-24c4.5-14.7,8.8-33.3,13-56c-1.7,0-5,0.5-9.8,1.5c-4.8,1-8.9,2.4-12.1,4.1c-3.2,1.8-5.7,4.1-7.5,7
			c-1.7,2.9-2.6,5.8-2.6,9c0,1.6,0.2,3.1,0.7,4.8c0.3,1.1,0.9,2.4,1.9,4c1.1,1.8,1.7,3.2,1.7,4.1c0,1.2-0.4,2.2-1.3,3
			c-0.9,0.8-1.9,1.2-3.2,1.2c-1.9,0-3.4-1-4.8-2.9s-2-4.9-2-8.8c0-6.5,1.6-12.1,4.9-16.7c3.3-4.6,7.7-8.1,13.2-10.4
			c3.5-1.5,10.3-2.9,20.4-4.2C141.9,104.1,145.4,103.4,148.6,102.7z"/>
	</g>
	<g>
		<path class="st14" d="M57.4,193.6l10.5-10.7c5,8.1,11.8,12.2,20.5,12.2c5.8,0,10.9-2.4,15.4-7.3c4.4-4.9,7.5-11.3,9.1-19.4
			l13.8-69.5c-2.5-0.4-4.2-0.6-5.3-0.6c-8,0-14.7,2.9-20.1,8.6c-5.4,5.7-8.1,12.9-8.1,21.4l-14.2,7c1-12.9,6.3-23.4,15.9-31.3
			c9.6-7.9,21.8-11.9,36.5-11.9h7c5,12.9,11.6,26.6,19.8,41.2l9.3,16.6c6.5,11.4,11.3,20.6,14.3,27.6l8.4-42.3
			c2.9-14.6,7.9-25.9,15.1-33.9s15.8-12,26-12c3.6,0,7.2,0.7,10.6,2.1l-5.3,9.9c-4.3-3.4-8.5-5.1-12.5-5.1
			c-10.5,0-17.6,9.2-21.2,27.5l-11,55.2l-3.4,21.7l-9.4,3.2c-1.8-5.5-6.9-15.8-15.4-30.9L145.9,141c-4.8-8.5-8.7-16.1-11.9-22.8
			l-5.6,28.2c-3.6,17.8-9.5,31.5-17.8,41.1c-8.3,9.6-18.5,14.4-30.4,14.4C71.8,201.9,64.2,199.1,57.4,193.6z"/>
	</g>
</g>
</svg>
