<?xml version="1.0" encoding="utf-8"?>
<!-- Generator: Adobe Illustrator 24.2.1, SVG Export Plug-In . SVG Version: 6.00 Build 0)  -->
<svg version="1.1" id="Layer_1" xmlns="http://www.w3.org/2000/svg" xmlns:xlink="http://www.w3.org/1999/xlink" x="0px" y="0px"
	 viewBox="0 0 100 100" style="enable-background:new 0 0 100 100;" xml:space="preserve">
<style type="text/css">
	.st0{fill:none;}
	.st1{fill:#fff;}
</style>
<g>
	<path class="st0" d="M47.58,44.37c-0.18-0.5-0.71-1.01-1.39-1.03c-0.68,0.02-1.21,0.53-1.38,1.02l-2.48,6.54
		c-0.32,0.98-0.04,1.34,0.25,1.47c0.21,0.09,0.43,0.14,0.66,0.14c0.43,0,0.76-0.18,0.86-0.46l0.51-1.35l3.17,0l0.51,1.35
		c0.1,0.28,0.43,0.46,0.86,0.46c0.23,0,0.45-0.05,0.66-0.14c0.29-0.13,0.56-0.5,0.25-1.48L47.58,44.37z M45.16,48.88l1.04-2.95
		l1.04,2.95H45.16z"/>
	<path class="st0" d="M43.73,44.36c0-0.56-0.46-1.02-1.02-1.02h-5.32c-0.56,0-1.02,0.46-1.02,1.02c0,0.56,0.46,1.02,1.02,1.02h1.62
		v6.17c0,0.55,0.47,0.99,1.04,0.99s1.04-0.44,1.04-0.99v-6.17h1.62C43.27,45.38,43.73,44.92,43.73,44.36z"/>
	<path class="st0" d="M60.44,47.45l2.37-2.37c0.16-0.16,0.24-0.39,0.23-0.63c-0.01-0.24-0.12-0.48-0.31-0.66
		c-0.2-0.19-0.46-0.31-0.71-0.31c-0.22,0-0.43,0.08-0.58,0.23l-2.9,2.9v-2.23c0-0.57-0.47-1.04-1.04-1.04
		c-0.57,0-1.04,0.47-1.04,1.04v7.1c0,0.57,0.47,1.04,1.04,1.04c0.57,0,1.04-0.47,1.04-1.04v-2.27l0.36-0.36l2.44,3.23
		c0.2,0.26,0.5,0.41,0.83,0.41c0.23,0,0.45-0.07,0.62-0.21c0.22-0.17,0.37-0.41,0.4-0.68c0.04-0.27-0.03-0.55-0.2-0.77L60.44,47.45z
		"/>
	<path class="st0" d="M55.06,50.48h-2.21v-6.1c0-0.57-0.48-1.04-1.06-1.04s-1.06,0.47-1.06,1.04v7.05c0,0.52,0.45,0.95,1,0.95h3.33
		c0.55,0,1-0.43,1-0.95C56.06,50.91,55.61,50.48,55.06,50.48z"/>
	<polygon class="st1" points="45.16,48.88 47.23,48.88 46.19,45.93 	"/>
	<path class="st1" d="M50,33.39c-9.94,0-18,6.35-18,14.19c0,5.07,3.37,9.51,8.44,12.02c-0.28,0.95-1.77,6.12-1.83,6.52
		c0,0-0.04,0.3,0.16,0.42c0.2,0.12,0.43,0.03,0.43,0.03c0.57-0.08,6.57-4.29,7.61-5.03c1.04,0.15,2.11,0.22,3.2,0.22
		c9.94,0,18-6.35,18-14.19C68,39.74,59.94,33.39,50,33.39z M41.09,51.54c0,0.55-0.47,0.99-1.04,0.99s-1.04-0.44-1.04-0.99v-6.17
		h-1.62c-0.56,0-1.02-0.46-1.02-1.02c0-0.56,0.46-1.02,1.02-1.02h5.32c0.56,0,1.02,0.46,1.02,1.02c0,0.56-0.46,1.02-1.02,1.02h-1.62
		V51.54z M49.81,52.38c-0.21,0.09-0.43,0.14-0.66,0.14c-0.43,0-0.76-0.18-0.86-0.46l-0.51-1.35l-3.17,0l-0.51,1.35
		c-0.1,0.28-0.43,0.46-0.86,0.46c-0.23,0-0.45-0.05-0.66-0.14c-0.29-0.13-0.56-0.5-0.25-1.47l2.48-6.54
		c0.17-0.5,0.71-1.01,1.38-1.02c0.68,0.02,1.21,0.53,1.39,1.03l2.48,6.54C50.38,51.88,50.1,52.25,49.81,52.38z M55.06,52.38h-3.33
		c-0.55,0-1-0.43-1-0.95v-7.05c0-0.57,0.48-1.04,1.06-1.04s1.06,0.47,1.06,1.04v6.1h2.21c0.55,0,1,0.43,1,0.95
		C56.06,51.96,55.61,52.38,55.06,52.38z M62.79,52.29c-0.18,0.14-0.4,0.21-0.62,0.21c-0.33,0-0.63-0.15-0.83-0.41l-2.44-3.23
		l-0.36,0.36v2.27c0,0.57-0.47,1.04-1.04,1.04c-0.57,0-1.04-0.47-1.04-1.04v-7.1c0-0.57,0.47-1.04,1.04-1.04
		c0.57,0,1.04,0.47,1.04,1.04v2.23l2.9-2.9c0.15-0.15,0.35-0.23,0.58-0.23c0.26,0,0.52,0.11,0.71,0.31
		c0.18,0.18,0.29,0.42,0.31,0.66c0.02,0.24-0.07,0.47-0.23,0.63l-2.37,2.37l2.56,3.39c0.17,0.22,0.24,0.5,0.2,0.77
		C63.15,51.88,63.01,52.12,62.79,52.29z"/>
</g>
</svg>
