<?xml version="1.0" encoding="utf-8"?>
<!-- Generator: Adobe Illustrator 27.0.0, SVG Export Plug-In . SVG Version: 6.00 Build 0)  -->
<svg version="1.1" id="Layer_1" xmlns="http://www.w3.org/2000/svg" xmlns:xlink="http://www.w3.org/1999/xlink" x="0px" y="0px"
	 viewBox="0 0 386 305" style="enable-background:new 0 0 386 305;" xml:space="preserve">
<style type="text/css">
	.st0{fill:#B63736;}
	.st1{fill:#F65351;}
	.st2{fill:#570000;}
	.st3{fill:#422908;}
	.st4{fill:#DF2A2D;}
</style>
<g>
	<g>
		<g>
			<g>
				<path class="st0" d="M86.57,97.96c-0.39,2.02-2.4,3.33-4.47,2.93c-0.15-0.03-0.3-0.07-0.45-0.12c0.48,0.38,1.05,0.66,1.7,0.78
					c2.08,0.4,4.08-0.91,4.47-2.93c0.36-1.87-0.78-3.69-2.6-4.27C86.28,95.2,86.84,96.57,86.57,97.96z"/>
			</g>
			<path class="st1" d="M80.3,97.16c-0.27,1.39,0.3,2.76,1.35,3.61c0.15,0.05,0.29,0.09,0.45,0.12c2.08,0.4,4.08-0.91,4.47-2.93
				c0.27-1.39-0.3-2.76-1.35-3.61c-0.15-0.05-0.29-0.09-0.45-0.12C82.69,93.83,80.69,95.14,80.3,97.16z"/>
		</g>
		<g>
			<g>
				<path class="st0" d="M93.88,91.22c-0.62,3.2-3.99,5.24-7.53,4.55c-0.26-0.05-0.51-0.12-0.76-0.2c0.82,0.61,1.8,1.07,2.9,1.28
					c3.54,0.69,6.91-1.35,7.53-4.55c0.58-2.96-1.41-5.88-4.52-6.84C93.31,86.83,94.31,89.01,93.88,91.22z"/>
			</g>
			<path class="st1" d="M83.2,89.82c-0.43,2.21,0.56,4.39,2.38,5.76c0.25,0.08,0.5,0.14,0.76,0.2c3.54,0.69,6.91-1.35,7.53-4.55
				c0.43-2.21-0.56-4.39-2.38-5.76c-0.25-0.08-0.5-0.14-0.76-0.2C87.2,84.58,83.82,86.62,83.2,89.82z"/>
		</g>
		<g>
			<g>
				<path class="st0" d="M101.54,89.9c-0.59,3.03-3.39,5.04-6.25,4.48c-0.21-0.04-0.42-0.1-0.61-0.16c0.65,0.56,1.44,0.96,2.33,1.13
					c2.86,0.56,5.66-1.45,6.25-4.48c0.55-2.81-1-5.51-3.5-6.33C101.2,85.77,101.95,87.81,101.54,89.9z"/>
			</g>
			<path class="st1" d="M92.89,88.85c-0.41,2.09,0.35,4.12,1.79,5.37c0.2,0.07,0.4,0.12,0.61,0.16c2.86,0.56,5.66-1.45,6.25-4.48
				c0.41-2.09-0.35-4.12-1.79-5.37c-0.2-0.07-0.4-0.12-0.61-0.16C96.27,83.81,93.47,85.82,92.89,88.85z"/>
		</g>
		<g>
			<g>
				<path class="st0" d="M92.7,101.68c-0.39,2.02-2.53,3.31-4.78,2.87c-0.17-0.03-0.33-0.08-0.48-0.12
					c0.52,0.39,1.14,0.67,1.84,0.81c2.25,0.44,4.38-0.85,4.78-2.87c0.36-1.87-0.9-3.72-2.87-4.33
					C92.34,98.91,92.97,100.29,92.7,101.68z"/>
			</g>
			<path class="st1" d="M85.92,100.79c-0.27,1.39,0.36,2.77,1.52,3.64c0.16,0.05,0.32,0.09,0.48,0.12c2.25,0.44,4.38-0.85,4.78-2.87
				c0.27-1.39-0.36-2.77-1.52-3.64c-0.16-0.05-0.32-0.09-0.48-0.12C88.45,97.48,86.32,98.77,85.92,100.79z"/>
		</g>
		<g>
			<g>
				<path class="st0" d="M98.46,98.02c-0.43,2.19-2.86,3.56-5.45,3.06c-0.19-0.04-0.38-0.09-0.56-0.14c0.6,0.43,1.32,0.75,2.12,0.9
					c2.58,0.5,5.02-0.87,5.45-3.06c0.39-2.03-1.08-4.05-3.35-4.73C98.01,95,98.76,96.51,98.46,98.02z"/>
			</g>
			<path class="st1" d="M90.67,96.97c-0.29,1.51,0.45,3.02,1.78,3.97c0.18,0.05,0.37,0.1,0.56,0.14c2.58,0.5,5.02-0.87,5.45-3.06
				c0.29-1.51-0.45-3.02-1.78-3.97c-0.18-0.05-0.37-0.1-0.56-0.14C93.54,93.41,91.1,94.78,90.67,96.97z"/>
		</g>
		<path class="st2" d="M88.13,90.49c0.2-0.34,1.64,0.16,3.2,1.1c1.57,0.94,2.47,2.31,2.47,2.31s-1.64-0.16-3.2-1.1
			C89.03,91.86,87.92,90.82,88.13,90.49z"/>
		<path class="st2" d="M88.59,94.72c-0.05-0.39,0.95-0.85,2.24-1.03c1.29-0.18,2.44,0.37,2.44,0.37s-0.95,0.85-2.24,1.03
			C89.74,95.28,88.65,95.11,88.59,94.72z"/>
	</g>
	<path class="st3" d="M4.38,139.5c0,0,10-10,19-10s5-4,5-4s7,3,16-6s16-7,16-7s17-7,19-8s21-28,24-40c8-6,10-5,10-5s16-15,32-14
		c5-5,11-8,11-8l3,3c0,0-10,10-10,12c5,0,19,2,31,9c1,2-24,2-36-7c-3,1-27,5-37,10c-3,8-10,30-8,32c-2,2-9,15-9,15s6,1,8,4s1,6,1,6
		s33,55,27,80c3,1,27-8,35-24c5-5,10-1,10-1s11,3,12,0s18-2,18-2s16-28,19-26c0-5,11-33,11-33l-1,8l6-3l-6,8l-5,22c0,0-16,23-20,28
		c4,2,16,13,16,13l25-16l19-11c0,0,37,13,44,18c2,2-15-4-15-4s6,10,10,12c-9-1-19-15-19-15l-5-2l-14-3c0,0-40,32-45,34
		c-7-3-22-17-24-21c-3,2-21,6-34,0c-3,5-31,35-44,25c-4-5-1-27-7-35s-16-24-16-24l-16-21c0,0-18,8-26,4c-3,2-13,14-12,16s-9,3-9,3
		l-27,27l-1-24c0,0,7-1,9-7l-9,3L4.38,139.5z"/>
	<path class="st3" d="M117.38,211.5c0,0-1,7,3,7s19,16,16,16s6,0,6,0l9,2c0,0,11.62-0.32,20-2c5-1,12,2,18-1c5,0,17,7,24-1
		c-4-2-10-5-10-5s-11-4-17-2s-6,2-6,2s-14.35,3.55-22,1c-6-2-9-4-9-4l-9-4l-13-9l-4-1L117.38,211.5z"/>
	<path class="st3" d="M214.38,235.5l1,3c0,0,17,21,18,22s16,14,16,14s15,16,21,17c4,3,24,7,27,4c2-1,3,2,3,2s8,4,5-5c-4-6-7-6-7-6
		s0,0-2,3s-26,2-30-8c-6-7-22-18-25-20s-19-18-22-22S214.38,235.5,214.38,235.5z"/>
	<path class="st3" d="M304.38,281.5c0,0-3,5,3,6s11-14,11-14s14,0,19-2c6,1,34,2,45-1c5-3-37-2-44-2s-13,2-19,0
		S304.38,281.5,304.38,281.5z"/>
	<g>
		<g>
			<g>
				<path class="st0" d="M180.56,16.17c0-3.31,2.76-6,6.17-6c0.25,0,0.5,0.02,0.74,0.05c-0.87-0.45-1.86-0.71-2.92-0.71
					c-3.41,0-6.17,2.69-6.17,6c0,3.07,2.37,5.6,5.43,5.95C181.87,20.44,180.56,18.46,180.56,16.17z"/>
			</g>
			<path class="st1" d="M190.72,15.5c0-2.29-1.31-4.27-3.25-5.29c-0.24-0.03-0.49-0.05-0.74-0.05c-3.41,0-6.17,2.69-6.17,6
				c0,2.29,1.32,4.27,3.25,5.29c0.24,0.03,0.49,0.05,0.74,0.05C187.96,21.5,190.72,18.82,190.72,15.5z"/>
		</g>
		<g>
			<g>
				<path class="st0" d="M171.09,29.06c0-5.25,4.7-9.5,10.5-9.5c0.43,0,0.85,0.03,1.26,0.08c-1.48-0.72-3.17-1.13-4.97-1.13
					c-5.8,0-10.5,4.25-10.5,9.5c0,4.86,4.03,8.86,9.24,9.42C173.33,35.83,171.09,32.68,171.09,29.06z"/>
			</g>
			<path class="st1" d="M188.38,28c0-3.62-2.24-6.77-5.53-8.37c-0.41-0.05-0.83-0.08-1.26-0.08c-5.8,0-10.5,4.25-10.5,9.5
				c0,3.62,2.24,6.77,5.53,8.37c0.41,0.05,0.83,0.08,1.26,0.08C183.68,37.5,188.38,33.25,188.38,28z"/>
		</g>
		<g>
			<g>
				<path class="st0" d="M159.38,33.5c0-4.97,3.81-9,8.5-9c0.35,0,0.69,0.03,1.02,0.07c-1.2-0.68-2.57-1.07-4.02-1.07
					c-4.69,0-8.5,4.03-8.5,9c0,4.6,3.27,8.39,7.48,8.93C161.2,39.91,159.38,36.93,159.38,33.5z"/>
			</g>
			<path class="st1" d="M173.38,32.5c0-3.43-1.81-6.41-4.48-7.93c-0.34-0.04-0.68-0.07-1.02-0.07c-4.69,0-8.5,4.03-8.5,9
				c0,3.43,1.81,6.41,4.48,7.93c0.34,0.04,0.68,0.07,1.02,0.07C169.58,41.5,173.38,37.47,173.38,32.5z"/>
		</g>
		<g>
			<g>
				<path class="st0" d="M169.74,12.17c0-3.31,2.98-6,6.67-6c0.27,0,0.54,0.02,0.8,0.05c-0.94-0.45-2.01-0.71-3.15-0.71
					c-3.68,0-6.67,2.69-6.67,6c0,3.07,2.56,5.6,5.87,5.95C171.16,16.44,169.74,14.46,169.74,12.17z"/>
			</g>
			<path class="st1" d="M180.72,11.5c0-2.29-1.42-4.27-3.51-5.29c-0.26-0.03-0.53-0.05-0.8-0.05c-3.68,0-6.67,2.69-6.67,6
				c0,2.29,1.42,4.27,3.51,5.29c0.26,0.03,0.53,0.05,0.8,0.05C177.73,17.5,180.72,14.82,180.72,11.5z"/>
		</g>
		<g>
			<g>
				<path class="st0" d="M161.76,19.73c0-3.59,3.43-6.5,7.67-6.5c0.31,0,0.62,0.02,0.92,0.05c-1.08-0.49-2.32-0.77-3.63-0.77
					c-4.23,0-7.67,2.91-7.67,6.5c0,3.32,2.95,6.06,6.74,6.45C163.39,24.36,161.76,22.2,161.76,19.73z"/>
			</g>
			<path class="st1" d="M174.38,19c0-2.48-1.63-4.63-4.04-5.73c-0.3-0.03-0.61-0.05-0.92-0.05c-4.23,0-7.67,2.91-7.67,6.5
				c0,2.48,1.63,4.63,4.04,5.73c0.3,0.03,0.61,0.05,0.92,0.05C170.95,25.5,174.38,22.59,174.38,19z"/>
		</g>
		<path class="st2" d="M180.4,28.46c-0.22,0.59-2.63,0.26-5.4-0.75s-4.62-2.89-4.62-2.89s2.63-0.26,5.4,0.75
			S180.62,27.87,180.4,28.46z"/>
		<path class="st2" d="M178.36,21.91c0.21,0.6-1.24,1.63-3.23,2.32c-1.99,0.68-3.97,0.16-3.97,0.16s1.24-1.63,3.23-2.32
			C176.38,21.38,178.16,21.31,178.36,21.91z"/>
	</g>
	<g>
		<g>
			<g>
				<path class="st0" d="M119.07,69.76c0-2.06,1.72-3.73,3.83-3.73c0.16,0,0.31,0.01,0.46,0.03c-0.54-0.28-1.16-0.44-1.81-0.44
					c-2.12,0-3.83,1.67-3.83,3.73c0,1.91,1.47,3.48,3.37,3.7C119.89,72.42,119.07,71.18,119.07,69.76z"/>
			</g>
			<path class="st1" d="M125.38,69.35c0-1.42-0.82-2.66-2.02-3.28c-0.15-0.02-0.3-0.03-0.46-0.03c-2.12,0-3.83,1.67-3.83,3.73
				c0,1.42,0.82,2.66,2.02,3.28c0.15,0.02,0.3,0.03,0.46,0.03C123.67,73.08,125.38,71.41,125.38,69.35z"/>
		</g>
		<g>
			<g>
				<path class="st0" d="M113.19,77.77c0-3.26,2.92-5.9,6.52-5.9c0.27,0,0.53,0.02,0.78,0.05c-0.92-0.45-1.97-0.7-3.09-0.7
					c-3.6,0-6.52,2.64-6.52,5.9c0,3.02,2.51,5.51,5.74,5.86C114.58,81.98,113.19,80.02,113.19,77.77z"/>
			</g>
			<path class="st1" d="M123.93,77.12c0-2.25-1.39-4.2-3.44-5.2c-0.26-0.03-0.52-0.05-0.78-0.05c-3.6,0-6.52,2.64-6.52,5.9
				c0,2.25,1.39,4.2,3.44,5.2c0.26,0.03,0.52,0.05,0.78,0.05C121.01,83.02,123.93,80.38,123.93,77.12z"/>
		</g>
		<g>
			<g>
				<path class="st0" d="M105.91,80.53c0-3.09,2.36-5.59,5.28-5.59c0.22,0,0.43,0.02,0.64,0.04c-0.74-0.42-1.59-0.67-2.5-0.67
					c-2.92,0-5.28,2.5-5.28,5.59c0,2.86,2.03,5.22,4.65,5.55C107.04,84.52,105.91,82.66,105.91,80.53z"/>
			</g>
			<path class="st1" d="M114.61,79.91c0-2.13-1.13-3.98-2.78-4.93c-0.21-0.03-0.42-0.04-0.64-0.04c-2.92,0-5.28,2.5-5.28,5.59
				c0,2.13,1.13,3.98,2.78,4.93c0.21,0.03,0.42,0.04,0.64,0.04C112.25,85.5,114.61,83,114.61,79.91z"/>
		</g>
		<g>
			<g>
				<path class="st0" d="M112.35,67.28c0-2.06,1.85-3.73,4.14-3.73c0.17,0,0.33,0.01,0.5,0.03c-0.58-0.28-1.25-0.44-1.96-0.44
					c-2.29,0-4.14,1.67-4.14,3.73c0,1.91,1.59,3.48,3.64,3.7C113.23,69.93,112.35,68.7,112.35,67.28z"/>
			</g>
			<path class="st1" d="M119.17,66.86c0-1.42-0.88-2.66-2.18-3.28c-0.16-0.02-0.33-0.03-0.5-0.03c-2.29,0-4.14,1.67-4.14,3.73
				c0,1.42,0.88,2.66,2.18,3.28c0.16,0.02,0.33,0.03,0.5,0.03C117.31,70.59,119.17,68.92,119.17,66.86z"/>
		</g>
		<g>
			<g>
				<path class="st0" d="M107.39,71.97c0-2.23,2.13-4.04,4.76-4.04c0.19,0,0.38,0.01,0.57,0.03c-0.67-0.31-1.44-0.48-2.25-0.48
					c-2.63,0-4.76,1.81-4.76,4.04c0,2.07,1.83,3.77,4.19,4.01C108.4,74.85,107.39,73.51,107.39,71.97z"/>
			</g>
			<path class="st1" d="M115.23,71.52c0-1.54-1.02-2.88-2.51-3.56c-0.19-0.02-0.38-0.03-0.57-0.03c-2.63,0-4.76,1.81-4.76,4.04
				c0,1.54,1.02,2.88,2.51,3.56c0.19,0.02,0.38,0.03,0.57,0.03C113.1,75.56,115.23,73.75,115.23,71.52z"/>
		</g>
		<path class="st2" d="M118.97,77.4c-0.13,0.37-1.64,0.16-3.35-0.47s-2.87-1.8-2.87-1.8s1.64-0.16,3.35,0.47
			C117.82,76.22,119.11,77.03,118.97,77.4z"/>
		<path class="st2" d="M117.71,73.33c0.13,0.37-0.77,1.02-2.01,1.44c-1.24,0.43-2.47,0.1-2.47,0.1s0.77-1.02,2.01-1.44
			C116.48,73,117.58,72.96,117.71,73.33z"/>
	</g>
	<g>
		<g>
			<g>
				<path class="st0" d="M189.07,57.13c0-2.06,1.72-3.73,3.83-3.73c0.16,0,0.31,0.01,0.46,0.03c-0.54-0.28-1.16-0.44-1.81-0.44
					c-2.12,0-3.83,1.67-3.83,3.73c0,1.91,1.47,3.48,3.37,3.7C189.89,59.79,189.07,58.55,189.07,57.13z"/>
			</g>
			<path class="st1" d="M195.38,56.72c0-1.42-0.82-2.66-2.02-3.28c-0.15-0.02-0.3-0.03-0.46-0.03c-2.12,0-3.83,1.67-3.83,3.73
				c0,1.42,0.82,2.66,2.02,3.28c0.15,0.02,0.3,0.03,0.46,0.03C193.67,60.45,195.38,58.78,195.38,56.72z"/>
		</g>
		<g>
			<g>
				<path class="st0" d="M183.19,65.14c0-3.26,2.92-5.9,6.52-5.9c0.27,0,0.53,0.02,0.78,0.05c-0.92-0.45-1.97-0.7-3.09-0.7
					c-3.6,0-6.52,2.64-6.52,5.9c0,3.02,2.51,5.51,5.74,5.86C184.58,69.34,183.19,67.39,183.19,65.14z"/>
			</g>
			<path class="st1" d="M193.93,64.48c0-2.25-1.39-4.2-3.44-5.2c-0.26-0.03-0.52-0.05-0.78-0.05c-3.6,0-6.52,2.64-6.52,5.9
				c0,2.25,1.39,4.2,3.44,5.2c0.26,0.03,0.52,0.05,0.78,0.05C191.01,70.39,193.93,67.74,193.93,64.48z"/>
		</g>
		<g>
			<g>
				<path class="st0" d="M175.91,67.9c0-3.09,2.36-5.59,5.28-5.59c0.22,0,0.43,0.02,0.64,0.04c-0.74-0.42-1.59-0.67-2.5-0.67
					c-2.92,0-5.28,2.5-5.28,5.59c0,2.86,2.03,5.22,4.65,5.55C177.04,71.88,175.91,70.03,175.91,67.9z"/>
			</g>
			<path class="st1" d="M184.61,67.28c0-2.13-1.13-3.98-2.78-4.93c-0.21-0.03-0.42-0.04-0.64-0.04c-2.92,0-5.28,2.5-5.28,5.59
				c0,2.13,1.13,3.98,2.78,4.93c0.21,0.03,0.42,0.04,0.64,0.04C182.25,72.87,184.61,70.37,184.61,67.28z"/>
		</g>
		<g>
			<g>
				<path class="st0" d="M182.35,54.65c0-2.06,1.85-3.73,4.14-3.73c0.17,0,0.33,0.01,0.5,0.03c-0.58-0.28-1.25-0.44-1.96-0.44
					c-2.29,0-4.14,1.67-4.14,3.73c0,1.91,1.59,3.48,3.64,3.7C183.23,57.3,182.35,56.07,182.35,54.65z"/>
			</g>
			<path class="st1" d="M189.17,54.23c0-1.42-0.88-2.66-2.18-3.28c-0.16-0.02-0.33-0.03-0.5-0.03c-2.29,0-4.14,1.67-4.14,3.73
				c0,1.42,0.88,2.66,2.18,3.28c0.16,0.02,0.33,0.03,0.5,0.03C187.31,57.96,189.17,56.29,189.17,54.23z"/>
		</g>
		<g>
			<g>
				<path class="st0" d="M177.39,59.34c0-2.23,2.13-4.04,4.76-4.04c0.19,0,0.38,0.01,0.57,0.03c-0.67-0.31-1.44-0.48-2.25-0.48
					c-2.63,0-4.76,1.81-4.76,4.04c0,2.07,1.83,3.77,4.19,4.01C178.4,62.22,177.39,60.88,177.39,59.34z"/>
			</g>
			<path class="st1" d="M185.23,58.89c0-1.54-1.02-2.88-2.51-3.56c-0.19-0.02-0.38-0.03-0.57-0.03c-2.63,0-4.76,1.81-4.76,4.04
				c0,1.54,1.02,2.88,2.51,3.56c0.19,0.02,0.38,0.03,0.57,0.03C183.1,62.93,185.23,61.12,185.23,58.89z"/>
		</g>
		<path class="st2" d="M188.97,64.77c-0.13,0.37-1.64,0.16-3.35-0.47c-1.72-0.63-2.87-1.8-2.87-1.8s1.64-0.16,3.35,0.47
			C187.82,63.59,189.11,64.4,188.97,64.77z"/>
		<path class="st2" d="M187.71,60.7c0.13,0.37-0.77,1.02-2.01,1.44c-1.24,0.43-2.47,0.1-2.47,0.1s0.77-1.02,2.01-1.44
			C186.48,60.37,187.58,60.33,187.71,60.7z"/>
	</g>
	<g>
		<g>
			<g>
				<path class="st0" d="M222.29,119.55c-1.67,1.21-4.02,0.8-5.27-0.91c-0.09-0.13-0.17-0.26-0.25-0.39c0.09,0.6,0.32,1.2,0.71,1.73
					c1.24,1.71,3.6,2.12,5.27,0.91c1.54-1.12,1.95-3.23,1.01-4.9C223.96,117.33,223.44,118.72,222.29,119.55z"/>
			</g>
			<path class="st1" d="M218.24,114.69c-1.15,0.84-1.67,2.22-1.47,3.56c0.07,0.13,0.16,0.26,0.25,0.39c1.24,1.71,3.6,2.12,5.27,0.91
				c1.15-0.84,1.67-2.22,1.47-3.56c-0.07-0.13-0.16-0.26-0.25-0.39C222.27,113.89,219.91,113.48,218.24,114.69z"/>
		</g>
		<g>
			<g>
				<path class="st0" d="M232.23,119.61c-2.64,1.92-6.49,1.11-8.61-1.81c-0.16-0.22-0.29-0.44-0.42-0.66
					c0.18,1.01,0.59,2.01,1.25,2.91c2.12,2.92,5.97,3.72,8.61,1.81c2.44-1.77,2.98-5.26,1.36-8.09
					C234.81,116.01,234.05,118.28,232.23,119.61z"/>
			</g>
			<path class="st1" d="M225.38,111.3c-1.82,1.32-2.58,3.6-2.19,5.84c0.13,0.22,0.27,0.45,0.42,0.66c2.12,2.92,5.97,3.72,8.61,1.81
				c1.82-1.32,2.58-3.6,2.19-5.84c-0.13-0.22-0.27-0.45-0.42-0.66C231.87,110.19,228.02,109.38,225.38,111.3z"/>
		</g>
		<g>
			<g>
				<path class="st0" d="M238.74,123.87c-2.5,1.82-5.91,1.37-7.63-0.99c-0.13-0.17-0.24-0.36-0.34-0.54
					c0.09,0.85,0.4,1.68,0.93,2.41c1.71,2.36,5.13,2.8,7.63,0.99c2.31-1.68,3.03-4.71,1.76-7.02
					C241.3,120.62,240.46,122.62,238.74,123.87z"/>
			</g>
			<path class="st1" d="M233.12,117.2c-1.72,1.25-2.56,3.25-2.35,5.15c0.1,0.18,0.21,0.37,0.34,0.54c1.71,2.36,5.13,2.8,7.63,0.99
				c1.72-1.25,2.56-3.25,2.35-5.15c-0.1-0.18-0.21-0.37-0.34-0.54C239.04,115.82,235.62,115.38,233.12,117.2z"/>
		</g>
		<g>
			<g>
				<path class="st0" d="M224.23,126.46c-1.67,1.21-4.11,0.69-5.45-1.16c-0.1-0.14-0.19-0.28-0.27-0.42
					c0.11,0.64,0.38,1.27,0.79,1.85c1.34,1.85,3.79,2.37,5.45,1.16c1.54-1.12,1.88-3.33,0.85-5.12
					C225.86,124.18,225.38,125.62,224.23,126.46z"/>
			</g>
			<path class="st1" d="M219.89,121.18c-1.15,0.84-1.63,2.28-1.37,3.7c0.08,0.14,0.17,0.28,0.27,0.42c1.34,1.85,3.79,2.37,5.45,1.16
				c1.15-0.84,1.63-2.28,1.37-3.7c-0.08-0.14-0.17-0.28-0.27-0.42C223.99,120.49,221.55,119.97,219.89,121.18z"/>
		</g>
		<g>
			<g>
				<path class="st0" d="M230.94,127.71c-1.8,1.31-4.52,0.65-6.07-1.48c-0.11-0.16-0.22-0.32-0.31-0.48
					c0.15,0.72,0.46,1.45,0.94,2.11c1.55,2.13,4.26,2.79,6.07,1.48c1.67-1.21,1.97-3.69,0.78-5.75
					C232.67,125.19,232.19,126.8,230.94,127.71z"/>
			</g>
			<path class="st1" d="M225.97,121.62c-1.25,0.9-1.73,2.51-1.4,4.12c0.1,0.16,0.2,0.33,0.31,0.48c1.55,2.13,4.26,2.79,6.07,1.48
				c1.25-0.9,1.73-2.51,1.4-4.12c-0.1-0.16-0.2-0.33-0.31-0.48C230.49,120.98,227.77,120.31,225.97,121.62z"/>
		</g>
		<path class="st2" d="M228.52,115.15c0.38-0.11,1.09,1.23,1.59,2.99c0.5,1.76,0.23,3.38,0.23,3.38s-1.09-1.23-1.59-2.99
			C228.25,116.77,228.15,115.25,228.52,115.15z"/>
		<path class="st2" d="M225.98,118.56c0.22-0.32,1.27,0.03,2.34,0.78s1.53,1.94,1.53,1.94s-1.27-0.03-2.34-0.78
			S225.75,118.88,225.98,118.56z"/>
	</g>
	<g>
		<g>
			<g>
				<path class="st0" d="M254.32,280.23c-2.05,0.14-3.84-1.45-3.99-3.56c-0.01-0.16-0.01-0.31,0-0.46
					c-0.24,0.56-0.36,1.19-0.32,1.84c0.15,2.11,1.93,3.71,3.99,3.56c1.9-0.13,3.37-1.71,3.45-3.62
					C256.91,279.23,255.73,280.13,254.32,280.23z"/>
			</g>
			<path class="st1" d="M253.46,273.96c-1.42,0.1-2.59,1-3.14,2.24c-0.01,0.15-0.01,0.31,0,0.46c0.15,2.11,1.93,3.71,3.99,3.56
				c1.42-0.1,2.59-1,3.14-2.24c0.01-0.15,0.01-0.31,0-0.46C257.3,275.41,255.52,273.82,253.46,273.96z"/>
		</g>
		<g>
			<g>
				<path class="st0" d="M262.72,285.54c-3.25,0.23-6.09-2.5-6.34-6.1c-0.02-0.27-0.02-0.53-0.01-0.79
					c-0.38,0.95-0.56,2.01-0.49,3.13c0.25,3.59,3.09,6.32,6.34,6.1c3.01-0.21,5.32-2.89,5.44-6.13
					C266.81,283.86,264.96,285.38,262.72,285.54z"/>
			</g>
			<path class="st1" d="M261.31,274.87c-2.24,0.16-4.1,1.68-4.95,3.79c-0.01,0.26-0.01,0.52,0.01,0.79c0.25,3.59,3.09,6.32,6.34,6.1
				c2.24-0.16,4.1-1.68,4.95-3.79c0.01-0.26,0.01-0.52-0.01-0.79C267.41,277.37,264.57,274.64,261.31,274.87z"/>
		</g>
		<g>
			<g>
				<path class="st0" d="M265.98,292.6c-3.08,0.22-5.74-1.97-5.95-4.88c-0.02-0.21-0.01-0.43,0-0.64c-0.37,0.77-0.55,1.64-0.49,2.54
					c0.2,2.91,2.87,5.09,5.95,4.88c2.85-0.2,5.06-2.39,5.21-5.02C269.87,291.2,268.11,292.46,265.98,292.6z"/>
			</g>
			<path class="st1" d="M264.75,283.97c-2.13,0.15-3.89,1.4-4.72,3.12c-0.01,0.21-0.01,0.42,0,0.64c0.2,2.91,2.87,5.09,5.95,4.88
				c2.13-0.15,3.89-1.4,4.72-3.12c0.01-0.21,0.01-0.42,0-0.64C270.5,285.94,267.83,283.75,264.75,283.97z"/>
		</g>
		<g>
			<g>
				<path class="st0" d="M252.31,287.11c-2.05,0.14-3.85-1.59-4.01-3.87c-0.01-0.17-0.01-0.33-0.01-0.5
					c-0.24,0.6-0.36,1.28-0.31,1.99c0.16,2.28,1.95,4.02,4.01,3.87c1.9-0.13,3.36-1.83,3.44-3.89
					C254.89,286.05,253.72,287.01,252.31,287.11z"/>
			</g>
			<path class="st1" d="M251.42,280.33c-1.42,0.1-2.59,1.07-3.12,2.41c-0.01,0.16-0.01,0.33,0.01,0.5c0.16,2.28,1.95,4.02,4.01,3.87
				c1.42-0.1,2.59-1.07,3.12-2.41c0.01-0.16,0.01-0.33-0.01-0.5C255.27,281.92,253.47,280.19,251.42,280.33z"/>
		</g>
		<g>
			<g>
				<path class="st0" d="M257.34,291.73c-2.23,0.16-4.18-1.85-4.36-4.47c-0.01-0.19-0.01-0.38-0.01-0.57
					c-0.26,0.69-0.38,1.47-0.32,2.28c0.18,2.62,2.14,4.63,4.36,4.47c2.06-0.14,3.63-2.09,3.7-4.46
					C260.14,290.52,258.87,291.62,257.34,291.73z"/>
			</g>
			<path class="st1" d="M256.34,283.94c-1.54,0.11-2.8,1.21-3.37,2.75c-0.01,0.19-0.01,0.38,0.01,0.57
				c0.18,2.62,2.14,4.63,4.36,4.47c1.54-0.11,2.8-1.21,3.37-2.75c0.01-0.19,0.01-0.38-0.01-0.57
				C260.52,285.78,258.57,283.78,256.34,283.94z"/>
		</g>
		<path class="st2" d="M261.94,279.8c0.38,0.11,0.27,1.62-0.23,3.38c-0.5,1.76-1.59,2.99-1.59,2.99s-0.27-1.62,0.23-3.38
			C260.85,281.03,261.56,279.69,261.94,279.8z"/>
		<path class="st2" d="M257.97,281.34c0.36-0.15,1.07,0.7,1.58,1.9c0.51,1.2,0.27,2.45,0.27,2.45s-1.07-0.7-1.58-1.9
			C257.73,282.59,257.61,281.49,257.97,281.34z"/>
	</g>
	<g>
		<g>
			<g>
				<path class="st0" d="M84.49,148.89c2.34,2.34,2.29,6.19-0.12,8.6c-0.18,0.18-0.37,0.34-0.56,0.49c0.94-0.29,1.82-0.81,2.57-1.56
					c2.41-2.41,2.46-6.26,0.12-8.6c-2.17-2.17-5.63-2.28-8.05-0.37C80.54,146.8,82.87,147.27,84.49,148.89z"/>
			</g>
			<path class="st1" d="M77.78,156.54c1.62,1.62,3.95,2.09,6.03,1.44c0.19-0.15,0.38-0.31,0.56-0.49c2.41-2.41,2.46-6.26,0.12-8.6
				c-1.62-1.62-3.95-2.09-6.03-1.44c-0.19,0.15-0.38,0.31-0.56,0.49C75.49,150.35,75.44,154.2,77.78,156.54z"/>
		</g>
		<g>
			<g>
				<path class="st0" d="M82.07,133.08c3.71,3.71,3.39,10.04-0.71,14.14c-0.3,0.3-0.62,0.58-0.95,0.84
					c1.56-0.54,3.04-1.44,4.31-2.71c4.1-4.1,4.42-10.43,0.71-14.14c-3.44-3.44-9.12-3.41-13.2-0.13
					C75.71,129.88,79.51,130.52,82.07,133.08z"/>
			</g>
			<path class="st1" d="M70.59,146.05c2.56,2.56,6.37,3.2,9.83,2.01c0.33-0.26,0.64-0.54,0.95-0.84c4.1-4.1,4.42-10.43,0.71-14.14
				c-2.56-2.56-6.37-3.2-9.83-2.01c-0.33,0.26-0.64,0.54-0.95,0.84C67.2,136.01,66.88,142.34,70.59,146.05z"/>
		</g>
		<g>
			<g>
				<path class="st0" d="M87.21,121.66c3.51,3.51,3.67,9.05,0.35,12.37c-0.25,0.25-0.51,0.47-0.77,0.67
					c1.33-0.36,2.57-1.06,3.6-2.09c3.32-3.32,3.16-8.86-0.35-12.37c-3.26-3.26-8.24-3.63-11.6-1.03
					C81.39,118.41,84.78,119.23,87.21,121.66z"/>
			</g>
			<path class="st1" d="M78.02,132.26c2.43,2.43,5.81,3.25,8.77,2.44c0.27-0.21,0.53-0.43,0.77-0.67c3.32-3.32,3.16-8.86-0.35-12.37
				c-2.43-2.43-5.81-3.25-8.77-2.44c-0.27,0.21-0.53,0.43-0.77,0.67C74.34,123.21,74.5,128.75,78.02,132.26z"/>
		</g>
		<g>
			<g>
				<path class="st0" d="M94.97,144.06c2.34,2.34,2.13,6.35-0.47,8.96c-0.19,0.19-0.39,0.37-0.6,0.53c0.99-0.34,1.93-0.92,2.74-1.73
					c2.6-2.6,2.81-6.61,0.47-8.96c-2.17-2.17-5.77-2.15-8.36-0.06C90.95,142.05,93.36,142.45,94.97,144.06z"/>
			</g>
			<path class="st1" d="M87.68,152.3c1.62,1.62,4.03,2.02,6.22,1.25c0.21-0.17,0.41-0.34,0.6-0.53c2.6-2.6,2.81-6.61,0.47-8.96
				c-1.62-1.62-4.03-2.02-6.22-1.25c-0.21,0.17-0.41,0.34-0.6,0.53C85.55,145.95,85.34,149.96,87.68,152.3z"/>
		</g>
		<g>
			<g>
				<path class="st0" d="M95.27,133.08c2.54,2.54,2.17,7.02-0.82,10.02c-0.22,0.22-0.45,0.42-0.69,0.62
					c1.11-0.42,2.18-1.09,3.11-2.02c2.99-2.99,3.36-7.48,0.82-10.02c-2.35-2.35-6.37-2.2-9.33,0.21
					C90.84,130.96,93.52,131.33,95.27,133.08z"/>
			</g>
			<path class="st1" d="M86.85,142.52c1.75,1.75,4.43,2.12,6.91,1.19c0.24-0.19,0.47-0.39,0.69-0.62c2.99-2.99,3.36-7.48,0.82-10.02
				c-1.75-1.75-4.43-2.12-6.91-1.19c-0.24,0.19-0.47,0.39-0.69,0.62C84.69,135.49,84.32,139.98,86.85,142.52z"/>
		</g>
		<path class="st2" d="M75.92,140.09c-0.27-0.57,1.68-2.04,4.35-3.29c2.67-1.24,5.31-1.22,5.31-1.22s-1.68,2.04-4.35,3.29
			S76.18,140.66,75.92,140.09z"/>
		<path class="st2" d="M81.99,143.28c-0.57-0.28-0.28-2.03,0.64-3.92s2.69-2.92,2.69-2.92s0.28,2.03-0.64,3.92
			S82.55,143.55,81.99,143.28z"/>
	</g>
	<g>
		<g>
			<g>
				<path class="st0" d="M229.26,239.21c-3.25-0.63-5.36-3.86-4.71-7.2c0.05-0.25,0.11-0.49,0.19-0.72
					c-0.61,0.77-1.06,1.69-1.26,2.73c-0.65,3.34,1.46,6.57,4.71,7.2c3.01,0.59,5.94-1.26,6.88-4.19
					C233.7,238.73,231.5,239.64,229.26,239.21z"/>
			</g>
			<path class="st1" d="M230.54,229.11c-2.24-0.44-4.45,0.48-5.81,2.18c-0.07,0.23-0.14,0.47-0.19,0.72
				c-0.65,3.34,1.46,6.57,4.71,7.2c2.24,0.44,4.45-0.48,5.81-2.18c0.07-0.23,0.14-0.47,0.19-0.72
				C235.91,232.96,233.8,229.74,230.54,229.11z"/>
		</g>
		<g>
			<g>
				<path class="st0" d="M240.1,250.96c-5.15-1-8.43-6.43-7.32-12.12c0.08-0.42,0.19-0.83,0.31-1.22c-0.99,1.31-1.71,2.9-2.06,4.66
					c-1.11,5.69,2.17,11.12,7.32,12.12c4.77,0.93,9.47-2.27,11.01-7.27C247.17,250.06,243.66,251.65,240.1,250.96z"/>
			</g>
			<path class="st1" d="M242.37,233.78c-3.55-0.69-7.07,0.91-9.27,3.83c-0.12,0.4-0.23,0.8-0.31,1.22
				c-1.11,5.69,2.17,11.12,7.32,12.12c3.55,0.69,7.07-0.91,9.27-3.83c0.12-0.4,0.23-0.8,0.31-1.22
				C250.8,240.21,247.52,234.79,242.37,233.78z"/>
		</g>
		<g>
			<g>
				<path class="st0" d="M242.23,263.3c-4.88-0.95-8.11-5.45-7.21-10.06c0.07-0.34,0.16-0.67,0.26-0.99
					c-0.9,1.05-1.54,2.32-1.82,3.74c-0.9,4.61,2.33,9.11,7.21,10.06c4.52,0.88,8.86-1.6,10.19-5.64
					C248.87,262.75,245.6,263.96,242.23,263.3z"/>
			</g>
			<path class="st1" d="M243.92,249.37c-3.37-0.65-6.64,0.56-8.64,2.88c-0.11,0.32-0.2,0.65-0.26,0.99
				c-0.9,4.61,2.33,9.11,7.21,10.06c3.37,0.65,6.64-0.56,8.64-2.88c0.11-0.32,0.2-0.65,0.26-0.99
				C252.03,254.82,248.8,250.32,243.92,249.37z"/>
		</g>
		<g>
			<g>
				<path class="st0" d="M223.27,249.07c-3.25-0.63-5.32-4.07-4.62-7.69c0.05-0.27,0.12-0.52,0.2-0.78
					c-0.63,0.84-1.09,1.84-1.3,2.96c-0.7,3.61,1.36,7.06,4.62,7.69c3.01,0.59,5.98-1.45,6.96-4.62
					C227.73,248.49,225.51,249.5,223.27,249.07z"/>
			</g>
			<path class="st1" d="M224.71,238.16c-2.24-0.44-4.47,0.58-5.86,2.44c-0.08,0.25-0.15,0.51-0.2,0.78
				c-0.7,3.61,1.36,7.06,4.62,7.69c2.24,0.44,4.47-0.58,5.86-2.44c0.08-0.25,0.15-0.51,0.2-0.78
				C230.03,242.24,227.96,238.79,224.71,238.16z"/>
		</g>
		<g>
			<g>
				<path class="st0" d="M229.16,258.34c-3.52-0.68-5.73-4.61-4.92-8.77c0.06-0.31,0.14-0.6,0.23-0.9c-0.69,0.97-1.2,2.12-1.45,3.41
					c-0.81,4.16,1.39,8.08,4.92,8.77c3.26,0.63,6.51-1.74,7.62-5.39C234.02,257.62,231.59,258.82,229.16,258.34z"/>
			</g>
			<path class="st1" d="M230.86,245.81c-2.43-0.47-4.86,0.72-6.39,2.87c-0.09,0.29-0.17,0.59-0.23,0.9
				c-0.81,4.16,1.39,8.08,4.92,8.77c2.43,0.47,4.86-0.72,6.39-2.87c0.09-0.29,0.17-0.59,0.23-0.9
				C236.59,250.42,234.39,246.5,230.86,245.81z"/>
		</g>
		<path class="st2" d="M241.29,241.71c0.54,0.32-0.25,2.63-1.77,5.16c-1.52,2.52-3.72,3.98-3.72,3.98s0.25-2.63,1.77-5.16
			C239.08,243.17,240.75,241.38,241.29,241.71z"/>
		<path class="st2" d="M234.47,242.46c0.62-0.09,1.37,1.53,1.66,3.61c0.29,2.08-0.6,3.93-0.6,3.93s-1.37-1.53-1.66-3.61
			C233.58,244.3,233.85,242.54,234.47,242.46z"/>
	</g>
	<g>
		<g>
			<g>
				<path class="st0" d="M303.23,272.52c-0.34,2.97-2.95,5.07-5.82,4.69c-0.21-0.03-0.42-0.07-0.62-0.12
					c0.69,0.5,1.5,0.84,2.39,0.96c2.87,0.37,5.48-1.73,5.82-4.69c0.32-2.75-1.42-5.27-3.96-5.93
					C302.57,268.55,303.47,270.47,303.23,272.52z"/>
			</g>
			<path class="st1" d="M294.6,272c-0.24,2.05,0.67,3.97,2.19,5.09c0.2,0.05,0.41,0.1,0.62,0.12c2.87,0.37,5.48-1.73,5.82-4.69
				c0.24-2.05-0.67-3.97-2.19-5.09c-0.2-0.05-0.41-0.1-0.62-0.12C297.55,266.93,294.94,269.03,294.6,272z"/>
		</g>
		<g>
			<g>
				<path class="st0" d="M312.56,262.02c-0.54,4.7-4.95,7.99-9.84,7.35c-0.36-0.05-0.71-0.12-1.06-0.21
					c1.17,0.81,2.56,1.36,4.07,1.56c4.89,0.64,9.3-2.65,9.84-7.35c0.5-4.35-2.49-8.38-6.82-9.46
					C311.37,255.71,312.93,258.78,312.56,262.02z"/>
			</g>
			<path class="st1" d="M297.86,261.06c-0.38,3.24,1.19,6.3,3.8,8.1c0.35,0.09,0.7,0.16,1.06,0.21c4.89,0.64,9.3-2.65,9.84-7.35
				c0.37-3.24-1.19-6.3-3.8-8.1c-0.35-0.09-0.7-0.16-1.06-0.21C302.81,253.07,298.4,256.37,297.86,261.06z"/>
		</g>
		<g>
			<g>
				<path class="st0" d="M322.89,259.33c-0.51,4.45-4.14,7.64-8.1,7.12c-0.29-0.04-0.58-0.1-0.85-0.18c0.94,0.74,2.05,1.24,3.28,1.4
					c3.96,0.52,7.59-2.67,8.1-7.12c0.48-4.12-1.89-7.88-5.38-8.82C322.03,253.39,323.25,256.26,322.89,259.33z"/>
			</g>
			<path class="st1" d="M310.98,258.68c-0.36,3.07,0.87,5.94,2.96,7.59c0.28,0.08,0.56,0.14,0.85,0.18c3.96,0.52,7.59-2.67,8.1-7.12
				c0.36-3.07-0.87-5.94-2.96-7.59c-0.28-0.08-0.56-0.14-0.85-0.18C315.12,251.04,311.5,254.23,310.98,258.68z"/>
		</g>
		<g>
			<g>
				<path class="st0" d="M311.95,277.29c-0.34,2.97-3.14,5.04-6.25,4.64c-0.23-0.03-0.45-0.08-0.67-0.13
					c0.75,0.51,1.62,0.86,2.59,0.99c3.11,0.4,5.9-1.67,6.25-4.64c0.32-2.75-1.58-5.29-4.33-5.98
					C311.19,273.31,312.19,275.24,311.95,277.29z"/>
			</g>
			<path class="st1" d="M302.62,276.68c-0.24,2.05,0.76,3.98,2.42,5.12c0.22,0.05,0.44,0.1,0.67,0.13c3.11,0.4,5.9-1.67,6.25-4.64
				c0.24-2.05-0.76-3.98-2.42-5.12c-0.22-0.05-0.44-0.1-0.67-0.13C305.76,271.64,302.96,273.71,302.62,276.68z"/>
		</g>
		<g>
			<g>
				<path class="st0" d="M319.47,271.4c-0.37,3.21-3.57,5.44-7.14,4.98c-0.26-0.03-0.52-0.09-0.77-0.15
					c0.86,0.56,1.87,0.95,2.98,1.09c3.57,0.47,6.77-1.76,7.14-4.98c0.34-2.98-1.86-5.75-5.02-6.52
					C318.57,267.08,319.72,269.19,319.47,271.4z"/>
			</g>
			<path class="st1" d="M308.74,270.66c-0.26,2.22,0.9,4.33,2.81,5.57c0.25,0.06,0.51,0.11,0.77,0.15c3.57,0.47,6.77-1.76,7.14-4.98
				c0.26-2.22-0.9-4.33-2.81-5.57c-0.25-0.06-0.51-0.11-0.77-0.15C312.31,265.22,309.11,267.45,308.74,270.66z"/>
		</g>
		<path class="st2" d="M304.64,261.53c0.24-0.51,2.25,0.06,4.48,1.27c2.23,1.21,3.6,3.1,3.6,3.1s-2.25-0.06-4.48-1.27
			C306.01,263.43,304.4,262.04,304.64,261.53z"/>
		<path class="st2" d="M305.68,267.62c-0.11-0.56,1.22-1.33,2.96-1.72s3.37,0.29,3.37,0.29s-1.22,1.33-2.96,1.72
			S305.79,268.18,305.68,267.62z"/>
	</g>
	<g>
		<g>
			<g>
				<path class="st0" d="M353.93,281.28c-0.3,2.65-2.57,4.53-5.07,4.2c-0.18-0.02-0.36-0.06-0.54-0.11c0.6,0.45,1.3,0.75,2.08,0.86
					c2.5,0.33,4.77-1.54,5.07-4.2c0.28-2.46-1.24-4.71-3.45-5.3C353.35,277.74,354.14,279.45,353.93,281.28z"/>
			</g>
			<path class="st1" d="M346.42,280.82c-0.21,1.83,0.58,3.55,1.91,4.55c0.18,0.05,0.36,0.09,0.54,0.11c2.5,0.33,4.77-1.54,5.07-4.2
				c0.21-1.83-0.58-3.55-1.91-4.55c-0.18-0.05-0.36-0.09-0.54-0.11C348.98,276.29,346.71,278.17,346.42,280.82z"/>
		</g>
		<g>
			<g>
				<path class="st0" d="M362.05,271.9c-0.47,4.2-4.31,7.14-8.56,6.57c-0.31-0.04-0.62-0.11-0.92-0.18
					c1.02,0.72,2.23,1.22,3.55,1.39c4.26,0.57,8.09-2.37,8.56-6.57c0.44-3.89-2.16-7.49-5.93-8.45
					C361.01,266.27,362.37,269,362.05,271.9z"/>
			</g>
			<path class="st1" d="M349.26,271.05c-0.33,2.9,1.03,5.63,3.31,7.24c0.3,0.08,0.61,0.14,0.92,0.18c4.26,0.57,8.09-2.37,8.56-6.57
				c0.33-2.9-1.03-5.63-3.31-7.24c-0.3-0.08-0.61-0.14-0.92-0.18C353.56,263.91,349.73,266.85,349.26,271.05z"/>
		</g>
		<g>
			<g>
				<path class="st0" d="M371.04,269.49c-0.45,3.98-3.61,6.83-7.05,6.37c-0.25-0.03-0.5-0.09-0.74-0.16
					c0.82,0.66,1.79,1.11,2.86,1.25c3.45,0.46,6.6-2.39,7.05-6.37c0.41-3.68-1.64-7.04-4.69-7.88
					C370.29,264.19,371.35,266.75,371.04,269.49z"/>
			</g>
			<path class="st1" d="M360.67,268.92c-0.31,2.74,0.75,5.31,2.57,6.78c0.24,0.07,0.49,0.12,0.74,0.16c3.45,0.46,6.6-2.39,7.05-6.37
				c0.31-2.74-0.75-5.31-2.57-6.78c-0.24-0.07-0.49-0.12-0.74-0.16C364.28,262.09,361.12,264.94,360.67,268.92z"/>
		</g>
		<g>
			<g>
				<path class="st0" d="M361.52,285.55c-0.3,2.65-2.73,4.51-5.44,4.15c-0.2-0.03-0.39-0.07-0.58-0.12
					c0.65,0.46,1.41,0.77,2.25,0.88c2.7,0.36,5.14-1.49,5.44-4.15c0.28-2.46-1.38-4.73-3.77-5.34
					C360.86,281.99,361.72,283.72,361.52,285.55z"/>
			</g>
			<path class="st1" d="M353.4,285c-0.21,1.83,0.66,3.56,2.1,4.57c0.19,0.05,0.38,0.09,0.58,0.12c2.7,0.36,5.14-1.49,5.44-4.15
				c0.21-1.83-0.66-3.56-2.1-4.57c-0.19-0.05-0.38-0.09-0.58-0.12C356.13,280.49,353.7,282.35,353.4,285z"/>
		</g>
		<g>
			<g>
				<path class="st0" d="M368.06,280.29c-0.32,2.87-3.11,4.86-6.21,4.45c-0.23-0.03-0.45-0.08-0.67-0.13
					c0.75,0.5,1.63,0.85,2.59,0.98c3.11,0.42,5.89-1.58,6.21-4.45c0.3-2.66-1.62-5.14-4.37-5.82
					C367.27,276.42,368.28,278.3,368.06,280.29z"/>
			</g>
			<path class="st1" d="M358.72,279.62c-0.22,1.98,0.78,3.86,2.45,4.98c0.22,0.05,0.44,0.1,0.67,0.13c3.11,0.42,5.89-1.58,6.21-4.45
				c0.22-1.98-0.78-3.86-2.45-4.98c-0.22-0.05-0.44-0.1-0.67-0.13C361.83,274.76,359.05,276.75,358.72,279.62z"/>
		</g>
		<path class="st2" d="M355.16,271.47c0.21-0.45,1.96,0.05,3.9,1.13c1.94,1.08,3.13,2.77,3.13,2.77s-1.96-0.05-3.9-1.13
			S354.95,271.92,355.16,271.47z"/>
		<path class="st2" d="M356.06,276.91c-0.1-0.5,1.06-1.19,2.58-1.54c1.52-0.35,2.93,0.26,2.93,0.26s-1.06,1.19-2.58,1.54
			C357.47,277.52,356.16,277.41,356.06,276.91z"/>
	</g>
	<g>
		<g>
			<g>
				<path class="st0" d="M255.23,158.71c-3.25-0.63-5.36-3.86-4.71-7.2c0.05-0.25,0.11-0.49,0.19-0.72
					c-0.61,0.77-1.06,1.69-1.26,2.73c-0.65,3.34,1.46,6.57,4.71,7.2c3.01,0.59,5.94-1.26,6.88-4.19
					C259.68,158.23,257.48,159.15,255.23,158.71z"/>
			</g>
			<path class="st1" d="M256.52,148.61c-2.24-0.44-4.45,0.48-5.81,2.18c-0.07,0.23-0.14,0.47-0.19,0.72
				c-0.65,3.34,1.46,6.57,4.71,7.2c2.24,0.44,4.45-0.48,5.81-2.18c0.07-0.23,0.14-0.47,0.19-0.72
				C261.88,152.47,259.77,149.24,256.52,148.61z"/>
		</g>
		<g>
			<g>
				<path class="st0" d="M266.08,170.47c-5.15-1-8.43-6.43-7.32-12.12c0.08-0.42,0.19-0.83,0.31-1.22c-0.99,1.31-1.71,2.9-2.06,4.66
					c-1.11,5.69,2.17,11.12,7.32,12.12c4.77,0.93,9.47-2.27,11.01-7.27C273.15,169.56,269.63,171.16,266.08,170.47z"/>
			</g>
			<path class="st1" d="M268.34,153.29c-3.55-0.69-7.07,0.91-9.27,3.83c-0.12,0.4-0.23,0.8-0.31,1.22
				c-1.11,5.69,2.17,11.12,7.32,12.12c3.55,0.69,7.07-0.91,9.27-3.83c0.12-0.4,0.23-0.8,0.31-1.22
				C276.77,159.71,273.49,154.29,268.34,153.29z"/>
		</g>
		<g>
			<g>
				<path class="st0" d="M268.21,182.8c-4.88-0.95-8.11-5.45-7.21-10.06c0.07-0.34,0.16-0.67,0.26-0.99
					c-0.9,1.05-1.54,2.32-1.82,3.74c-0.9,4.61,2.33,9.11,7.21,10.06c4.52,0.88,8.86-1.6,10.19-5.64
					C274.85,182.25,271.57,183.46,268.21,182.8z"/>
			</g>
			<path class="st1" d="M269.9,168.87c-3.37-0.65-6.64,0.56-8.64,2.88c-0.11,0.32-0.2,0.65-0.26,0.99
				c-0.9,4.61,2.33,9.11,7.21,10.06c3.37,0.65,6.64-0.56,8.64-2.88c0.11-0.32,0.2-0.65,0.26-0.99
				C278.01,174.32,274.78,169.82,269.9,168.87z"/>
		</g>
		<g>
			<g>
				<path class="st0" d="M249.24,168.57c-3.25-0.63-5.32-4.07-4.62-7.69c0.05-0.27,0.12-0.52,0.2-0.78
					c-0.63,0.84-1.09,1.84-1.3,2.96c-0.7,3.61,1.36,7.06,4.62,7.69c3.01,0.59,5.98-1.45,6.96-4.62
					C253.71,167.99,251.49,169.01,249.24,168.57z"/>
			</g>
			<path class="st1" d="M250.68,157.67c-2.24-0.44-4.47,0.58-5.86,2.44c-0.08,0.25-0.15,0.51-0.2,0.78
				c-0.7,3.61,1.36,7.06,4.62,7.69c2.24,0.44,4.47-0.58,5.86-2.44c0.08-0.25,0.15-0.51,0.2-0.78
				C256,161.74,253.93,158.3,250.68,157.67z"/>
		</g>
		<g>
			<g>
				<path class="st0" d="M255.14,177.85c-3.52-0.68-5.73-4.61-4.92-8.77c0.06-0.31,0.14-0.6,0.23-0.9c-0.69,0.97-1.2,2.12-1.45,3.41
					c-0.81,4.16,1.39,8.08,4.92,8.77c3.26,0.63,6.51-1.74,7.62-5.39C259.99,177.12,257.57,178.32,255.14,177.85z"/>
			</g>
			<path class="st1" d="M256.84,165.31c-2.43-0.47-4.86,0.72-6.39,2.87c-0.09,0.29-0.17,0.59-0.23,0.9
				c-0.81,4.16,1.39,8.08,4.92,8.77c2.43,0.47,4.86-0.72,6.39-2.87c0.09-0.29,0.17-0.59,0.23-0.9
				C262.56,169.92,260.36,166,256.84,165.31z"/>
		</g>
		<path class="st2" d="M267.26,161.21c0.54,0.32-0.25,2.63-1.77,5.16s-3.72,3.98-3.72,3.98s0.25-2.63,1.77-5.16
			S266.72,160.89,267.26,161.21z"/>
		<path class="st2" d="M260.45,161.96c0.62-0.09,1.37,1.53,1.66,3.61c0.29,2.08-0.6,3.93-0.6,3.93s-1.37-1.53-1.66-3.61
			S259.82,162.05,260.45,161.96z"/>
	</g>
	<g>
		<g>
			<g>
				<path class="st0" d="M167.18,183.55c-2.69-0.56-4.43-3.42-3.9-6.38c0.04-0.22,0.09-0.43,0.16-0.64
					c-0.51,0.68-0.87,1.5-1.04,2.42c-0.54,2.96,1.21,5.82,3.9,6.38c2.49,0.52,4.91-1.12,5.69-3.71
					C170.85,183.13,169.03,183.94,167.18,183.55z"/>
			</g>
			<path class="st1" d="M168.24,174.6c-1.86-0.39-3.67,0.42-4.8,1.93c-0.06,0.21-0.12,0.42-0.16,0.64c-0.54,2.96,1.21,5.82,3.9,6.38
				c1.86,0.39,3.67-0.42,4.8-1.93c0.06-0.21,0.12-0.42,0.16-0.64C172.67,178.02,170.93,175.16,168.24,174.6z"/>
		</g>
		<g>
			<g>
				<path class="st0" d="M176.14,193.97c-4.26-0.89-6.97-5.7-6.05-10.74c0.07-0.37,0.16-0.73,0.26-1.09
					c-0.82,1.17-1.42,2.57-1.7,4.13c-0.91,5.05,1.79,9.86,6.05,10.74c3.94,0.82,7.82-2.01,9.1-6.44
					C181.98,193.17,179.08,194.58,176.14,193.97z"/>
			</g>
			<path class="st1" d="M178.01,178.74c-2.94-0.61-5.84,0.8-7.66,3.4c-0.1,0.35-0.19,0.71-0.26,1.09
				c-0.91,5.05,1.79,9.86,6.05,10.74c2.94,0.61,5.84-0.8,7.66-3.4c0.1-0.35,0.19-0.71,0.26-1.09
				C184.98,184.44,182.27,179.63,178.01,178.74z"/>
		</g>
		<g>
			<g>
				<path class="st0" d="M177.9,204.91c-4.03-0.84-6.7-4.83-5.96-8.92c0.05-0.3,0.13-0.59,0.22-0.88c-0.74,0.93-1.27,2.05-1.5,3.32
					c-0.74,4.08,1.93,8.08,5.96,8.92c3.74,0.78,7.33-1.42,8.42-5C183.39,204.41,180.68,205.49,177.9,204.91z"/>
			</g>
			<path class="st1" d="M179.3,192.56c-2.78-0.58-5.49,0.49-7.14,2.56c-0.09,0.28-0.16,0.58-0.22,0.88
				c-0.74,4.08,1.93,8.08,5.96,8.92c2.78,0.58,5.49-0.49,7.14-2.56c0.09-0.28,0.16-0.58,0.22-0.88
				C186,197.39,183.33,193.4,179.3,192.56z"/>
		</g>
		<g>
			<g>
				<path class="st0" d="M162.23,192.29c-2.69-0.56-4.4-3.61-3.82-6.82c0.04-0.24,0.1-0.47,0.16-0.69c-0.52,0.74-0.9,1.63-1.08,2.62
					c-0.58,3.2,1.13,6.25,3.82,6.82c2.49,0.52,4.94-1.28,5.75-4.1C165.92,191.78,164.08,192.68,162.23,192.29z"/>
			</g>
			<path class="st1" d="M163.42,182.62c-1.86-0.39-3.69,0.51-4.84,2.16c-0.06,0.22-0.12,0.45-0.16,0.69
				c-0.58,3.2,1.13,6.25,3.82,6.82c1.86,0.39,3.69-0.51,4.84-2.16c0.06-0.22,0.12-0.45,0.16-0.69
				C167.81,186.24,166.1,183.18,163.42,182.62z"/>
		</g>
		<g>
			<g>
				<path class="st0" d="M167.1,200.51c-2.91-0.61-4.73-4.09-4.06-7.77c0.05-0.27,0.11-0.54,0.19-0.79
					c-0.57,0.86-0.99,1.88-1.2,3.03c-0.67,3.68,1.15,7.16,4.06,7.77c2.7,0.56,5.38-1.54,6.3-4.78
					C171.11,199.87,169.11,200.93,167.1,200.51z"/>
			</g>
			<path class="st1" d="M168.5,189.4c-2.01-0.42-4.01,0.64-5.28,2.55c-0.07,0.26-0.14,0.52-0.19,0.79
				c-0.67,3.68,1.15,7.16,4.06,7.77c2.01,0.42,4.01-0.64,5.28-2.55c0.07-0.26,0.14-0.52,0.19-0.79
				C173.23,193.49,171.42,190.01,168.5,189.4z"/>
		</g>
		<path class="st2" d="M177.12,185.77c0.45,0.29-0.21,2.33-1.46,4.57c-1.25,2.24-3.08,3.53-3.08,3.53s0.21-2.33,1.46-4.57
			C175.3,187.06,176.68,185.48,177.12,185.77z"/>
		<path class="st2" d="M171.49,186.43c0.52-0.08,1.13,1.36,1.37,3.2s-0.5,3.48-0.5,3.48s-1.13-1.36-1.37-3.2
			C170.75,188.07,170.97,186.51,171.49,186.43z"/>
	</g>
	<g>
		<g>
			<g>
				<path class="st0" d="M133.19,225.72c-0.37,2.72-3.1,4.66-6.09,4.33c-0.22-0.02-0.44-0.06-0.65-0.11
					c0.71,0.46,1.56,0.77,2.48,0.87c2.99,0.33,5.72-1.61,6.09-4.33c0.34-2.52-1.46-4.82-4.1-5.41
					C132.51,222.09,133.44,223.84,133.19,225.72z"/>
			</g>
			<path class="st1" d="M124.19,225.29c-0.26,1.88,0.68,3.64,2.26,4.65c0.21,0.05,0.43,0.09,0.65,0.11
				c2.99,0.33,5.72-1.61,6.09-4.33c0.26-1.88-0.68-3.64-2.26-4.65c-0.21-0.05-0.43-0.09-0.65-0.11
				C127.29,220.63,124.56,222.57,124.19,225.29z"/>
		</g>
		<g>
			<g>
				<path class="st0" d="M142.96,216.05c-0.59,4.31-5.2,7.35-10.29,6.79c-0.38-0.04-0.74-0.11-1.1-0.18
					c1.22,0.73,2.66,1.23,4.24,1.41c5.1,0.56,9.71-2.48,10.29-6.79c0.54-3.99-2.55-7.67-7.06-8.63
					C141.75,210.28,143.36,213.08,142.96,216.05z"/>
			</g>
			<path class="st1" d="M127.64,215.25c-0.41,2.97,1.21,5.77,3.92,7.41c0.36,0.08,0.72,0.14,1.1,0.18c5.1,0.56,9.71-2.48,10.29-6.79
				c0.41-2.97-1.21-5.77-3.92-7.41c-0.36-0.08-0.72-0.14-1.1-0.18C132.84,207.9,128.23,210.94,127.64,215.25z"/>
		</g>
		<g>
			<g>
				<path class="st0" d="M153.74,213.53c-0.56,4.08-4.35,7.02-8.48,6.57c-0.3-0.03-0.6-0.09-0.89-0.16
					c0.98,0.68,2.14,1.13,3.42,1.27c4.13,0.45,7.92-2.49,8.48-6.57c0.52-3.78-1.93-7.21-5.57-8.05
					C152.87,208.1,154.13,210.72,153.74,213.53z"/>
			</g>
			<path class="st1" d="M141.33,213c-0.38,2.82,0.87,5.44,3.05,6.94c0.29,0.07,0.59,0.12,0.89,0.16c4.13,0.45,7.92-2.49,8.48-6.57
				c0.38-2.82-0.87-5.44-3.05-6.94c-0.29-0.07-0.59-0.12-0.89-0.16C145.68,205.98,141.88,208.92,141.33,213z"/>
		</g>
		<g>
			<g>
				<path class="st0" d="M142.25,230.05c-0.37,2.72-3.3,4.64-6.53,4.28c-0.24-0.03-0.47-0.07-0.7-0.12
					c0.77,0.46,1.69,0.78,2.69,0.89c3.24,0.36,6.16-1.56,6.53-4.28c0.34-2.52-1.62-4.84-4.49-5.45
					C141.48,226.41,142.51,228.17,142.25,230.05z"/>
			</g>
			<path class="st1" d="M132.53,229.54c-0.26,1.88,0.77,3.65,2.49,4.68c0.23,0.05,0.46,0.09,0.7,0.12c3.24,0.36,6.16-1.56,6.53-4.28
				c0.26-1.88-0.77-3.65-2.49-4.68c-0.23-0.05-0.46-0.09-0.7-0.12C135.82,224.9,132.9,226.82,132.53,229.54z"/>
		</g>
		<g>
			<g>
				<path class="st0" d="M150.11,224.62c-0.4,2.95-3.75,5.01-7.47,4.6c-0.27-0.03-0.54-0.08-0.8-0.13c0.89,0.51,1.95,0.86,3.1,0.99
					c3.72,0.41,7.06-1.65,7.47-4.6c0.37-2.73-1.91-5.26-5.21-5.95C149.2,220.66,150.39,222.58,150.11,224.62z"/>
			</g>
			<path class="st1" d="M138.93,223.99c-0.28,2.03,0.92,3.96,2.91,5.09c0.26,0.05,0.53,0.1,0.8,0.13c3.72,0.41,7.06-1.65,7.47-4.6
				c0.28-2.03-0.92-3.96-2.91-5.09c-0.26-0.05-0.53-0.1-0.8-0.13C142.68,218.99,139.34,221.04,138.93,223.99z"/>
		</g>
		<path class="st2" d="M134.71,215.65c0.26-0.47,2.34,0.04,4.66,1.14c2.32,1.09,3.73,2.82,3.73,2.82s-2.34-0.04-4.66-1.14
			C136.12,217.38,134.45,216.11,134.71,215.65z"/>
		<path class="st2" d="M135.76,221.22c-0.11-0.51,1.27-1.22,3.1-1.59c1.82-0.37,3.51,0.25,3.51,0.25s-1.27,1.22-3.1,1.59
			C137.45,221.84,135.87,221.73,135.76,221.22z"/>
	</g>
	<circle class="st4" cx="196.88" cy="210" r="3.5"/>
	
		<ellipse transform="matrix(0.9665 -0.2566 0.2566 0.9665 -46.9084 31.5665)" class="st4" cx="97.49" cy="195.51" rx="4.93" ry="4.4"/>
	
		<ellipse transform="matrix(0.6543 -0.7562 0.7562 0.6543 -116.8654 145.714)" class="st4" cx="100.94" cy="200.68" rx="2.96" ry="2.64"/>
	
		<ellipse transform="matrix(0.6543 -0.7562 0.7562 0.6543 -112.5098 145.2418)" class="st4" cx="102.6" cy="195.68" rx="2.96" ry="2.64"/>
	
		<ellipse transform="matrix(0.6543 -0.7562 0.7562 0.6543 -108.8816 138.6362)" class="st4" cx="97.19" cy="188.41" rx="1.67" ry="1.49"/>
	
		<ellipse transform="matrix(0.6543 -0.7562 0.7562 0.6543 -105.7672 143.0715)" class="st4" cx="103.6" cy="187.22" rx="1.67" ry="1.49"/>
	
		<ellipse transform="matrix(0.6543 -0.7562 0.7562 0.6543 -104.0803 141.9037)" class="st4" cx="103.17" cy="184.79" rx="1.67" ry="1.49"/>
	<circle class="st4" cx="181.88" cy="218" r="3.5"/>
	<circle class="st4" cx="175.53" cy="216.01" r="2.69"/>
	<circle class="st4" cx="178.38" cy="219.5" r="3"/>
	<circle class="st4" cx="177.88" cy="226" r="3.5"/>
	<circle class="st4" cx="172.88" cy="219" r="3.5"/>
	<circle class="st1" cx="173.88" cy="223" r="3.5"/>
	<circle class="st4" cx="264.88" cy="258" r="3.5"/>
</g>
</svg>
