<?xml version="1.0" encoding="utf-8"?>
<!-- Generator: Adobe Illustrator 24.2.1, SVG Export Plug-In . SVG Version: 6.00 Build 0)  -->
<svg version="1.1" id="Layer_1" xmlns="http://www.w3.org/2000/svg" xmlns:xlink="http://www.w3.org/1999/xlink" x="0px" y="0px"
	 viewBox="0 0 150 30" style="enable-background:new 0 0 150 30;" xml:space="preserve">
<style type="text/css">
	.st0{fill:#0E254D;}
</style>
<g>
	<g>
		<g>
			<path class="st0" d="M11.5,9.8c0-4.38,3.65-5.95,7.7-5.95c0.67,0,1.96,0.08,2.63,0.16c-0.02,0.3-0.3,1.06-1.27,1.04
				c-2.03-0.09-6.7-0.42-6.7,3.73c0,1.97,1.63,3.36,2.88,4.17l2.71,1.71c2.14,1.32,4.24,3.29,4.24,6.5c0,3.73-2.81,6.28-7.22,6.28
				c-2.85,0-5.01-1.29-5.78-2.54c-1.22-1.94-0.11-3.66,0.79-4.38c0.54,2.78,2.35,5.87,5.44,5.87c2.85,0,4.24-1.86,4.24-3.9
				c0-1.49-0.3-3.15-2.78-4.74l-3.22-2.1C13.46,14.51,11.5,12.58,11.5,9.8"/>
			<path class="st0" d="M44.76,2.5c-1.21,0.34-2.72,1.81-2.72,4.32v20.12h2.5V10.03C44.55,6.39,44.56,4.38,44.76,2.5"/>
			<path class="st0" d="M35.77,22.47c0,2.64-2.17,3.21-3.45,3.21c-2.31,0-3.12-1.04-3.12-3.38v-9.45c-1.23,0.33-2.53,1.9-2.51,3.55
				v6.72c0,2.27,1.53,4.2,4.17,4.2c1.63,0,3.49-0.68,4.79-1.73c0.34-0.28,2.64-2.1,2.64-6.06v-6.31v0.01v-0.37
				c-1.23,0.33-2.53,1.9-2.51,3.55V22.47z"/>
			<path class="st0" d="M73.33,16.44c0-0.22,0.03-0.36,0.09-0.47c0,0,0.17-0.2,0.41-0.38c0.67-0.44,1.69-0.98,2.84-0.98
				c2.17,0,3.22,1.46,3.22,3.63v8.74l2.46,0l0.04-9.57c0-2.37-1.15-4.36-4.37-4.36c-1.74,0-3.43,1.02-4.65,1.9
				c-0.05,0.03-0.06-0.1-0.06-0.2V8c0.01-2.41,0.05-4,0.21-5.49c-0.63,0.17-1.36,0.67-1.9,1.46c-0.49,0.65-0.83,1.46-0.83,2.29
				v20.71h2.52V16.44z"/>
			<path class="st0" d="M109.48,20.37c0,4.24,3.05,6.99,6.95,6.99c4.24,0,7.16-3.05,7.16-7.29c0-4.17-3.09-7.01-6.88-7.01
				C112.69,13.06,109.48,16.11,109.48,20.37 M112.39,19.93c0-3.73,1.66-6.14,3.89-6.14c3.22,0,4.38,3.94,4.38,6.81
				c0,2.61-0.92,6.01-3.9,6.01C113.78,26.61,112.39,23.01,112.39,19.93"/>
			<path class="st0" d="M125.75,20.37c0,4.24,3.05,6.99,6.95,6.99c4.23,0,7.14-3.05,7.14-7.29c0-4.17-3.08-7.01-6.88-7.01
				C128.96,13.06,125.75,16.11,125.75,20.37 M128.66,19.93c0-3.73,1.66-6.14,3.89-6.14c3.22,0,4.38,3.94,4.38,6.81
				c0,2.61-0.92,6.01-3.9,6.01C130.05,26.61,128.66,23.01,128.66,19.93"/>
			<path class="st0" d="M99.38,16.91c0-3.29,2.85-3.89,5.34-3.89c0.35,0,1.43,0.08,1.77,0.1c0,0.38-0.37,0.98-1.05,0.98
				c-1.12,0-3.9-0.55-3.9,2c0,1.39,1.43,2.13,2.61,2.81c1.8,1.02,3.46,2.17,3.46,4.58c0,2.57-2.38,3.87-4.88,3.87
				c-1.59,0-2.95-0.43-3.56-1.33c-0.69-1.04-0.13-1.98,0.35-2.55c0.47,1.8,1.63,2.9,3.54,2.9c1.22,0,2.28-0.71,2.28-2.16
				c0-1.57-1.36-2.41-2.61-3.12C100.77,19.96,99.38,18.78,99.38,16.91"/>
			<path class="st0" d="M86.76,16.08h2.37c0,0,0.24-1.62,1.56-1.99c2.1-0.47,2.64,1.69,2.64,3.41v1.41c-0.71,0.5-1.42,0.7-3.44,1.03
				c-3.01,0.47-4.3,1.67-4.3,4.02c0,2.19,1.42,3.53,3.73,3.53c1.49,0,2.82-0.66,4.01-1.96v1.54h2.47v-9.94
				c0-3.45-2.75-3.95-4.03-3.95C90.25,13.18,87.61,13.78,86.76,16.08 M87.81,23.7c0-1.23,0.44-2.01,1.37-2.51
				c0.41-0.2,0.79-0.31,2.94-0.84c0.96-0.22,1.1-0.25,1.21-0.28v2.49c0,1.88-1.11,3.72-3.08,3.72
				C88.83,26.28,87.81,25.19,87.81,23.7"/>
			<path class="st0" d="M67.98,13.51c-0.63-0.12-1.83,0.14-2.64,2.22l-2.93,7.49l-3.37-9.76H57.3l-3.2,9.79l-3.86-9.73l-2.71,0.02
				L53,27.15h0.72l3.92-10.75l3.8,10.75h0.8l3.9-9.71C66.83,15.72,67.53,14.09,67.98,13.51"/>
		</g>
	</g>
</g>
</svg>
