<?xml version="1.0" encoding="utf-8"?>
<!-- Generator: Adobe Illustrator 24.2.1, SVG Export Plug-In . SVG Version: 6.00 Build 0)  -->
<svg version="1.1" id="Layer_1" xmlns="http://www.w3.org/2000/svg" xmlns:xlink="http://www.w3.org/1999/xlink" x="0px" y="0px"
	 viewBox="0 0 70 70" style="enable-background:new 0 0 70 70;" xml:space="preserve">
<style type="text/css">
	.st0{fill:none;}
	.st1{fill:#EDEDED;}
</style>
<path class="st1" d="M35,30.74c-2.35,0-4.26,1.91-4.25,4.26c0,2.35,1.91,4.26,4.26,4.25c2.35,0,4.25-1.91,4.25-4.26
	C39.26,32.65,37.35,30.74,35,30.74z M44.95,27.47c-0.44-1.11-1.32-1.99-2.43-2.43c-1.68-0.66-5.67-0.51-7.53-0.51
	c-1.86,0-5.85-0.15-7.53,0.51c-1.11,0.44-1.99,1.32-2.43,2.43c-0.66,1.68-0.51,5.67-0.51,7.53s-0.15,5.85,0.52,7.53
	c0.44,1.11,1.32,1.99,2.43,2.43c1.68,0.66,5.67,0.51,7.53,0.51c1.86,0,5.84,0.15,7.53-0.51c1.11-0.44,1.99-1.32,2.43-2.43
	c0.67-1.68,0.51-5.67,0.51-7.53C45.47,33.14,45.62,29.15,44.95,27.47L44.95,27.47z M35,41.54c-3.61,0-6.54-2.93-6.54-6.54
	s2.93-6.54,6.54-6.54s6.54,2.93,6.54,6.54c0,3.61-2.92,6.54-6.53,6.54C35.01,41.54,35.01,41.54,35,41.54z M41.81,29.71
	c-0.84,0-1.53-0.68-1.53-1.53c0-0.84,0.68-1.53,1.53-1.53s1.53,0.68,1.53,1.53c0,0,0,0,0,0C43.34,29.02,42.66,29.71,41.81,29.71
	C41.82,29.71,41.82,29.71,41.81,29.71L41.81,29.71z M49.04,17.13H20.96c-2.12,0-3.83,1.71-3.83,3.83v28.09
	c0,2.12,1.71,3.83,3.83,3.83h28.09c2.12,0,3.83-1.71,3.83-3.83V20.96C52.88,18.84,51.16,17.13,49.04,17.13z M47.68,40.27
	c-0.1,2.05-0.57,3.86-2.06,5.35c-1.49,1.49-3.3,1.97-5.35,2.06c-2.11,0.12-8.43,0.12-10.53,0c-2.05-0.1-3.85-0.57-5.35-2.06
	s-1.97-3.31-2.06-5.35c-0.12-2.11-0.12-8.43,0-10.53c0.1-2.05,0.56-3.86,2.06-5.35s3.31-1.96,5.35-2.06c2.11-0.12,8.43-0.12,10.53,0
	c2.05,0.1,3.86,0.57,5.35,2.06c1.49,1.49,1.97,3.31,2.06,5.35C47.8,31.84,47.8,38.16,47.68,40.27z"/>
</svg>
