<?xml version="1.0" encoding="utf-8"?>
<!-- Generator: Adobe Illustrator 24.3.0, SVG Export Plug-In . SVG Version: 6.00 Build 0)  -->
<svg version="1.1" id="Layer_1" xmlns="http://www.w3.org/2000/svg" xmlns:xlink="http://www.w3.org/1999/xlink" x="0px" y="0px"
	 viewBox="0 0 135.23 53.64" style="enable-background:new 0 0 135.23 53.64;" xml:space="preserve">
<style type="text/css">
	.st0{fill:#8C9091;}
	.st1{fill:#3D3935;}
</style>
<g>
	<g>
		<path class="st0" d="M123.52,0.64c-0.54-0.08-1.1-0.1-1.64-0.23c-0.49-0.12-0.9-0.43-1.39-0.41c-1.1,0.05-2.19,0.72-3.16,1.16
			c-1.17,0.53-2.32,1.13-3.42,1.79c-1.1,0.66-2.16,1.38-3.18,2.16c-0.53,0.4-1.05,0.83-1.56,1.27c-0.4,0.34-1.56,1.43-1.39,1.26
			c-0.21,0.53,1.35-0.69,4.27-0.87c0.25-0.02,0.5,0.03,0.75,0.01c0.26-0.02,0.45-0.12,0.69-0.2c0.54-0.18,1.08-0.33,1.62-0.47
			c0.88-0.24,1.78-0.44,2.68-0.6c0.68-0.12,1.39-0.25,2.09-0.26h0.04c0.72,0,1.47,0.04,2.13-0.27c0.65-0.3,1.21-0.8,1.74-1.24
			c0.4-0.34,0.96-0.76,1.3-1.16C125.89,1.6,124.31,0.75,123.52,0.64"/>
		<path class="st0" d="M130.25,12.94c0.17-0.02,0.34-0.03,0.51-0.05c0.88-0.04,1.66-0.12,2.18-0.92c0.09-0.14,0.12-0.24,0.12-0.34
			v-0.02c0,0,0-0.01,0-0.01c0.01-0.3-0.58-0.81-1.18-1.28c-0.59-0.46-2.01-0.64-2.74-0.8c-1.2-0.26-2.45-0.21-3.67-0.27
			c-0.45-0.02-0.89-0.14-1.34-0.1c-0.2,0.02,0.49,0.56,0.49,0.57c0.3,0.26,0.5,0.62,0.53,1.01c0,0.01,0,0.02,0,0.03
			c0,0.18-0.13,0.34-0.32,0.41c-0.71,0.27-3.74,0.55-4.46,0.71c-0.5,0.11-1.02,0.35-1.44-0.08c-0.33-0.33-0.12-0.58-0.08-0.99
			c0.06-0.55,0.12-1.1,0.33-1.62c0.22-0.57-0.45-1.15-0.81-1.51c-0.47-0.47-0.82-0.74-1.54-0.76h-0.04
			c-0.05-0.01-0.09-0.01-0.11-0.01c-0.58,0.08-0.64,0.94-0.86,1.39c-0.22,0.46-0.63,0.82-0.87,1.28c-0.16,0.31-0.18,0.73-0.12,1.08
			c0.07,0.44-0.06,0.94-0.16,1.39c-0.13,0.59-2.06,0.54-2.56,0.64c-1,0.19-1.99,0.44-3.01,0.53c-1.71,0.15-3.35,0.89-5.11,0.95
			c-0.01,0-0.02,0-0.03,0c-0.27,0-0.5-0.16-0.54-0.39l-0.08-0.52c0,0-3.16,1.8-3.54,3.04c-0.04,0.14-0.06,0.36-0.06,0.36
			c0.02,0.32,1.34,0.64,1.89,0.64h0.04c1.15,0,2.28-0.26,3.39-0.5c1.06-0.23,2.69-0.65,3.57-0.65c0.42,0,0.15,0.71-0.66,1.9
			c-0.84,1.22-2.72,3.85-4.9,7.45c-2.41,3.98-4.89,9.7-5.01,9.96c-0.11,0.24-0.52,1.04-0.07,0.79c0.41-0.42,0.6-0.71,0.92-1.01
			c0.38-0.34,0.8-0.69,1.27-0.89c0.31-0.13,0.72,0.03,0.92-0.28c0.2-0.31-0.11-0.81-0.11-1.13c0.02-0.69,0.8-0.83,1.36-0.85
			c0.42-0.02,0.44-0.12,0.66-0.49c0.23-0.38,0.39-0.67,0.43-1.12c0.02-0.27,0.08-0.64,0.39-1.06c0,0,0.01-0.01,0.01-0.01l0.06-0.06
			c0-0.12,0.78-0.76,0.89-0.91c0.25-0.32,0.46-0.68,0.66-1.04c0.31-0.58,0.81-1.45,1.31-1.9c0.28-0.25,0.44-0.44,0.67-0.8
			c0.31-0.47,0.93-0.66,1.31-1.08c0.36-0.41,0.72-0.81,1.12-1.2c0.62-0.61,1.96-1.21,2.05-2.26c0.1-1.09-3.04-3.85-0.85-4.49
			c0.82-0.23,2.08-0.53,2.92-0.25c1.12,0.38,0.89,1.43,0.89,2.43c0,1.6,0.01,3.2,0,4.8c0,0.56-0.07,1.78,0.29,1.99
			c0.56,0.31,1.04-0.42,1.44-0.71c0.29-0.21,0.66-0.28,0.98-0.44c0.33-0.15,0.62-0.28,0.89-0.53c0.51-0.48,0.77-1.15,0.64-1.84
			c-0.14-0.77-0.42-1.32-0.22-2.12c0.33-1.35,1.52-2.4,1.5-3.85c0,0-0.01-0.02,0-0.02v-0.04c0-0.05-0.01-0.1-0.01-0.15
			c0-0.01,0-0.02,0-0.03c0-0.15,0.1-0.3,0.27-0.38c1.16-0.57,3.36-0.59,4.66-0.88c0.89-0.2,1.8-0.21,2.7-0.32
			C128.79,13.2,129.49,13.02,130.25,12.94"/>
		<path class="st0" d="M135.18,20.02c-0.09-0.39-0.25-0.56-0.56-0.79c-0.28-0.21-0.7-0.43-1.11-0.78c-0.38-0.33-1.83-0.24-2.33-0.44
			c-0.52-0.21-0.74-0.3-1.28-0.45c-1.07-0.3-2.21,0.08-3.26,0.28c-0.78,0.15-1.55,0.35-2.32,0.56c-0.33,0.09-1.62,0.7-1.91,0.56
			c0.57,0.26,1.13,0.6,1.58,0.94c0.11,0.08,0.17,0.19,0.18,0.31v0.04c-0.01,0.13-0.09,0.25-0.21,0.34c-2.3,1.46-4.45,3.24-6.17,5.07
			c-0.06,0.07-0.14,0.12-0.24,0.15c-2.03,0.59-3.97,0.22-5.6,0.9c-0.86,0.7-1.63,0.7-1.82,0.71c-2.27,0.14-3.73,2.7-5.5,4.6
			c-0.79,1.41-1.04,2.61-1.16,4.68c-0.1,1.74,0.5,3.56,1.13,5.15c0.35,0.87,0.72,1.93,1.31,2.67c0.63,0.8,0.83,0.43,1.49-0.09
			c0.54-0.43,1.23-0.42,1.82-0.77c0.77-0.45,0.95-2.08,1.39-2.81c0,0,4.73-8.54,6.92-10.83c0,0,0.01-0.01,0.01-0.01
			c0.06-0.08,0.11-0.1,0.14-0.12c0.05-0.03,0.1-0.06,0.17-0.09c0.13-0.07,0.31-0.15,0.51-0.23c0.5-0.2,2.05-0.75,2.41-0.07
			c0.4,0.74-0.79,1.98-1.15,2.55c-0.33,0.54-0.44,0.76-0.38,1.36c0.07,0.75-0.1,0.86-0.31,1.56c-0.46,1.52,2.77,1.21,3.66,1.39
			c1.64,0.34,3.48,1.01,4.3,2.6l0.01,0.02c0.06,0.15,0.15,0.46,0.15,0.87c0,0.65-0.22,1.55-1.08,2.49c-0.51,0.55-1.1,1.04-1.64,1.53
			c-1.95,1.73-3.98,3.41-6.1,5c-0.49,0.37-1.02,0.73-1.55,1.05c-0.65,0.4-0.86,0.48-0.85,0.69c0.02,0.28,0.53-0.08,0.63-0.13
			c0.14-0.08,0.29-0.14,0.43-0.22c0.13-0.07,0.37-0.2,0.52-0.13c0.29,0.12-0.12,0.41-0.24,0.45c-0.15,0.07-0.29,0.15-0.45,0.21
			c-0.15,0.06-0.32,0.17-0.46,0.25c-0.13,0.08-0.28,0.22-0.38,0.35c-0.21,0.3-0.53,0.54-0.83,0.72c-0.5,0.3-0.98,0.6-1.48,0.88
			c-0.12,0.07-0.7,0.27-0.73,0.39c-0.18,0.54,0.83,0.02,0.97-0.04c0.8-0.34,1.62-0.65,2.41-1.02c0.4-0.19,0.77-0.43,1.18-0.63
			c0.33-0.16,0.74-0.2,0.95-0.53c0.22-0.35,0.3-0.39,0.7-0.39c0.6,0,0.75-0.23,0.95-0.76c0.07-0.18,0.14-0.36,0.25-0.52
			c0.19-0.3,0.5-0.61,0.95-0.5c0.23,0.06,0.45,0.23,0.68,0.31c0.27,0.09,0.57,0.21,0.79,0.01c0.26-0.22,0.52-0.42,0.79-0.62
			c0.2-0.15,0.36-0.39,0.56-0.51c0.19-0.11,0.42-0.12,0.61-0.31c0.25-0.24,0.29-0.37,0.67-0.36c0.13,0,0.19,0.08,0.34,0
			c0.16-0.09,0.24-0.32,0.4-0.43c0.19-0.13,0.42-0.2,0.65-0.21c0.09,0,0.19,0.01,0.28,0.03c0.29-0.08,0.33-0.13,0.47-0.28
			c0.27-0.29,0.35-0.83,0.7-1.05c0.27-0.16,0.16,0.02,0.4,0.03c0.21,0,0.32-0.15,0.47-0.27c0.33-0.26,0.67-0.43,0.96-0.73
			c4.3-4.41,2.29-8.06-0.16-9.24c-2.46-1.18-2.71-0.13-4.99-1.19c-0.57-0.26-0.68-0.84-0.68-1.31c0,0,0-0.01,0-0.01
			c0.08-1.79,1.82-3.32,3.04-4.46c0.51-0.48,1.43-1.02,1.51-1.79c0.09-0.93-1.1-1.31-1.67-1.81c-0.39-0.33-0.68-0.52-1.05-0.53
			h-0.02c-0.09,0-0.2,0.01-0.33,0.04c-1.11,0.57-2.26,0.81-3.19,0.91c-0.46,0.05-1.05,0.08-1.32-0.27c-0.54-0.72,0.96-2.07,1.7-2.51
			c1.67-0.97,3.36-1.04,5.23-0.86c1.72,0.16,3.38,0.85,5.13,0.85c0.32,0,0.61-0.03,0.87-0.09c0.85-0.21,1.19-1.1,1.21-1.83
			C135.23,20.39,135.21,20.2,135.18,20.02 M111.92,31.18l-0.04,0.07l0,0l-0.05,0.07l0,0c-1.77,2.63-3.15,5.42-4.56,8.27
			c-0.03,0.07-0.08,0.13-0.16,0.18c-0.08,0.06-0.17,0.08-0.27,0.1v-0.01v0l-0.02,0h0l0,0l0,0h-0.03h0.01h-0.02h-0.02
			c-0.15,0-0.29-0.05-0.4-0.15v0l-0.01-0.01l0,0l-0.01-0.01l-0.01-0.01c-1.04-1.13-0.5-2.29-1.52-2.96l-0.02-0.02l-0.06-0.05
			l-0.01-0.02c-0.27-0.33-0.39-1.06-0.39-1.07c0.01-0.69,0.28-1.25,0.62-1.88c0.66-1.25,3.77-3.02,6.42-3.12l0,0
			c0.01,0,0.02,0,0.03,0c0.19,0,0.36,0.08,0.46,0.21c0.05,0.07,0.08,0.16,0.08,0.24C111.95,31.08,111.94,31.13,111.92,31.18
			L111.92,31.18z"/>
	</g>
	<g>
		<path class="st1" d="M0.78,14.52c0,0,0.56-1.57,2.51-0.78c0,0,2.51,0.21,4.33,0.1c0,0,3.31-0.01,5.02-0.25c0,0,2.28-0.58,4.33-0.7
			c0,0,5.36-0.14,7.07,0.43c0,0,2.28,0.11,3.53,0.44c0,0,1.49-0.12,3.2-0.24c0,0,1.59-0.35,3.3,0.1c0,0,2.17,0.56,4.44-0.47
			c0,0,0.91-0.12,1.94-0.47c0,0,2.16-1.02,0.81,0.69c0,0-1.64,2.74-3.7,3.32c0,0-0.06,0.12-3.13,0.52c0,0-2.05,0.3-3.88-0.15
			c0,0-2.28-0.16-4.56-0.15c0,0-2.96-0.45-4.22-0.33c0,0-1.88,0.12-0.56,1.2c0,0,1.2,0.34,3.25,0.62c0,0,3.76,0.33,6.21,0.26
			c0,0,1.77-0.46,2.18,1.53c0,0,0.01,3.87,0.18,5.01c0,0,0.99,2.85-0.95,2.85c0,0-0.17,0.06-0.91-0.39c0,0-0.92-0.48-2.48-0.42
			c0,0-1.06,0.26-1.94,0.32c0,0-1.46,0.29-1.29-0.96c0,0,0-1.14,1.33-0.69c0,0,0.86,0.42,2.59,0.13c0,0,1.57-0.46,0.68-1.42
			c0,0-0.11-0.17-1.45,0.06c0,0-2.88,0.24-2.91-0.67c0,0,0.02-1.36,1.25-1.43c0,0,1.17-0.06,2.03,0.05c0,0,1.56,0.23,1.04-0.8
			c0,0,0.14-0.65-3.28-0.7c0,0-1.88,0.35-3.22-0.19c0,0-2.46-0.62-2.68,0.33c0,0-0.14,0.91-0.04,2.82c0,0,0.01,2.99,0.07,3.48
			c0,0,0.54,1.42-0.42,1.45c0,0-0.69,0.32-0.12,0.94c0,0,0.95,0.31,2.2,0.36c0,0,2.47,0.02,4.21-0.07c0,0,2.37-0.64,2.71,0.98
			c0,0,0.26,0.74-0.51,1.39c0,0-0.48,0.71-0.68,2.11c0,0-0.67,2.28-0.27,3.88c0,0,1.21,2.22-0.42,2.48c0,0-2.36,0.38-3.25,0.04
			c0,0-8-0.14-8.8-0.28c0,0-1.14-0.11-2.28,0.3c0,0-2.31,0.64-1.74-0.99c0,0,0.31-1.29,1.93-1.57c0,0,0.31-0.12,2.51,0.35
			c0,0,1.02,0.2,2.96,0.27c0,0,5.47,0.06,6.47-0.02c0,0,0.88,0.08,1.17-0.77c0,0,0.68-1.6-1.18-1.65c0,0-0.69-0.2-3.59,0.1
			c0,0-4.02,0.24-5.9-0.09c0,0-1.82,0.01-3.59,0.07c0,0-1.62-0.05-0.66-1.14c0,0,0.49-0.83,2.25-1.15c0,0,2.02-0.24,4.36,0.2
			c0,0,3.3,0.36,6.01,0.04c0,0,1.34-0.06,2.02,0.11c0,0,0.86,0.13,0.88-0.86c0,0,0.37-1.57-1.29-1.56c0,0-3.19-0.27-4.19-0.44
			c0,0-2.37-0.39-4.71-0.3c0,0-1.94-0.25-3.76,0.18c0,0-0.48-0.08-0.96,0.52c0,0-0.46,0.63-1,0.15c0,0-0.37-1.11,0.76-1.89
			c0,0,0.48-0.88,2.73-0.89c0,0,3.05,0.02,4.25,0.16c0,0,0.68,0.05,0.48-0.89c0,0-0.83-0.71-0.55-2.85c0,0,0.05-2.54,0.22-3.25
			c0,0,0.25-1.11-0.35-1.72c0,0-0.12-0.56-2.76-0.33c0,0-1.74,0.03-3.02-0.01c0,0-1.37-0.14-1.62,0.35c0,0-0.29,0.51,0.78,0.7
			c0,0,2.27-0.01,2.48,0.59c0,0,0.89,1.48-0.71,1.63c0,0-2.36-0.08-2.96,0.26c0,0-0.86,0.86,0.46,1.14c0,0,0.94,0.25,1.68-0.06
			c0,0,1.48-0.29,1.63,0.53c0,0,0.55,1.51-1.42,1.37c0,0-1.2-0.42-2.96-0.01c0,0-0.66,0.08-1.11,0.29c0,0-1.16,0.66-1.4-0.56
			c0,0-0.04-2.48,0.27-4.02c0,0,0.16-2.31-0.36-2.96c0,0-1.17-1.56,0.51-1.74c0,0,4.39-0.1,7.67-0.06c0,0,2.08,0.02,2.36-0.98
			c0,0,0.57-1.2-1.43-1.05c0,0-2.67,0.29-4.73,0.33c0,0-4.9-0.41-5.65-0.49c0,0-1.51-0.28-3.08,0.09c0,0-0.31,0.06-1.31,0.52
			c0,0-2.33,0.69-2.08-0.51C0.02,16.32-0.01,15.82,0.78,14.52"/>
	</g>
	<g>
		<path class="st1" d="M64.83,14.18c0,0-0.18-2.22,2.25-1.16c0,0,1.8,0.89,1.13,2.64c0,0-0.68,1.45-2.4,0.44
			C65.82,16.1,65.01,15.68,64.83,14.18"/>
		<path class="st1" d="M43.68,18.67c0,0-0.47-2.35,2.47-1.38c0,0,1.68,0.98,3.55,1.01c0,0,2.69,0.12,3.38-0.61
			c0,0,0.85-0.35,0.97-1.55c0,0,0.47-1.92,2.56-0.65c0,0,0.9,0.34,1.76,1.79c0,0-0.08,0.6,1.41,0.17c0,0,2.27-0.48,3.89-0.01
			c0,0,1.96,0.07,4.92,0.07c0,0,4.32-0.19,5.94-1.14c0,0,2.6-1.34,3.46,0.24c0,0,0.95,1.41-1.49,2.32c0,0-0.12,0-1.28,0.25
			c0,0-1.03-0.08-2.95,0.18c0,0-1.71,0.57-3.76,0.23c0,0-3.33-0.5-4.02-0.63c0,0-3.59-0.59-5.08,0.23c0,0-2.18,0.95-4.1,0.7
			c0,0-0.26-0.09-0.94-0.39c0,0-0.64-0.3-1.88,0.01c0,0-2.48,0.56-4.1,0.05c0,0-0.99-0.21-3.08,0.05
			C45.31,19.65,43.77,19.96,43.68,18.67"/>
		<path class="st1" d="M48.15,24.13c0,0-0.56-2.52,1.58-0.91c0,0,0.09,0.69,1.88,0.17c0,0,2.31-0.83,3.72-0.83
			c0,0,1.84-0.36,2.44,0.67c0,0-0.04,0.85,0.13,1.49c0,0,0.21,0.6-0.85,1.03c0,0-1.49,0.05-1.79,1.97c0,0,0.52,0.82,0.01,1.97
			c0,0-0.33,0.99,0.05,2.43c0,0,0.13,1.76-0.16,3.08c0,0-0.08,1.28,0.22,2.73c0,0,0.78,2.4-0.07,2.65c0,0-1.02,0.65-1.49,0.1
			c0,0-0.36-3.89-0.07-5.47c0,0,0.45-4.75,0.15-6.11c0,0-0.35-1.75-0.82-1.84c0,0-0.99-0.8-1.84-0.07c0,0-1.54,1.54-2.52,1.63
			c0,0-1.5,0.27-1.46-1.83c0,0,0-0.85,0.47-1.37C47.73,25.62,48.12,25.41,48.15,24.13"/>
		<path class="st1" d="M62.25,22.83c0,0-0.39-1.96,2.18-0.65c0,0,1.2,0.51,0.95,1.88c0,0-0.59,1.71,1.16,0.85c0,0,1.45-0.3,1.7-1.2
			c0,0-0.17-0.64,1.45-0.26c0,0,2.23,0.29,1.98,2.26c0,0,0,1.37-2.18,0.9c0,0-2.44-0.46-3.04-0.37c0,0-1.58,0.09-1.7,1.71
			c0,0-0.3,0.72,0.78,3.37c0,0,0.22,2.01,2.62,2.17c0,0,4.19,0.37,5.29,0.62c0,0,2.78,0.12,4.28-0.62c0,0,7.68-3.36,9.54-8.75
			c0,0,0.68,0.81,0.31,2.95c0,0-0.46,0.73-0.46,1.75c0,0,0.26,0.21-0.59,1.45c0,0-1.61,1.98-3.11,3.09c0,0-0.46,1.71-2.8,2.36
			c0,0-0.48,0.09-1.58,1.25c0,0-0.98,1.41-3.76,0.66c0,0-1.2-0.51-3.34-0.54c0,0-1.15,0.09-2.44-0.38c0,0-0.85-0.17-2.52-0.12
			c0,0-2.23,0-3.31-1.79c0,0-0.85-0.08-0.4-6.24c0,0-0.23-3.12-0.57-4.23C62.69,24.96,62.21,23.43,62.25,22.83"/>
	</g>
</g>
</svg>
